<svg width="14" height="14" viewBox="0 0 14 14" fill="none" xmlns="http://www.w3.org/2000/svg">
<g clip-path="url(#clip0)">
<path d="M0.841486 6.01735C0.898769 6.00806 0.956743 6.00377 1.01475 6.00452H10.8915L10.6761 5.90435C10.4656 5.80471 10.2741 5.66911 10.1101 5.50367L7.34046 2.73399C6.97569 2.38578 6.9144 1.82561 7.19522 1.40675C7.52205 0.960403 8.14883 0.863489 8.59521 1.19032C8.63127 1.21674 8.66554 1.24554 8.69775 1.27653L13.7062 6.28499C14.0976 6.67597 14.098 7.31019 13.707 7.70161C13.7067 7.70186 13.7065 7.70214 13.7062 7.70239L8.69775 12.7109C8.30603 13.1015 7.6718 13.1006 7.28114 12.7089C7.2504 12.678 7.2217 12.6452 7.19522 12.6107C6.9144 12.1918 6.97569 11.6317 7.34046 11.2834L10.1051 8.50875C10.2521 8.36163 10.4211 8.23826 10.606 8.14313L10.9065 8.00791H1.06987C0.558163 8.02691 0.109217 7.66946 0.0130854 7.16648C-0.07547 6.6204 0.295407 6.10594 0.841486 6.01735Z" fill="#2CA4F7"/>
</g>
<defs>
<clipPath id="clip0">
<rect width="14" height="14" fill="white" transform="matrix(-1 0 0 1 14 0)"/>
</clipPath>
</defs>
</svg>
