<svg width="1892" height="926" viewBox="0 0 1892 926" fill="none" xmlns="http://www.w3.org/2000/svg">
<mask id="mask0" mask-type="alpha" maskUnits="userSpaceOnUse" x="0" y="0" width="1892" height="924">
<path d="M0 60C0 26.8629 26.8629 0 60 0H1832C1865.14 0 1892 26.8629 1892 60V794.301C1892 826.526 1866.55 852.996 1834.34 854.255L62.345 923.562C28.3142 924.893 0 897.664 0 863.607V60Z" fill="#F3F8FC"/>
</mask>
<g mask="url(#mask0)">
<g opacity="0.03">
<path d="M1641.66 404.923C1592.63 404.923 1553.02 444.535 1553.02 493.419C1553.02 524.74 1569.15 552.216 1593.61 567.857L1633.79 495.379C1635.37 492.515 1638.39 490.743 1641.66 490.743C1644.94 490.743 1647.96 492.515 1649.54 495.379L1689.72 567.706C1714.03 552.065 1730.2 524.664 1730.2 493.381C1730.16 444.535 1690.55 404.923 1641.66 404.923Z" fill="#095FD2"/>
<path d="M1641.66 273.347C1520.27 273.347 1421.48 372.133 1421.48 493.419C1421.48 574 1465.01 644.669 1529.8 682.924L1559.39 629.517C1513.41 601.627 1482.61 551.009 1482.61 493.457C1482.61 405.79 1554 334.518 1641.66 334.518C1729.33 334.518 1800.6 405.79 1800.6 493.457C1800.6 551.047 1769.81 601.514 1723.94 629.517L1753.53 682.924C1818.2 644.669 1861.74 574 1861.74 493.419C1861.74 372.133 1763.06 273.347 1641.66 273.347Z" fill="#095FD2"/>
<path d="M1641.66 138.267C1445.83 138.267 1286.51 297.544 1286.51 493.419C1286.51 636.452 1371.47 760.038 1493.58 816.158V816.195C1538.58 837.113 1588.82 750.916 1641.63 750.916C1694.43 750.916 1744.71 837.113 1789.67 816.195L1789.64 816.12L1789.71 816.195C1911.86 760.075 1996.82 636.49 1996.82 493.457C1996.82 297.582 1837.5 138.267 1641.66 138.267ZM1762.46 761.545C1762.42 761.545 1762.42 761.545 1762.46 761.545L1643.4 521.422C1643.06 520.744 1642.38 520.329 1641.66 520.329C1640.91 520.329 1640.23 520.744 1639.89 521.422L1520.87 761.507C1418.8 715.413 1347.65 612.594 1347.65 493.419C1347.65 331.314 1479.56 199.4 1641.66 199.4C1803.77 199.4 1935.68 331.314 1935.68 493.419C1935.68 612.632 1864.52 715.45 1762.46 761.545Z" fill="#095FD2"/>
</g>
</g>
</svg>
