<svg width="140" height="162" viewBox="0 0 140 162" fill="none" xmlns="http://www.w3.org/2000/svg">
<path d="M90.9552 18.5544C88.0617 14.6385 88.732 11.2193 90.9552 8.75987C93.7281 5.67346 98.2564 5.69757 101.275 7.27453C106.001 9.73884 107.019 20.5364 99.1245 22.0604C96.3234 21.0825 93.5937 19.911 90.9552 18.5544Z" fill="#222B4D"/>
<path d="M100.354 7.95451C103.248 6.25216 102.442 2.94874 105.056 1.20299C108.692 -1.20827 116.529 -0.161778 114.079 5.86636C111.629 11.8945 120.348 12.2417 117.817 18.2313C115.285 24.2208 107.93 27.8763 106.04 19.1958C104.627 12.6902 110.631 4.30869 105.784 5.2105C102.761 5.76991 101.753 8.88043 101.753 8.88043L100.354 7.95451Z" fill="#222B4D"/>
<path d="M93.1639 33.4849C92.7684 34.5796 92.3392 35.573 91.8811 36.6002C91.4229 37.6274 90.9166 38.616 90.3861 39.6046C89.3182 41.6793 87.9769 43.6013 86.3979 45.3193C85.9464 45.8004 85.4507 46.2379 84.9174 46.6262C84.3899 47.0004 83.828 47.3234 83.2391 47.5907C82.1543 48.0761 81.0234 48.4509 79.8634 48.7095C77.6657 49.2171 75.4155 49.4615 73.1601 49.4377C72.907 49.4336 72.664 49.3378 72.4761 49.1683C72.2883 48.9987 72.1682 48.7668 72.1382 48.5155C72.1081 48.2642 72.1702 48.0105 72.3129 47.8014C72.4556 47.5924 72.6692 47.4421 72.9141 47.3785H72.9624C74.9798 46.9068 76.9658 46.3093 78.9085 45.5894C79.8218 45.2491 80.7057 44.8346 81.5513 44.35C81.9279 44.1341 82.286 43.8873 82.6219 43.6121C82.9468 43.3403 83.247 43.0401 83.5189 42.7151C84.1401 41.9812 84.6998 41.1973 85.1923 40.3714C85.7131 39.5178 86.2146 38.6353 86.6776 37.7142C87.5939 35.8913 88.4619 33.943 89.2094 32.0719V32.0429C89.4077 31.523 89.8043 31.1031 90.3121 30.8757C90.82 30.6482 91.3973 30.6318 91.9172 30.8301C92.4372 31.0283 92.857 31.425 93.0845 31.9328C93.3119 32.4406 93.3284 33.018 93.1301 33.5379L93.1639 33.4849Z" fill="#CD7870"/>
<path d="M92.5369 29.9162C88.5535 30.3695 86.3593 36.3446 86.3593 36.3446L90.4391 42.0931C90.4391 42.0931 95.2617 36.6291 95.6812 34.189C96.1008 31.6764 95.4787 29.5738 92.5369 29.9162Z" fill="#222B4D"/>
<path opacity="0.2" d="M90.3572 33.5717C91.693 32.7326 93.1494 33.1956 94.3888 34.7532C94.6451 35.2003 94.8167 35.6907 94.8951 36.2C93.6895 38.3846 90.4343 42.0883 90.4343 42.0883L88.568 39.46C88.4282 37.9072 89.4939 34.0877 90.3572 33.5717Z" fill="#161D38"/>
<path d="M73.8883 47.5907L70.8839 45.9703L70.8019 49.8862C70.8019 49.8862 72.8081 50.3202 74.1343 49.2496L73.8883 47.5907Z" fill="#CD7870"/>
<path d="M67.8698 46.1054L68.3955 49.3027L70.8212 49.8862L70.9032 45.9703L67.8698 46.1054Z" fill="#CD7870"/>
<path d="M83.0125 39.0597L80.3794 36.8992L62.4397 63.8522L65.0969 66.0127C68.1254 68.4914 74.5924 64.4695 79.5644 57.0235C84.5364 49.5775 86.041 41.5384 83.0125 39.0597Z" fill="#095FD2"/>
<path opacity="0.3" d="M83.0125 39.0597L80.3794 36.8992L62.4397 63.8522L65.0969 66.0127C68.1254 68.4914 74.5924 64.4695 79.5644 57.0235C84.5364 49.5775 86.041 41.5384 83.0125 39.0597Z" fill="#161D38"/>
<path d="M77.362 54.1415C82.148 46.5766 83.3639 38.7587 80.0778 36.6797C76.7917 34.6007 70.2479 39.0478 65.4619 46.6127C60.6759 54.1775 59.46 61.9954 62.7462 64.0744C66.0323 66.1535 72.576 61.7063 77.362 54.1415Z" fill="#095FD2"/>
<path d="M68.082 54.7955L70.4932 51.1593C70.2483 50.4138 70.2365 49.6114 70.4595 48.859C70.7355 47.9104 71.1639 47.013 71.7278 46.2018C72.2364 45.3821 72.9017 44.6709 73.6857 44.1088C74.3561 43.6652 74.93 43.5591 75.3977 43.7905L75.9861 42.9128L76.4973 43.3324L75.9186 44.2149C76.0756 44.4606 76.1806 44.7358 76.2271 45.0236C76.2735 45.3115 76.2605 45.6058 76.1886 45.8883C76.0009 46.7393 75.6751 47.5539 75.2241 48.2996L74.1391 47.8559C74.4766 47.3415 74.6451 46.7346 74.6213 46.1198L72.3596 49.4956C72.6709 50.2605 72.735 51.1037 72.5428 51.9068C71.9283 53.8346 70.753 55.5355 69.1671 56.792C68.434 57.3 67.783 57.4463 67.2139 57.2309L66.6304 58.1086L66.1192 57.689L66.6738 56.8547C66.5011 56.5679 66.3901 56.2482 66.3478 55.9161C66.3054 55.584 66.3327 55.2467 66.4279 54.9257C66.6887 53.8505 67.1184 52.8234 67.701 51.8827L68.8102 52.4132C68.5645 52.8468 68.3672 53.3061 68.2218 53.7828C68.117 54.1097 68.0697 54.4524 68.082 54.7955ZM74.1487 45.6617C73.8798 45.688 73.6264 45.7995 73.4253 45.98C72.8658 46.4426 72.4521 47.0573 72.2342 47.7498C72.1346 48.0444 72.1065 48.3585 72.1522 48.6661L74.1487 45.6617ZM68.516 55.3067C68.6642 55.3292 68.8156 55.3184 68.9591 55.275C69.1026 55.2316 69.2346 55.1568 69.3455 55.0559C70.0351 54.5189 70.5407 53.7807 70.7922 52.9437C70.8886 52.6084 70.8801 52.2517 70.7681 51.9213L68.516 55.3067Z" fill="white"/>
<path opacity="0.2" d="M79.5885 45.845C79.9454 43.482 79.5885 41.5868 78.4697 40.656C76.0054 38.6354 70.7537 41.9147 66.6979 47.9766C64.9931 50.4734 63.735 53.2474 62.9798 56.1749C63.3945 53.4067 64.7689 49.9972 66.9439 46.7227C70.9803 40.6608 76.2513 37.3864 78.7156 39.4022C80.0466 40.4872 80.2878 42.9033 79.5885 45.845Z" fill="#161D38"/>
<path d="M114.552 135.751L110.501 136.137L108.437 126.699L112.488 126.313L114.552 135.751Z" fill="#CD7870"/>
<path d="M137.116 129.916L133.35 131.391L129.719 122.441L133.485 120.965L137.116 129.916Z" fill="#CD7870"/>
<path d="M132.255 129.54L136.383 127.485C136.454 127.45 136.536 127.441 136.613 127.461C136.69 127.48 136.757 127.527 136.803 127.591L138.896 130.625C138.949 130.703 138.984 130.792 139 130.886C139.015 130.979 139.011 131.075 138.986 131.167C138.961 131.258 138.917 131.343 138.857 131.416C138.796 131.489 138.721 131.548 138.635 131.589C137.189 132.284 136.552 132.626 134.734 133.518C133.615 134.073 131.122 135.38 129.579 136.147C128.035 136.913 127.196 135.428 127.77 134.97C130.341 132.92 131.189 131.372 131.754 130.075C131.853 129.843 132.03 129.654 132.255 129.54Z" fill="#222B4D"/>
<path d="M109.71 134.034H114.581C114.668 134.034 114.752 134.063 114.821 134.117C114.89 134.17 114.939 134.244 114.962 134.328L116.023 138.186C116.049 138.277 116.054 138.373 116.036 138.467C116.019 138.56 115.98 138.648 115.922 138.723C115.864 138.798 115.789 138.858 115.704 138.899C115.618 138.94 115.524 138.96 115.429 138.958C113.727 138.929 112.912 138.958 110.771 138.958H104.232C102.452 138.958 102.061 137.154 102.785 136.995C106.088 136.262 107.993 135.254 109.011 134.295C109.201 134.12 109.452 134.027 109.71 134.034Z" fill="#222B4D"/>
<path opacity="0.2" d="M108.442 126.704L109.503 131.565H113.64L112.492 126.313L108.442 126.704Z" fill="#161D38"/>
<path opacity="0.2" d="M133.485 120.97L129.719 122.446L131.594 127.056L135.356 125.58L133.485 120.97Z" fill="#161D38"/>
<path d="M104.902 25.8412C108.123 25.4698 110.207 27.0034 110.351 30.22C110.776 41.5577 112.03 44.1667 113.925 50.0309L97.861 54.5014C92.1511 42.1364 90.145 36.306 89.5084 33.562C89.376 32.9243 89.4561 32.2607 89.7366 31.6729C90.017 31.085 90.4823 30.6052 91.0613 30.3068C95.3373 27.925 100.04 26.4076 104.902 25.8412Z" fill="#222B4D"/>
<path d="M100.017 18.2409C100.21 20.7149 100.851 24.9924 102.91 26.1257C102.91 26.1257 102.606 27.6544 97.2823 32.7518C93.9982 29.9837 95.6764 28.1271 95.6764 28.1271C98.1214 26.7719 97.5475 25.0069 96.583 23.3045L100.017 18.2409Z" fill="#CD7870"/>
<path opacity="0.2" d="M99.6453 18.7955C99.9967 20.2015 100.046 21.666 99.79 23.0924C99.6067 24.0569 98.5554 24.7899 97.3787 25.2095C97.2182 24.5395 96.9547 23.8985 96.5975 23.3094L99.6453 18.7955Z" fill="#161D38"/>
<path d="M100.962 13.5679C101.748 17.5658 102.168 19.2392 100.711 21.7662C98.5169 25.5856 93.4339 25.6821 91.4664 21.9977C89.6965 18.6846 88.7031 12.7047 92.1463 10.1295C92.9036 9.55882 93.7942 9.19132 94.7336 9.06188C95.6729 8.93244 96.6297 9.04537 97.5131 9.38993C98.3965 9.73449 99.1771 10.2992 99.7807 11.0305C100.384 11.7618 100.791 12.6352 100.962 13.5679Z" fill="#CD7870"/>
<path d="M103.05 16.0033C103.109 16.3887 103.09 16.782 102.996 17.1603C102.902 17.5386 102.733 17.8944 102.5 18.2072C101.873 19.0415 100.928 18.6364 100.571 17.7249C100.253 16.8954 100.19 15.4583 101.078 14.9568C101.272 14.8503 101.489 14.7937 101.711 14.7922C101.932 14.7907 102.15 14.8442 102.346 14.948C102.542 15.0518 102.708 15.2025 102.831 15.3867C102.954 15.5709 103.029 15.7828 103.05 16.0033Z" fill="#CD7870"/>
<path d="M97.4559 11.4508C97.3064 12.9795 98.5313 15.5933 100.832 16.201C103.214 13.4618 101.642 9.70506 99.4524 9.6279C97.263 9.55074 97.4559 11.4508 97.4559 11.4508Z" fill="#222B4D"/>
<path d="M94.2441 7.28414C90.7285 7.44328 86.9573 9.0106 88.2642 14.5179C91.3313 13.8765 99.8672 12.9217 100.523 10.7322C99.6598 7.92071 96.5493 7.17805 94.2441 7.28414Z" fill="#222B4D"/>
<path d="M97.861 54.5014C97.861 54.5014 96.9254 86.9473 99.5344 99.1916C102.24 111.933 108.35 130.143 108.35 130.143L114.089 129.771C114.089 129.771 110.38 105.962 109.266 96.139C107.694 82.5974 109.647 51.2173 109.647 51.2173L97.861 54.5014Z" fill="#BBC6CF"/>
<path opacity="0.2" d="M105.944 64.648C106.204 61.7062 108.422 62.2705 108.919 66.2539C108.702 72.5231 108.548 79.8003 108.673 86.1708C106.281 81.4978 105.35 71.3416 105.944 64.648Z" fill="#161D38"/>
<path d="M114.817 130.142L107.906 130.61L106.947 127.369L114.426 126.579L114.817 130.142Z" fill="#222B4D"/>
<path d="M103.527 52.9244C103.527 52.9244 108.417 80.1234 115.058 94.7597C120.421 106.58 130.138 125.624 130.138 125.624L135.409 123.651C135.409 123.651 127.167 102.032 124.187 93.718C116.765 72.9812 120.811 60.3945 113.925 50.0309L103.527 52.9244Z" fill="#BBC6CF"/>
<path d="M136.031 124.153L129.95 126.27L128.219 123.155L135.457 121.361L136.031 124.153Z" fill="#222B4D"/>
<path d="M113.901 49.0375L115.029 50.2769C115.116 50.3733 115.029 50.5228 114.827 50.571L97.9816 55.2634C97.8369 55.3019 97.697 55.2634 97.6633 55.1765L97.1183 53.778C97.0797 53.6816 97.181 53.561 97.3402 53.5176L113.606 48.9893C113.655 48.9704 113.708 48.9649 113.76 48.9734C113.812 48.9818 113.86 49.004 113.901 49.0375Z" fill="#222B4D"/>
<path d="M112.222 51.4487L112.661 51.3233C112.748 51.2992 112.801 51.2365 112.777 51.1835L112.054 49.375C112.054 49.322 111.948 49.2979 111.861 49.322L111.422 49.4426C111.335 49.4426 111.282 49.5294 111.301 49.5824L112.03 51.3957C112.049 51.4487 112.136 51.4728 112.222 51.4487Z" fill="#A2A5AF"/>
<path d="M99.2499 55.056L99.6887 54.9354C99.7707 54.9354 99.8286 54.8486 99.8045 54.7955L99.0811 52.9871C99.0811 52.9341 98.9702 52.9099 98.8834 52.9341L98.4493 53.0546C98.3625 53.0546 98.3095 53.1414 98.3288 53.1945L99.0522 55.0077C99.0763 55.0608 99.1631 55.0801 99.2499 55.056Z" fill="#A2A5AF"/>
<path d="M105.736 53.2523L106.175 53.1317C106.262 53.1076 106.315 53.0449 106.291 52.9919L105.567 51.1786C105.567 51.1256 105.456 51.1015 105.37 51.1256L104.936 51.2461C104.849 51.2461 104.796 51.3378 104.815 51.3908L105.543 53.1993C105.563 53.2523 105.649 53.2764 105.736 53.2523Z" fill="#A2A5AF"/>
<path d="M95.2809 16.2444C95.3629 16.5675 95.2809 16.8713 95.0543 16.9244C94.8276 16.9774 94.6058 16.7652 94.5238 16.4421C94.4418 16.119 94.5238 15.82 94.7505 15.7622C94.9771 15.7043 95.199 15.9117 95.2809 16.2444Z" fill="#222B4D"/>
<path d="M91.6592 17.1799C91.746 17.4982 91.6592 17.802 91.4326 17.8599C91.2059 17.9178 90.9841 17.696 90.9021 17.3777C90.8201 17.0594 90.9021 16.7507 91.1288 16.6977C91.3554 16.6446 91.5773 16.8568 91.6592 17.1799Z" fill="#222B4D"/>
<path d="M91.2252 16.6929L90.4006 16.6688C90.4006 16.6688 90.9503 17.1703 91.2252 16.6929Z" fill="#222B4D"/>
<path d="M92.7636 17.4789C92.669 18.2843 92.4646 19.0729 92.156 19.8227C92.3495 19.8968 92.5569 19.9274 92.7636 19.9124C92.9703 19.8974 93.1712 19.8372 93.3519 19.7359L92.7636 17.4789Z" fill="#884A48"/>
<path d="M94.7698 20.7052C94.7512 20.702 94.7341 20.6934 94.7204 20.6806C94.7067 20.6677 94.697 20.6511 94.6926 20.6329C94.689 20.6208 94.6879 20.6082 94.6894 20.5957C94.6908 20.5832 94.6949 20.5712 94.7012 20.5603C94.7075 20.5495 94.716 20.54 94.7262 20.5326C94.7363 20.5252 94.7479 20.5199 94.7601 20.5171C95.1611 20.4222 95.5339 20.2337 95.8482 19.9672C96.1625 19.7007 96.4093 19.3637 96.5686 18.9836C96.5724 18.971 96.5787 18.9594 96.5871 18.9493C96.5956 18.9393 96.606 18.9311 96.6177 18.9252C96.6295 18.9194 96.6423 18.9159 96.6554 18.9152C96.6685 18.9144 96.6816 18.9164 96.6939 18.9209C96.7175 18.9296 96.7369 18.9468 96.7485 18.9691C96.7601 18.9914 96.763 19.0172 96.7566 19.0414C96.5904 19.4521 96.3288 19.8172 95.9933 20.1066C95.6578 20.3959 95.2582 20.6011 94.8276 20.7052C94.8087 20.7108 94.7886 20.7108 94.7698 20.7052Z" fill="#222B4D"/>
<path d="M95.9899 14.7977C95.9555 14.7932 95.9234 14.7781 95.8982 14.7543C95.711 14.5975 95.489 14.4877 95.2508 14.434C95.0126 14.3803 94.765 14.3843 94.5286 14.4456C94.4794 14.4609 94.4261 14.4564 94.3802 14.433C94.3342 14.4095 94.2992 14.3691 94.2827 14.3202C94.2737 14.2962 94.2696 14.2706 94.2709 14.245C94.2721 14.2194 94.2785 14.1943 94.2898 14.1712C94.3011 14.1482 94.317 14.1277 94.3365 14.111C94.356 14.0944 94.3787 14.0819 94.4032 14.0743C94.7016 13.9933 95.015 13.9852 95.3172 14.0506C95.6193 14.1161 95.9013 14.2532 96.1394 14.4505C96.1716 14.4778 96.1942 14.5149 96.2038 14.5561C96.2135 14.5973 96.2097 14.6405 96.1929 14.6793C96.1762 14.7182 96.1474 14.7506 96.1109 14.7719C96.0743 14.7932 96.0319 14.8023 95.9899 14.7977Z" fill="#222B4D"/>
<path d="M89.5036 15.9454H89.465C89.4409 15.9373 89.4186 15.9245 89.3995 15.9077C89.3803 15.8909 89.3647 15.8704 89.3535 15.8476C89.3423 15.8247 89.3357 15.7999 89.3342 15.7744C89.3326 15.749 89.3361 15.7235 89.3444 15.6995C89.4384 15.4049 89.6018 15.1372 89.8208 14.919C90.0399 14.7008 90.3082 14.5385 90.6031 14.4456C90.6278 14.4391 90.6536 14.4376 90.6789 14.4411C90.7042 14.4446 90.7285 14.4532 90.7505 14.4662C90.7725 14.4792 90.7917 14.4964 90.8069 14.5169C90.8222 14.5374 90.8332 14.5607 90.8394 14.5855C90.8511 14.636 90.8425 14.689 90.8154 14.7332C90.7883 14.7774 90.745 14.8092 90.6947 14.8218C90.4657 14.9001 90.2587 15.0319 90.0909 15.2064C89.9231 15.3809 89.7995 15.5929 89.7302 15.8249C89.7138 15.8693 89.6817 15.9061 89.6399 15.9283C89.5981 15.9506 89.5496 15.9567 89.5036 15.9454Z" fill="#222B4D"/>
<path d="M108.379 33.4319C107.125 36.0167 105.823 38.5534 104.449 41.0755C103.764 42.339 103.079 43.6025 102.351 44.8467C101.623 46.091 100.904 47.34 100.041 48.589C99.843 48.8977 99.5971 49.2256 99.3656 49.5535L99.2788 49.6693L99.2354 49.732L99.1631 49.8236C99.0618 49.949 98.9605 50.0551 98.8592 50.1612C98.675 50.348 98.4767 50.5205 98.2661 50.6772C97.5716 51.185 96.8168 51.6046 96.0188 51.9262C94.6107 52.4948 93.1593 52.9496 91.6785 53.2861C88.8437 53.9414 85.9652 54.3911 83.0655 54.6316L82.7376 52.5772C84.0831 52.2204 85.4527 51.8442 86.7981 51.4536C88.1436 51.063 89.4795 50.6482 90.7815 50.1949C92.0494 49.7679 93.2882 49.2588 94.4901 48.671C94.9968 48.4212 95.4739 48.1155 95.9127 47.7595C95.9845 47.6999 96.0507 47.6337 96.1104 47.5618C96.1279 47.5403 96.144 47.5178 96.1586 47.4943L96.2647 47.3303C96.4335 47.0651 96.6071 46.8143 96.7807 46.5153C97.4655 45.3628 98.1407 44.1282 98.7966 42.8936L100.75 39.1465L104.608 31.5848L108.379 33.4319Z" fill="#CD7870"/>
<path d="M84.059 52.5965L81.2185 51.5066L81.4596 55.5141C81.4596 55.5141 83.6925 55.5141 84.7245 54.1397L84.059 52.5965Z" fill="#CD7870"/>
<path d="M78.9857 51.6223L78.3781 54.5689L81.4597 55.5141L81.2185 51.5066L78.9857 51.6223Z" fill="#CD7870"/>
<path d="M104.883 27.9149C103.296 28.6431 101.454 35.2355 101.454 35.2355L108.326 36.0167C108.326 36.0167 109.657 32.8146 109.387 31.1701C108.982 28.5418 106.691 27.0854 104.883 27.9149Z" fill="#222B4D"/>
<path d="M130.201 130.716C130.174 130.671 130.153 130.622 130.138 130.572C130.116 130.518 130.108 130.459 130.117 130.401C130.125 130.343 130.149 130.289 130.186 130.244C130.519 129.839 131.995 130.003 132.159 130.022C132.178 130.023 132.196 130.03 132.21 130.043C132.225 130.055 132.236 130.071 132.241 130.089C132.247 130.107 132.247 130.126 132.242 130.145C132.237 130.163 132.226 130.179 132.212 130.191C131.792 130.543 131.011 131.107 130.509 130.962C130.444 130.945 130.382 130.915 130.329 130.872C130.276 130.83 130.232 130.777 130.201 130.716ZM131.903 130.191C131.31 130.142 130.514 130.152 130.336 130.364C130.322 130.387 130.315 130.413 130.315 130.439C130.315 130.465 130.322 130.491 130.336 130.514C130.35 130.575 130.379 130.631 130.422 130.678C130.464 130.724 130.517 130.759 130.577 130.779C130.842 130.856 131.334 130.639 131.913 130.191H131.903Z" fill="#A2A5AF"/>
<path d="M130.562 129.385C130.544 129.35 130.529 129.313 130.519 129.274C130.499 129.2 130.505 129.121 130.535 129.05C130.566 128.979 130.62 128.92 130.688 128.884C130.751 128.843 130.821 128.816 130.896 128.805C130.97 128.794 131.045 128.8 131.117 128.821C131.691 128.975 132.221 130.032 132.245 130.075C132.254 130.09 132.258 130.106 132.258 130.123C132.258 130.14 132.254 130.157 132.245 130.171C132.236 130.185 132.223 130.197 132.208 130.204C132.192 130.212 132.176 130.215 132.159 130.215C131.545 130.136 130.979 129.842 130.562 129.385ZM131.966 129.969C131.768 129.622 131.402 129.096 131.064 129.004C131.02 128.99 130.973 128.986 130.927 128.993C130.881 129 130.837 129.017 130.799 129.043C130.693 129.111 130.693 129.173 130.707 129.217C130.779 129.496 131.493 129.887 131.98 129.988L131.966 129.969Z" fill="#A2A5AF"/>
<path d="M107.535 134.835C107.198 134.862 106.86 134.783 106.57 134.608C106.494 134.553 106.432 134.48 106.389 134.397C106.346 134.313 106.324 134.22 106.325 134.126C106.318 134.075 106.325 134.023 106.347 133.976C106.368 133.929 106.402 133.889 106.445 133.861C106.884 133.562 108.543 134.314 108.856 134.468C108.875 134.477 108.891 134.492 108.901 134.51C108.912 134.528 108.916 134.549 108.914 134.569C108.912 134.589 108.903 134.608 108.889 134.623C108.875 134.638 108.857 134.648 108.837 134.651C108.411 134.758 107.974 134.819 107.535 134.835ZM106.759 133.996C106.691 133.992 106.625 134.007 106.566 134.039C106.566 134.039 106.527 134.073 106.532 134.131C106.533 134.194 106.549 134.256 106.578 134.312C106.608 134.368 106.65 134.417 106.701 134.454C106.985 134.671 107.665 134.7 108.533 134.536C107.978 134.267 107.384 134.085 106.773 133.996H106.759Z" fill="#A2A5AF"/>
<path d="M108.861 134.671H108.823C108.273 134.449 107.164 133.557 107.226 133.099C107.226 132.997 107.308 132.872 107.559 132.843C108.524 132.727 108.938 134.488 108.958 134.56C108.961 134.578 108.959 134.596 108.953 134.612C108.947 134.629 108.937 134.644 108.924 134.656C108.905 134.668 108.883 134.673 108.861 134.671ZM107.651 133.022H107.583C107.482 133.022 107.429 133.065 107.419 133.113C107.385 133.378 108.152 134.078 108.712 134.386C108.581 133.967 108.234 133.022 107.651 133.022Z" fill="#A2A5AF"/>
<path d="M94.8469 15.7621H94.0174C94.0174 15.7621 94.572 16.2444 94.8469 15.7621Z" fill="#222B4D"/>
<path d="M96.7422 138.963H123.131C123.313 138.963 123.487 139.035 123.615 139.163C123.744 139.292 123.816 139.466 123.816 139.648V141.876H96.0622V139.648C96.0622 139.467 96.1337 139.293 96.2611 139.165C96.3884 139.037 96.5614 138.964 96.7422 138.963Z" fill="#222B4D"/>
<path d="M124.052 149.249H96.2985V152.157H124.052V149.249Z" fill="#222B4D"/>
<path opacity="0.5" d="M124.052 149.249H105.702V152.157H124.052V149.249Z" fill="#161D38"/>
<path d="M108.374 141.871L105.254 161.402C105.228 161.563 105.146 161.709 105.022 161.815C104.899 161.921 104.741 161.979 104.579 161.981H103.05C102.951 161.981 102.854 161.959 102.764 161.918C102.674 161.876 102.595 161.816 102.531 161.741C102.466 161.665 102.419 161.577 102.392 161.482C102.366 161.387 102.36 161.287 102.375 161.19L105.466 141.852L108.374 141.871Z" fill="#222B4D"/>
<path opacity="0.5" d="M108.374 141.871L108.138 143.356H105.225L105.466 141.871H108.374Z" fill="#161D38"/>
<path d="M98.9702 141.871L95.85 161.402C95.8238 161.563 95.7417 161.709 95.6182 161.815C95.4946 161.921 95.3376 161.979 95.1748 161.981H93.6461C93.5473 161.981 93.4498 161.959 93.3601 161.918C93.2704 161.876 93.1908 161.816 93.1267 161.741C93.0625 161.665 93.0154 161.577 92.9885 161.482C92.9617 161.387 92.9557 161.287 92.971 161.19L96.0622 141.852L98.9702 141.871Z" fill="#222B4D"/>
<path d="M126.902 161.209L123.816 141.871H120.922L124.028 161.402C124.053 161.563 124.135 161.71 124.259 161.816C124.383 161.922 124.54 161.98 124.703 161.981H126.227C126.324 161.98 126.42 161.959 126.508 161.919C126.596 161.878 126.674 161.82 126.738 161.747C126.802 161.674 126.85 161.588 126.878 161.496C126.906 161.403 126.914 161.305 126.902 161.209Z" fill="#222B4D"/>
<path opacity="0.5" d="M124.052 143.356L123.816 141.871H120.903L121.139 143.356H124.052Z" fill="#161D38"/>
<path d="M117.498 161.209L114.412 141.871H111.518L114.624 161.402C114.649 161.563 114.731 161.71 114.855 161.816C114.979 161.922 115.136 161.98 115.299 161.981H116.823C116.92 161.98 117.016 161.959 117.104 161.919C117.192 161.878 117.271 161.82 117.334 161.747C117.398 161.674 117.446 161.588 117.474 161.496C117.502 161.403 117.511 161.305 117.498 161.209Z" fill="#222B4D"/>
<path opacity="0.5" d="M117.498 161.209L114.412 141.871H111.518L114.624 161.402C114.649 161.563 114.731 161.71 114.855 161.816C114.979 161.922 115.136 161.98 115.299 161.981H116.823C116.92 161.98 117.016 161.959 117.104 161.919C117.192 161.878 117.271 161.82 117.334 161.747C117.398 161.674 117.446 161.588 117.474 161.496C117.502 161.403 117.511 161.305 117.498 161.209Z" fill="#161D38"/>
<path opacity="0.5" d="M105.466 138.963H123.131C123.313 138.963 123.487 139.035 123.615 139.163C123.744 139.292 123.816 139.466 123.816 139.648V141.876H105.49V138.982L105.466 138.963Z" fill="#161D38"/>
<path d="M23.9994 159.343L27.8622 152.254L14.0458 140.144L12.9655 159.343H23.9994Z" fill="#095FD2"/>
<path opacity="0.2" d="M23.9994 159.343L27.8622 152.254L14.0458 140.144L12.9655 159.343H23.9994Z" fill="#161D38"/>
<path d="M71.6169 78.5609C79.3667 73.2562 85.8578 73.8011 88.0134 75.3492C90.1691 76.8972 83.3211 88.6545 83.3211 88.6545C80.7602 87.9105 78.3894 86.624 76.3698 84.8824C74.3502 83.1407 72.7292 80.9847 71.6169 78.5609Z" fill="#095FD2"/>
<path opacity="0.3" d="M75.3061 83.8898C79.6705 79.6026 84.1217 78.2281 85.3273 78.9467C86.5329 79.6652 82.6604 87.931 82.6604 87.931C82.6604 87.931 77.428 88.6833 75.3061 83.8898Z" fill="#161D38"/>
<path d="M4.28016 95.1889L3.84132 94.9671C5.05289 92.5829 6.47815 90.3134 8.09959 88.1866L8.49022 88.4856C6.88929 90.5897 5.48029 92.8331 4.28016 95.1889Z" fill="#095FD2"/>
<path d="M1.98465 100.638L1.5024 100.479C1.86891 99.4038 2.28365 98.3284 2.73696 97.2867L3.19028 97.4845C2.75625 98.5068 2.34634 99.5678 1.98465 100.638Z" fill="#095FD2"/>
<path d="M92.156 114.021C92.156 137.965 74.1294 157.37 48.1071 157.37C22.0849 157.37 0.991211 137.965 0.991211 114.021C0.991211 90.077 22.0849 70.6713 48.1071 70.6713C74.1294 70.6713 92.156 90.077 92.156 114.021Z" fill="#095FD2"/>
<path opacity="0.1" d="M41.8282 152.779L39.9426 156.724C41.3058 156.946 42.6899 157.107 44.0948 157.206L41.8282 152.779Z" fill="#161D38"/>
<path d="M38.9733 162L44.3938 152.254L27.0569 145.917L24.8385 162H38.9733Z" fill="#095FD2"/>
<path d="M64.224 162L59.5269 152.254L76.0343 145.917L77.129 162H64.224Z" fill="#095FD2"/>
<path opacity="0.3" d="M76.0825 120.285C76.0825 126.767 70.3534 132.018 63.3077 132.018C56.262 132.018 50.557 126.767 50.557 120.285C50.557 113.804 56.2668 108.552 63.3077 108.552C70.3486 108.552 76.0825 113.804 76.0825 120.285Z" fill="#161D38"/>
<path opacity="0.3" d="M59.0735 124.124C60.2694 124.124 61.2389 122.319 61.2389 120.092C61.2389 117.866 60.2694 116.061 59.0735 116.061C57.8777 116.061 56.9082 117.866 56.9082 120.092C56.9082 122.319 57.8777 124.124 59.0735 124.124Z" fill="#161D38"/>
<path opacity="0.4" d="M43.5885 98.4007C44.2106 100.296 43.6367 102.365 42.3105 103.016C40.9843 103.667 39.417 102.654 38.7804 100.759C38.1438 98.8637 38.7274 96.7948 40.0536 96.1438C41.3798 95.4927 42.9663 96.5006 43.5885 98.4007Z" fill="#161D38"/>
<path opacity="0.4" d="M77.1531 98.4875C76.6709 100.383 77.264 102.428 78.46 103.05C79.656 103.672 81.0063 102.64 81.4789 100.74C81.9515 98.8396 81.368 96.7997 80.172 96.1775C78.976 95.5554 77.6354 96.5875 77.1531 98.4875Z" fill="#161D38"/>
<path opacity="0.3" d="M70.5945 124.124C71.7904 124.124 72.7598 122.319 72.7598 120.092C72.7598 117.866 71.7904 116.061 70.5945 116.061C69.3986 116.061 68.4292 117.866 68.4292 120.092C68.4292 122.319 69.3986 124.124 70.5945 124.124Z" fill="#161D38"/>
<path d="M34.3341 78.1655C25.9381 71.2114 18.4198 70.6713 15.8253 71.9348C13.2307 73.1983 19.9774 86.8315 19.9774 86.8315C19.9774 86.8315 29.1884 86.2914 34.3341 78.1655Z" fill="#095FD2"/>
<path opacity="0.3" d="M29.608 83.1713C25.0025 77.8665 20.0257 75.6578 18.5741 76.2076C17.1225 76.7573 20.8021 86.1709 20.8021 86.1709C20.8021 86.1709 26.7338 87.8781 29.608 83.1713Z" fill="#161D38"/>
<path opacity="0.4" d="M51.29 74.4425H58.3839C58.3839 74.4425 56.8407 72.7449 51.6035 72.2289C48.6375 71.988 45.6525 72.1503 42.73 72.7112C42.73 72.7112 48.5749 72.581 51.29 74.4425Z" fill="#161D38"/>
</svg>
