<svg width="174" height="162" viewBox="0 0 174 162" fill="none" xmlns="http://www.w3.org/2000/svg">
<path d="M132.016 154.845L127.912 153.719L129.439 143.909L133.543 145.041L132.016 154.845Z" fill="#FFC3BD"/>
<path d="M162.307 157.574H158.047L156.985 147.715H161.246L162.307 157.574Z" fill="#FFC3BD"/>
<path d="M157.7 157.081H162.887C162.971 157.082 163.053 157.111 163.119 157.164C163.185 157.217 163.231 157.291 163.249 157.374L164.094 161.164C164.114 161.256 164.112 161.352 164.089 161.444C164.067 161.536 164.024 161.621 163.963 161.694C163.903 161.767 163.827 161.826 163.741 161.865C163.654 161.904 163.561 161.924 163.466 161.922C161.798 161.894 160.58 161.792 158.474 161.792C157.18 161.792 153.282 161.927 151.496 161.927C149.709 161.927 149.471 160.162 150.202 160C153.483 159.285 155.957 158.294 157.007 157.352C157.196 157.179 157.443 157.082 157.7 157.081Z" fill="#161D38"/>
<path d="M128.069 153.248L132.552 154.483C132.634 154.506 132.705 154.556 132.754 154.625C132.803 154.694 132.827 154.777 132.823 154.862L132.628 158.733C132.624 158.827 132.599 158.918 132.555 159.001C132.51 159.084 132.448 159.155 132.372 159.21C132.295 159.265 132.208 159.302 132.115 159.317C132.023 159.333 131.928 159.328 131.837 159.301C130.213 158.825 127.918 158.088 125.882 157.531C123.505 156.876 121.416 156.448 118.633 155.668C116.949 155.203 116.949 153.373 117.696 153.411C121.102 153.595 123.744 154.245 126.987 153.297C127.336 153.18 127.711 153.163 128.069 153.248Z" fill="#161D38"/>
<path opacity="0.2" d="M129.439 143.915L128.649 148.966L132.758 150.097L133.543 145.046L129.439 143.915Z" fill="#161D38"/>
<path opacity="0.2" d="M161.246 147.721H156.985L157.538 152.804H161.793L161.246 147.721Z" fill="#161D38"/>
<path d="M111.421 22.6741L111.053 18.5919L107.058 20.5355C107.058 20.5355 108.108 24.1575 110.09 23.7839L111.421 22.6741Z" fill="#FFC3BD"/>
<path d="M110.155 16.6699L105.65 17.6011L107.069 20.5355L111.053 18.5919L110.155 16.6699Z" fill="#FFC3BD"/>
<path d="M137.641 23.2912C135.514 24.1341 133.463 25.1594 131.513 26.3555C131.096 26.5612 130.679 26.767 130.257 26.9619C129.228 27.4275 128.183 27.8552 127.133 28.2233C125.169 28.9693 123.098 29.3917 120.999 29.474C120.771 29.474 120.539 29.474 120.322 29.4469H120.165H120.095C120.038 29.4398 119.982 29.429 119.927 29.4144C119.568 29.3454 119.22 29.2289 118.893 29.0679C117.98 28.5943 117.134 28.0027 116.375 27.3084C114.658 25.7542 113.095 24.0371 111.708 22.1813L108.931 23.7676C110.016 26.1432 111.35 28.3971 112.91 30.4918C113.769 31.6468 114.769 32.6891 115.888 33.594C116.562 34.1398 117.316 34.5781 118.124 34.8934C118.358 34.9784 118.597 35.0507 118.839 35.1099L119.223 35.1965L119.521 35.2453C119.905 35.3156 120.29 35.359 120.668 35.3969C123.479 35.5633 126.297 35.2559 129.006 34.4873C130.132 34.195 131.226 33.8539 132.303 33.4803C133.462 33.2367 142.99 31.1252 144.62 27.709C146.726 23.2858 142.709 21.4829 137.641 23.2912Z" fill="#161D38"/>
<path opacity="0.2" d="M135.838 32.5654C137.177 32.1824 138.493 31.7232 139.78 31.1902L140.105 27.7036C140.105 27.7036 137.56 28.7431 135.838 32.5654Z" fill="#161D38"/>
<path d="M162.822 23.9084C162.946 23.9406 163.062 23.9969 163.165 24.0742C163.267 24.1515 163.353 24.2483 163.418 24.3589C163.483 24.4696 163.525 24.592 163.543 24.7191C163.56 24.8461 163.553 24.9754 163.52 25.0995C162.407 29.3934 161.587 33.7581 161.068 38.1634C160.667 41.4605 160.423 44.6061 160.277 47.4646C159.92 54.1563 160.066 59.2563 159.871 60.9996C156.541 60.7722 143.997 59.9168 137.132 59.4187C134.041 35.202 139.948 22.7282 139.948 22.7282C141.737 22.3919 143.545 22.1659 145.362 22.0514C145.746 22.0514 146.136 22.0135 146.536 22.0081C149.766 22.046 152.991 22.2701 156.195 22.6795C156.801 22.7498 157.413 22.8419 158.014 22.9393C159.974 23.2371 161.739 23.6485 162.822 23.9084Z" fill="#161D38"/>
<path opacity="0.2" d="M159.752 28.3262C159.303 31.1926 159.829 34.1266 161.246 36.6583C161.517 34.6498 161.853 32.5979 162.264 30.5243L159.752 28.3262Z" fill="#161D38"/>
<path d="M156.022 11.7216C155.193 14.7913 154.398 20.2648 155.978 22.7173C154.273 24.2441 152.243 23.8597 150.505 23.589C148.388 23.2587 148.106 22.7769 148.778 21.7861C149.195 21.3314 149.27 20.8658 149.666 19.8046C149.985 18.6859 150.011 17.5039 149.742 16.3722L156.022 11.7216Z" fill="#FFC3BD"/>
<path d="M148.637 20.4759C148.913 21.8673 147.192 22.6091 147.695 23.2154C148.199 23.8218 152.687 25.3485 154.663 24.6285C156.639 23.9084 156.428 23.7297 156.287 21.9864C156.146 20.2431 157.262 19.1062 155.821 19.5718C155.085 19.81 151.263 19.182 150.164 19.182C149.065 19.182 148.415 19.3607 148.637 20.4759Z" fill="#161D38"/>
<path opacity="0.2" d="M153.461 13.6219L149.742 16.3668C149.854 16.9394 149.914 17.5211 149.92 18.1047C151.257 18.0072 153.169 16.6808 153.418 15.3056C153.533 14.7515 153.547 14.1812 153.461 13.6219Z" fill="#161D38"/>
<path d="M147.798 1.49457C146.85 1.9331 145.318 3.97958 146.58 5.33308C147.841 6.68657 149.135 0.882788 147.798 1.49457Z" fill="#161D38"/>
<path d="M157.267 7.25504C156.569 11.4238 156.368 13.898 154.019 15.8308C150.494 18.7327 145.519 16.2639 144.956 11.9706C144.452 8.11044 145.681 1.94393 149.963 0.70954C150.906 0.430637 151.904 0.397615 152.863 0.613612C153.823 0.829609 154.71 1.28744 155.442 1.94353C156.174 2.59962 156.726 3.43215 157.046 4.36187C157.365 5.29159 157.441 6.28758 157.267 7.25504Z" fill="#FFC3BD"/>
<path d="M156.022 10.2436C154.462 9.25281 154.398 8.10505 154.869 7.07639C156.368 3.60062 155.951 1.84107 153.288 2.1605C150.624 2.47992 146.829 2.78852 147.3 1.57038C147.771 0.352232 151.117 -0.162096 153.959 0.17357C156.801 0.509237 159.849 2.71814 159.243 6.19391C158.658 9.51809 157.949 10.4601 156.022 10.2436Z" fill="#161D38"/>
<path d="M158.761 11.191C158.229 12.1113 157.356 12.7845 156.33 13.0642C154.966 13.4216 154.311 12.198 154.706 10.8987C155.063 9.75631 156.206 8.19167 157.565 8.39199C158.924 8.5923 159.4 10.0541 158.761 11.191Z" fill="#FFC3BD"/>
<path d="M127.376 147.596L134.322 149.507C134.322 149.507 139.796 122.075 140.137 108.816C140.24 104.782 141.983 100.013 143.315 94.0249C145.004 86.4832 147.105 78.3243 148.848 71.9358C150.678 65.2063 152.069 60.4474 152.069 60.4474L137.138 59.4025C137.138 59.4025 129.428 94.8153 128.502 107.776C127.533 121.252 127.376 147.596 127.376 147.596Z" fill="#BBC6CF"/>
<path opacity="0.2" d="M143.331 94.0249C145.021 86.4832 147.121 78.3244 148.864 71.9359L147.316 68.5955C143.597 72.997 142.6 86.624 143.331 94.0249Z" fill="#161D38"/>
<path d="M145.194 59.9655C145.194 59.9655 146.277 93.8353 148.052 106.179C150.023 119.714 155.567 151.819 155.567 151.819H163.363C163.363 151.819 162.946 121.23 160.505 108.134C157.722 93.2235 159.849 60.9887 159.849 60.9887L145.194 59.9655Z" fill="#BBC6CF"/>
<path d="M154.636 151.987H163.818V149.242L153.553 149.063L154.636 151.987Z" fill="#161D38"/>
<path d="M126.456 147.515L134.739 149.8L135.476 147.125L126.256 144.434L126.456 147.515Z" fill="#161D38"/>
<path d="M151.328 7.48782C151.295 7.8289 151.084 8.08877 150.862 8.06712C150.64 8.04546 150.483 7.74769 150.521 7.40661C150.559 7.06553 150.765 6.80565 150.992 6.82731C151.219 6.84897 151.366 7.14674 151.328 7.48782Z" fill="#161D38"/>
<path d="M147.045 7.35247C147.013 7.69355 146.802 7.95342 146.574 7.92635C146.347 7.89928 146.201 7.60693 146.239 7.26585C146.277 6.92477 146.482 6.6703 146.71 6.69196C146.937 6.71362 147.083 7.01138 147.045 7.35247Z" fill="#161D38"/>
<path d="M151.025 9.9187C150.482 9.95893 149.941 9.835 149.47 9.56305C148.999 9.2911 148.621 8.88373 148.386 8.39398C148.15 7.90423 148.067 7.35479 148.147 6.8172C148.228 6.27961 148.469 5.77878 148.838 5.37991C149.207 4.98104 149.688 4.70261 150.218 4.58089C150.748 4.45916 151.302 4.49977 151.809 4.69742C152.315 4.89508 152.75 5.24063 153.057 5.68908C153.365 6.13753 153.53 6.6681 153.531 7.21171C153.555 7.90227 153.305 8.57414 152.835 9.08111C152.366 9.58809 151.715 9.88912 151.025 9.9187ZM151.025 4.74835C150.531 4.70248 150.035 4.80701 149.602 5.04821C149.168 5.2894 148.818 5.65599 148.597 6.09982C148.376 6.54366 148.294 7.04398 148.363 7.53508C148.431 8.02618 148.647 8.4851 148.981 8.85155C149.315 9.21801 149.752 9.47487 150.234 9.58841C150.717 9.70194 151.223 9.66684 151.685 9.48771C152.148 9.30857 152.545 8.99378 152.825 8.58469C153.105 8.17559 153.255 7.69132 153.255 7.19547C153.279 6.57812 153.058 5.97644 152.64 5.52123C152.222 5.06603 151.642 4.79411 151.025 4.7646V4.74835Z" fill="white"/>
<path d="M145.497 9.9187C144.955 9.95893 144.413 9.835 143.942 9.56305C143.472 9.2911 143.094 8.88373 142.858 8.39398C142.622 7.90423 142.539 7.35479 142.62 6.8172C142.7 6.27961 142.941 5.77878 143.31 5.37991C143.68 4.98104 144.161 4.70261 144.69 4.58089C145.22 4.45916 145.774 4.49977 146.281 4.69742C146.787 4.89508 147.222 5.24063 147.53 5.68908C147.837 6.13753 148.002 6.6681 148.004 7.21171C148.027 7.90227 147.777 8.57414 147.307 9.08111C146.838 9.58809 146.187 9.88912 145.497 9.9187ZM145.497 4.74835C145.004 4.70034 144.507 4.80254 144.073 5.04155C143.639 5.28056 143.287 5.64522 143.064 6.08768C142.841 6.53015 142.757 7.02974 142.823 7.52094C142.888 8.01213 143.101 8.47196 143.433 8.84012C143.765 9.20828 144.2 9.46756 144.682 9.58394C145.163 9.70032 145.669 9.66837 146.132 9.49228C146.595 9.3162 146.995 9.0042 147.277 8.59721C147.56 8.19023 147.713 7.70728 147.717 7.21171C147.745 6.5934 147.527 5.98911 147.111 5.53066C146.695 5.07222 146.115 4.79684 145.497 4.7646V4.74835Z" fill="white"/>
<path d="M148.052 7.57446C147.626 8.61571 147.06 9.59385 146.369 10.4818C146.599 10.6524 146.863 10.7708 147.144 10.8288C147.424 10.8868 147.714 10.8829 147.993 10.8174L148.052 7.57446Z" fill="#ED847E"/>
<path d="M152.346 6.44293C152.31 6.45071 152.272 6.44824 152.238 6.43579C152.204 6.42334 152.173 6.40142 152.151 6.37255C151.998 6.16936 151.8 6.00474 151.573 5.89191C151.345 5.77908 151.094 5.72118 150.841 5.72287C150.814 5.72501 150.788 5.72194 150.763 5.71384C150.737 5.70574 150.714 5.69278 150.694 5.67569C150.674 5.65859 150.657 5.63771 150.645 5.61422C150.633 5.59073 150.626 5.56511 150.624 5.5388C150.622 5.51249 150.625 5.48602 150.633 5.4609C150.641 5.43578 150.654 5.41251 150.671 5.3924C150.688 5.37229 150.709 5.35574 150.733 5.3437C150.756 5.33166 150.782 5.32437 150.808 5.32224C151.128 5.31305 151.445 5.3805 151.733 5.51895C152.021 5.65741 152.272 5.86285 152.465 6.11809C152.498 6.16061 152.513 6.21453 152.507 6.26822C152.501 6.32191 152.474 6.37105 152.432 6.40503C152.406 6.42308 152.377 6.43595 152.346 6.44293Z" fill="#161D38"/>
<path d="M149.233 12.6257C149.729 12.6329 150.22 12.5211 150.665 12.2998C151.109 12.0784 151.494 11.754 151.788 11.3534C151.804 11.329 151.809 11.2993 151.803 11.2709C151.797 11.2425 151.78 11.2176 151.756 11.2018C151.743 11.194 151.73 11.1887 151.716 11.1861C151.702 11.1835 151.687 11.1837 151.673 11.1867C151.645 11.1928 151.62 11.2099 151.604 11.2343C151.328 11.6019 150.97 11.8996 150.558 12.1037C150.146 12.3077 149.692 12.4123 149.233 12.4092C149.218 12.4092 149.204 12.412 149.191 12.4174C149.178 12.4228 149.166 12.4308 149.156 12.4409C149.146 12.4509 149.138 12.4629 149.133 12.476C149.127 12.4891 149.124 12.5032 149.124 12.5174C149.124 12.5317 149.127 12.5457 149.133 12.5589C149.138 12.572 149.146 12.584 149.156 12.594C149.166 12.6041 149.178 12.612 149.191 12.6175C149.204 12.6229 149.218 12.6257 149.233 12.6257Z" fill="#161D38"/>
<path d="M144.685 6.45918C144.641 6.45945 144.598 6.44825 144.56 6.4267C144.516 6.3978 144.485 6.35302 144.473 6.30162C144.461 6.25023 144.469 6.19615 144.495 6.15058C144.658 5.87373 144.886 5.64017 145.158 5.46962C145.43 5.29907 145.74 5.19653 146.06 5.17065C146.114 5.17064 146.165 5.19156 146.204 5.22898C146.242 5.2664 146.264 5.31735 146.266 5.37097C146.264 5.4242 146.243 5.47498 146.206 5.51313C146.169 5.55128 146.119 5.57399 146.065 5.5767C145.813 5.59967 145.571 5.68301 145.358 5.81965C145.145 5.9563 144.968 6.14223 144.842 6.36172C144.825 6.38881 144.802 6.41166 144.775 6.42854C144.747 6.44542 144.717 6.4559 144.685 6.45918Z" fill="#161D38"/>
<path d="M156.292 157.829C156.002 157.851 155.712 157.774 155.47 157.612C155.393 157.546 155.334 157.462 155.298 157.367C155.262 157.273 155.25 157.171 155.264 157.071C155.263 157.013 155.278 156.955 155.307 156.906C155.337 156.856 155.38 156.815 155.432 156.789C155.908 156.545 157.278 157.39 157.435 157.487C157.451 157.498 157.463 157.512 157.471 157.53C157.479 157.547 157.481 157.566 157.478 157.585C157.476 157.606 157.468 157.625 157.454 157.641C157.441 157.656 157.423 157.667 157.402 157.672C157.039 157.765 156.667 157.818 156.292 157.829ZM155.659 156.946C155.614 156.942 155.569 156.952 155.529 156.973C155.497 156.973 155.47 157.011 155.464 157.092C155.455 157.159 155.462 157.227 155.486 157.291C155.509 157.354 155.548 157.411 155.599 157.455C156.075 157.672 156.615 157.699 157.11 157.531C156.668 157.245 156.176 157.046 155.659 156.946Z" fill="#BBC6CF"/>
<path d="M157.408 157.677H157.359C156.92 157.439 156.065 156.502 156.157 156.053C156.172 155.979 156.212 155.912 156.27 155.864C156.328 155.815 156.401 155.788 156.477 155.787C156.554 155.777 156.633 155.783 156.707 155.805C156.782 155.827 156.851 155.866 156.91 155.917C157.402 156.318 157.505 157.542 157.505 157.601C157.508 157.619 157.505 157.637 157.497 157.654C157.49 157.67 157.477 157.684 157.462 157.693C157.443 157.693 157.424 157.687 157.408 157.677ZM156.547 155.95H156.504C156.374 155.95 156.357 156.026 156.357 156.053C156.303 156.329 156.845 157.038 157.283 157.368C157.255 156.884 157.079 156.419 156.78 156.037C156.708 155.975 156.614 155.944 156.52 155.95H156.547Z" fill="#BBC6CF"/>
<path d="M127.517 153.703C126.819 153.654 125.601 153.492 125.26 152.967C125.204 152.889 125.171 152.798 125.162 152.703C125.154 152.608 125.17 152.512 125.211 152.425C125.226 152.373 125.256 152.325 125.295 152.287C125.335 152.249 125.385 152.222 125.438 152.209C126.012 152.079 127.436 153.362 127.604 153.508C127.619 153.521 127.63 153.537 127.636 153.556C127.642 153.575 127.642 153.595 127.636 153.613C127.63 153.632 127.619 153.649 127.603 153.661C127.588 153.673 127.569 153.68 127.55 153.682L127.517 153.703ZM125.492 152.425H125.465C125.444 152.431 125.424 152.443 125.409 152.459C125.393 152.475 125.383 152.496 125.379 152.518C125.355 152.572 125.345 152.632 125.349 152.691C125.354 152.751 125.373 152.808 125.406 152.859C125.601 153.151 126.261 153.4 127.209 153.476C126.64 152.983 125.828 152.388 125.492 152.425Z" fill="#BBC6CF"/>
<path d="M127.517 153.703C127.505 153.708 127.492 153.711 127.479 153.711C127.466 153.711 127.453 153.708 127.441 153.703C127.008 153.346 126.266 152.187 126.472 151.743C126.521 151.64 126.635 151.527 126.911 151.57C127.01 151.588 127.105 151.625 127.19 151.68C127.274 151.735 127.347 151.806 127.403 151.889C127.804 152.458 127.609 153.595 127.604 153.644C127.601 153.661 127.594 153.678 127.582 153.691C127.571 153.704 127.556 153.714 127.539 153.719L127.517 153.703ZM126.759 151.743C126.678 151.743 126.662 151.792 126.656 151.808C126.532 152.073 127.008 152.951 127.43 153.395C127.514 152.915 127.445 152.421 127.236 151.981C127.194 151.92 127.141 151.867 127.078 151.827C127.016 151.787 126.946 151.761 126.873 151.749C126.834 151.749 126.796 151.754 126.759 151.765V151.743Z" fill="#BBC6CF"/>
<path d="M161.625 57.6267L157.294 58.0598L159.876 62.1582C159.876 62.1582 163.385 60.7776 162.86 58.8394L161.625 57.6267Z" fill="#FFC3BD"/>
<path d="M154.446 60.2146L157.11 63.8419L159.898 62.1582L157.316 58.0598L154.446 60.2146Z" fill="#FFC3BD"/>
<path d="M171.755 39.0242C171.365 37.9414 170.921 36.8586 170.45 35.8354C170.098 34.7039 167.12 25.4135 163.563 24.1033C158.978 22.4142 157.554 26.5829 159.822 31.4609C160.857 33.5022 162.067 35.4496 163.439 37.2809C163.683 37.6761 163.926 38.0714 164.154 38.472C164.695 39.4574 165.236 40.4589 165.702 41.4713C166.626 43.3561 167.239 45.3783 167.516 47.4592C167.516 47.692 167.548 47.9194 167.548 48.1414V48.2984C167.545 48.3218 167.545 48.3454 167.548 48.3688C167.553 48.4246 167.553 48.4807 167.548 48.5366C167.515 48.9073 167.432 49.2717 167.299 49.6194C166.911 50.571 166.402 51.4682 165.783 52.2885C164.393 54.1443 162.824 55.8596 161.1 57.4101L162.941 60.0305C165.207 58.73 167.328 57.1928 169.27 55.4448C170.341 54.4834 171.289 53.3922 172.09 52.1964C172.57 51.4736 172.935 50.6811 173.173 49.8468C173.239 49.6065 173.289 49.3624 173.325 49.1159L173.374 48.7261V48.4229C173.406 48.0331 173.411 47.6487 173.417 47.2697C173.33 44.4474 172.768 41.6599 171.755 39.0242Z" fill="#161D38"/>
<path d="M4.77142 73.0295H94.6922C95.8522 73.0182 96.9638 72.563 97.7986 71.7574C98.6333 70.9519 99.1278 69.8572 99.1804 68.6983L101.194 11.3534C101.216 10.7915 101.124 10.2311 100.924 9.70565C100.724 9.18025 100.419 8.70081 100.029 8.29619C99.6381 7.89156 99.1698 7.57011 98.6519 7.35118C98.1339 7.13225 97.5771 7.02035 97.0148 7.02224H7.0886C5.92819 7.0322 4.81582 7.48696 3.98078 8.29279C3.14574 9.09862 2.65167 10.1941 2.60041 11.3534L0.586414 68.6929C0.564504 69.2554 0.656632 69.8167 0.857253 70.3427C1.05787 70.8688 1.36284 71.3488 1.75381 71.7539C2.14478 72.159 2.61366 72.4809 3.13225 72.7001C3.65084 72.9193 4.20841 73.0313 4.77142 73.0295Z" fill="#095FD2"/>
<path opacity="0.4" d="M4.77142 73.0295H94.6922C95.8522 73.0182 96.9638 72.563 97.7986 71.7574C98.6333 70.9519 99.1278 69.8572 99.1804 68.6983L101.194 11.3534C101.216 10.7915 101.124 10.2311 100.924 9.70565C100.724 9.18025 100.419 8.70081 100.029 8.29619C99.6381 7.89156 99.1698 7.57011 98.6519 7.35118C98.1339 7.13225 97.5771 7.02035 97.0148 7.02224H7.0886C5.92819 7.0322 4.81582 7.48696 3.98078 8.29279C3.14574 9.09862 2.65167 10.1941 2.60041 11.3534L0.586414 68.6929C0.564504 69.2554 0.656632 69.8167 0.857253 70.3427C1.05787 70.8688 1.36284 71.3488 1.75381 71.7539C2.14478 72.159 2.61366 72.4809 3.13225 72.7001C3.65084 72.9193 4.20841 73.0313 4.77142 73.0295Z" fill="#161D38"/>
<path d="M5.62682 73.0295H95.553C96.7126 73.0169 97.8235 72.5613 98.658 71.756C99.4924 70.9507 99.9873 69.8567 100.041 68.6983L102.055 11.3534C102.077 10.7911 101.985 10.2302 101.784 9.7044C101.584 9.17864 101.279 8.69895 100.887 8.29424C100.496 7.88954 100.027 7.5682 99.5089 7.3496C98.9904 7.13099 98.4329 7.01964 97.8701 7.02226H7.944C6.78453 7.0336 5.67352 7.48898 4.83963 8.29467C4.00574 9.10035 3.51243 10.195 3.46123 11.3534L1.44723 68.6929C1.42457 69.2552 1.516 69.8163 1.71601 70.3423C1.91602 70.8684 2.22047 71.3484 2.61102 71.7537C3.00156 72.1589 3.4701 72.4808 3.9884 72.7001C4.50671 72.9193 5.06405 73.0314 5.62682 73.0295Z" fill="#095FD2"/>
<path opacity="0.9" d="M94.6921 69.4183C95.1499 69.4133 95.5884 69.2332 95.9176 68.9151C96.2468 68.5969 96.4418 68.1649 96.4625 67.7075L98.3953 12.3334C98.4071 12.1129 98.3738 11.8924 98.2974 11.6852C98.2211 11.478 98.1033 11.2886 97.9513 11.1285C97.7993 10.9684 97.6162 10.8409 97.4133 10.7539C97.2104 10.6669 96.9919 10.6222 96.7711 10.6226H8.8048C8.34742 10.6289 7.90967 10.8094 7.58073 11.1273C7.2518 11.4452 7.05643 11.8765 7.03443 12.3334L5.09081 67.7075C5.07904 67.928 5.11233 68.1485 5.18867 68.3557C5.265 68.5629 5.38277 68.7523 5.53478 68.9124C5.68679 69.0725 5.86985 69.2 6.07277 69.287C6.2757 69.374 6.49422 69.4187 6.71501 69.4183H94.6921Z" fill="white"/>
<path opacity="0.3" d="M68.1528 54.4324C70.9964 50.8504 72.654 46.4717 72.8955 41.9045C73.13 37.4671 71.8971 33.0759 69.3872 29.409V29.3441C69.3446 29.2812 69.2976 29.2215 69.2464 29.1654C67.3841 26.5415 64.9158 24.4059 62.0513 22.9402C59.1869 21.4746 56.0109 20.7221 52.7934 20.7467C49.4671 20.772 46.1885 21.5407 43.1975 22.9963C40.2065 24.452 37.5788 26.5579 35.5065 29.16C35.4632 29.2087 35.4199 29.252 35.382 29.3008C35.3741 29.3193 35.365 29.3374 35.3549 29.3549C32.508 32.9376 30.8484 37.3185 30.6069 41.8883C30.3627 46.341 31.598 50.7496 34.1206 54.427C34.1185 54.4432 34.1185 54.4596 34.1206 54.4758L34.1693 54.5353C36.0289 57.1833 38.5037 59.3402 41.3809 60.8208C44.258 62.3013 47.4517 63.0612 50.6873 63.0353C54.0082 63.0093 57.2814 62.2425 60.2683 60.7907C63.2552 59.3389 65.8804 57.2389 67.9525 54.6436C68.0023 54.5901 68.0493 54.5341 68.0933 54.4758C68.114 54.4626 68.1339 54.4482 68.1528 54.4324ZM50.8281 60.534C47.8017 60.534 45.2517 56.9987 43.9577 51.785C46.3729 51.3009 48.8305 51.0597 51.2937 51.065C53.7339 51.0594 56.1683 51.3025 58.5592 51.7904C56.751 57.0203 53.8545 60.534 50.8335 60.534H50.8281ZM51.4182 48.542C48.7455 48.5365 46.0791 48.8013 43.4597 49.3325C43.1383 47.2933 42.997 45.2299 43.0374 43.166H60.335C60.1653 45.2466 59.8213 47.3094 59.3064 49.3325C56.7129 48.7994 54.0714 48.5345 51.4236 48.542H51.4182ZM33.1027 43.166H40.5199C40.4672 45.4327 40.6194 47.6995 40.9746 49.9388C39.1283 50.4582 37.3466 51.1847 35.6635 52.1044C34.0302 49.406 33.1479 46.32 33.1081 43.166H33.1027ZM36.6759 31.71C38.2817 32.6362 39.9943 33.3634 41.7759 33.8756C41.2051 36.0979 40.8301 38.366 40.6552 40.6539H33.2381C33.6174 37.4318 34.7995 34.3566 36.6759 31.71ZM52.6743 23.2804C55.7007 23.2804 58.2452 26.8157 59.5446 32.0294C57.1271 32.5105 54.6681 32.7517 52.2032 32.7495C49.7634 32.7537 47.3293 32.5125 44.9377 32.0294C46.7459 26.8157 49.6695 23.2804 52.6688 23.2804H52.6743ZM52.0841 35.267C54.7568 35.272 57.4232 35.0071 60.0427 34.4765C60.3616 36.5178 60.5029 38.5828 60.465 40.6485H43.1727C43.3393 38.5656 43.6834 36.5008 44.2014 34.4765C46.793 35.0099 49.4328 35.2747 52.0787 35.267H52.0841ZM70.3996 40.6485H62.9825C63.0326 38.38 62.8804 36.1116 62.5277 33.8702C64.3734 33.349 66.1549 32.6226 67.8388 31.7046C69.4706 34.4056 70.3527 37.493 70.3942 40.6485H70.3996ZM62.8579 43.166H70.2751C69.8906 46.3843 68.7068 49.4552 66.8318 52.099C65.2254 51.1741 63.513 50.4469 61.7318 49.9334C62.3046 47.7151 62.6796 45.4505 62.8525 43.166H62.8579ZM66.4041 29.6906C65.0068 30.4141 63.5392 30.9928 62.0242 31.4176C61.4649 28.8963 60.4244 26.5066 58.9599 24.3795C61.8666 25.4588 64.434 27.2918 66.3987 29.6906H66.4041ZM46.2749 24.3903C44.6175 26.4966 43.3455 28.8793 42.5176 31.4285C41.0577 31.0049 39.6474 30.4259 38.311 29.7014C40.4959 27.3142 43.2266 25.4918 46.2695 24.3903H46.2749ZM37.1091 54.1238C38.5057 53.4017 39.9712 52.8213 41.4836 52.3914C42.0442 54.9122 43.0845 57.3017 44.5479 59.4295C41.6399 58.3523 39.0707 56.5212 37.1036 54.1238H37.1091ZM57.2491 59.4187C58.9101 57.3148 60.1824 54.9314 61.0064 52.3805C62.4669 52.8048 63.8773 53.3857 65.213 54.113C63.0273 56.5005 60.2943 58.3213 57.2491 59.4187Z" fill="#095FD2"/>
<path opacity="0.6" d="M25.0197 10.6226L17.2019 69.4183H27.6076L35.4254 10.6226H25.0197Z" fill="white"/>
<path opacity="0.6" d="M38.9769 10.6226L31.1591 69.4183H35.4253L43.2485 10.6226H38.9769Z" fill="white"/>
<path opacity="0.3" d="M52.1762 8.9171C52.1725 9.00371 52.1865 9.09016 52.2173 9.17118C52.2481 9.25221 52.295 9.32612 52.3553 9.38842C52.4156 9.45071 52.4879 9.50009 52.5679 9.53355C52.6478 9.567 52.7338 9.58384 52.8204 9.58303C52.9987 9.58177 53.1696 9.51186 53.2977 9.38785C53.4257 9.26383 53.501 9.09523 53.508 8.9171C53.5117 8.8305 53.4977 8.74406 53.4669 8.66304C53.4361 8.58201 53.3891 8.5081 53.3289 8.4458C53.2686 8.38351 53.1963 8.33413 53.1163 8.30067C53.0364 8.26721 52.9504 8.25038 52.8637 8.25119C52.6855 8.25244 52.5146 8.32235 52.3865 8.44636C52.2585 8.57038 52.1831 8.73898 52.1762 8.9171Z" fill="white"/>
<path d="M108.741 132.881H18.8099C17.5759 132.822 16.3931 132.37 15.4346 131.591C14.476 130.811 13.792 129.746 13.4825 128.55L1.97239 78.2539C1.43099 75.8718 2.93066 73.9227 5.31281 73.9227H95.239C96.4727 73.9824 97.655 74.4349 98.6134 75.214C99.5718 75.9932 100.256 77.0583 100.566 78.2539L112.076 128.55C112.629 130.932 111.124 132.881 108.741 132.881Z" fill="#095FD2"/>
<path opacity="0.4" d="M108.741 132.881H18.8099C17.5759 132.822 16.3931 132.37 15.4346 131.591C14.476 130.811 13.792 129.746 13.4825 128.55L1.97239 78.2539C1.43099 75.8718 2.93066 73.9227 5.31281 73.9227H95.239C96.4727 73.9824 97.655 74.4349 98.6134 75.214C99.5718 75.9932 100.256 77.0583 100.566 78.2539L112.076 128.55C112.629 130.932 111.124 132.881 108.741 132.881Z" fill="#161D38"/>
<path d="M109.602 132.881H19.6761C18.4418 132.823 17.2587 132.371 16.2999 131.592C15.3412 130.812 14.6574 129.746 14.3487 128.55L2.8386 78.2485C2.2972 75.8664 3.79687 73.9174 6.17902 73.9174H96.1052C97.3389 73.977 98.5213 74.4295 99.4797 75.2087C100.438 75.9879 101.122 77.053 101.433 78.2485L112.943 128.544C113.489 130.932 111.984 132.881 109.602 132.881Z" fill="#095FD2"/>
<path opacity="0.3" d="M14.9172 107.776C14.4301 107.753 13.9632 107.575 13.5851 107.267C13.207 106.959 12.9376 106.538 12.8166 106.066L6.67711 79.2176C6.61906 79.0178 6.60901 78.8072 6.64777 78.6028C6.68654 78.3984 6.77303 78.2061 6.9002 78.0414C7.02737 77.8768 7.19163 77.7445 7.3796 77.6554C7.56756 77.5662 7.77393 77.5227 7.98188 77.5285H95.9428C96.4301 77.5506 96.8974 77.7288 97.2757 78.0369C97.6539 78.3449 97.9231 78.7665 98.0434 79.2393L104.188 106.066C104.25 106.268 104.262 106.482 104.224 106.69C104.186 106.898 104.098 107.094 103.969 107.262C103.84 107.429 103.672 107.563 103.481 107.653C103.289 107.742 103.079 107.785 102.867 107.776H14.9172Z" fill="#161D38"/>
<path opacity="0.3" d="M51.1584 128.88C50.8742 128.866 50.6018 128.762 50.3808 128.583C50.1598 128.404 50.0016 128.159 49.9294 127.884L46.3508 112.243C46.3154 112.125 46.3087 112.001 46.331 111.88C46.3534 111.759 46.4043 111.645 46.4794 111.547C46.5546 111.45 46.6518 111.372 46.7631 111.32C46.8745 111.267 46.9966 111.242 47.1195 111.247H72.2512C72.5375 111.257 72.8128 111.36 73.0361 111.539C73.2595 111.719 73.419 111.966 73.491 112.243L77.0751 127.884C77.1104 128.002 77.1172 128.126 77.0948 128.247C77.0724 128.368 77.0216 128.482 76.9464 128.579C76.8713 128.677 76.774 128.755 76.6627 128.807C76.5514 128.859 76.4292 128.884 76.3063 128.88H51.1584Z" fill="#161D38"/>
<path d="M112.055 93.7818L114.762 22.4419C114.781 21.9954 114.709 21.5498 114.552 21.1315C114.395 20.7133 114.155 20.331 113.847 20.0076C113.539 19.6841 113.168 19.4262 112.758 19.2491C112.348 19.072 111.906 18.9794 111.459 18.9769L65.9819 18.5925C65.0621 18.5929 64.1777 18.9474 63.5124 19.5825C62.847 20.2176 62.4518 21.0845 62.4086 22.0033L59.7016 93.3379C59.682 93.7848 59.7527 94.231 59.9095 94.6499C60.0664 95.0688 60.3062 95.4517 60.6145 95.7757C60.9229 96.0998 61.2935 96.3582 61.7041 96.5356C62.1147 96.7131 62.5569 96.8058 63.0042 96.8082L108.482 97.1926C109.401 97.1909 110.285 96.836 110.95 96.2011C111.615 95.5663 112.01 94.7002 112.055 93.7818Z" fill="#095FD2"/>
<path opacity="0.4" d="M112.055 93.7818L114.762 22.4419C114.781 21.9954 114.709 21.5498 114.552 21.1315C114.395 20.7133 114.155 20.331 113.847 20.0076C113.539 19.6841 113.168 19.4262 112.758 19.2491C112.348 19.072 111.906 18.9794 111.459 18.9769L65.9819 18.5925C65.0621 18.5929 64.1777 18.9474 63.5124 19.5825C62.847 20.2176 62.4518 21.0845 62.4086 22.0033L59.7016 93.3379C59.682 93.7848 59.7527 94.231 59.9095 94.6499C60.0664 95.0688 60.3062 95.4517 60.6145 95.7757C60.9229 96.0998 61.2935 96.3582 61.7041 96.5356C62.1147 96.7131 62.5569 96.8058 63.0042 96.8082L108.482 97.1926C109.401 97.1909 110.285 96.836 110.95 96.2011C111.615 95.5663 112.01 94.7002 112.055 93.7818Z" fill="#161D38"/>
<path d="M113.056 93.7812L115.79 22.4413C115.809 21.9946 115.737 21.5488 115.579 21.1305C115.421 20.7123 115.181 20.3301 114.872 20.0067C114.563 19.6833 114.193 19.4255 113.782 19.2484C113.371 19.0714 112.93 18.9789 112.482 18.9763L66.9943 18.5811C66.0744 18.5815 65.1901 18.936 64.5248 19.5711C63.8594 20.2062 63.4642 21.0731 63.421 21.9919L60.714 93.3265C60.6944 93.7733 60.7651 94.2196 60.9219 94.6385C61.0788 95.0574 61.3186 95.4403 61.6269 95.7643C61.9353 96.0883 62.3059 96.3468 62.7165 96.5242C63.1271 96.7016 63.5693 96.7944 64.0166 96.7968L109.494 97.1812C110.41 97.1782 111.29 96.824 111.953 96.1914C112.616 95.5589 113.011 94.6963 113.056 93.7812Z" fill="#095FD2"/>
<path opacity="0.9" d="M112.894 23.1992C112.901 23.0231 112.873 22.8473 112.811 22.6824C112.748 22.5175 112.654 22.3669 112.532 22.2395C112.41 22.1121 112.264 22.0106 112.102 21.9411C111.94 21.8716 111.765 21.8354 111.589 21.8349L67.6765 21.4613C67.3136 21.4623 66.9651 21.6028 66.703 21.8538C66.441 22.1048 66.2855 22.4469 66.2688 22.8094L63.5943 92.5793C63.587 92.7557 63.6153 92.9317 63.6775 93.0969C63.7397 93.2621 63.8345 93.4131 63.9562 93.5409C64.078 93.6687 64.2242 93.7707 64.3862 93.8408C64.5481 93.9109 64.7226 93.9477 64.8991 93.949L108.812 94.3172C109.174 94.3176 109.523 94.1782 109.785 93.9281C110.047 93.678 110.203 93.3365 110.219 92.9745L112.894 23.1992Z" fill="white"/>
<path opacity="0.3" d="M104.573 70.1492C107.211 66.8213 108.749 62.7554 108.974 58.5146C109.2 54.3864 108.058 50.2991 105.726 46.8854V46.8312C105.688 46.7697 105.643 46.7132 105.591 46.6634C103.861 44.2372 101.573 42.2634 98.919 40.9092C96.2651 39.5549 93.3241 38.8601 90.3447 38.8835C87.2561 38.9079 84.212 39.622 81.4347 40.9737C78.6574 42.3253 76.2172 44.2803 74.2923 46.6959C74.2515 46.7385 74.2135 46.7837 74.1786 46.8312L74.1515 46.88C71.4894 50.1982 69.9332 54.2668 69.7012 58.5146C69.4692 62.6468 70.6114 66.7397 72.9496 70.1546C72.9517 70.1708 72.9517 70.1872 72.9496 70.2034L72.9984 70.2575C74.7298 72.7195 77.0343 74.7232 79.7131 76.0956C82.3919 77.468 85.3644 78.1679 88.3741 78.1348C91.4576 78.1117 94.497 77.4003 97.2705 76.0524C100.044 74.7046 102.481 72.7543 104.405 70.3441C104.453 70.2962 104.498 70.2456 104.54 70.1925L104.573 70.1492ZM88.4877 75.8122C85.6833 75.8122 83.3174 72.526 82.1101 67.6913C84.3526 67.2433 86.634 67.0184 88.9209 67.0199C91.1934 67.0135 93.4607 67.2366 95.6883 67.6859C93.9883 72.526 91.2976 75.8122 88.4877 75.8122ZM89.0291 64.6811C86.5475 64.6754 84.0715 64.9202 81.6391 65.412C81.3405 63.5179 81.2083 61.6012 81.2438 59.684H97.3125C97.1549 61.6169 96.8343 63.533 96.3543 65.412C93.9477 64.918 91.4967 64.6731 89.04 64.6811H89.0291ZM72.0238 59.684H78.905C78.8528 61.7895 78.9942 63.8954 79.3273 65.975C77.6132 66.4554 75.9588 67.1274 74.3952 67.9782C72.8856 65.4722 72.0709 62.6093 72.0347 59.684H72.0238ZM75.3318 49.051C76.8233 49.9092 78.4142 50.5819 80.069 51.0541C79.5356 53.118 79.186 55.225 79.0241 57.3506H72.1484C72.5007 54.36 73.5991 51.506 75.3426 49.051H75.3318ZM90.1823 41.2223C92.9922 41.2223 95.3581 44.5032 96.5654 49.3433C94.3214 49.7938 92.038 50.0187 89.7492 50.0146C87.4836 50.0212 85.2233 49.7963 83.0034 49.3433C84.698 44.5032 87.3833 41.2223 90.1932 41.2223H90.1823ZM89.6409 52.3535C92.1251 52.3564 94.603 52.1061 97.0364 51.6064C97.3329 53.5025 97.4633 55.4209 97.4262 57.3398H81.3738C81.5275 55.405 81.8462 53.4868 82.3266 51.6064C84.7341 52.1083 87.1871 52.3586 89.6463 52.3535H89.6409ZM106.646 57.3506H99.7651C99.8118 55.2434 99.6705 53.1362 99.3428 51.0541C101.058 50.5761 102.712 49.904 104.275 49.051C105.79 51.5574 106.61 54.4221 106.652 57.3506H106.646ZM99.646 59.684H106.516C106.159 62.6717 105.061 65.5227 103.322 67.9782C101.829 67.1233 100.238 66.4508 98.5848 65.975C99.1229 63.9131 99.4798 61.8081 99.6514 59.684H99.646ZM102.938 47.1723C101.641 47.8502 100.279 48.3944 98.8718 48.7965C98.3519 46.4596 97.3869 44.2446 96.0294 42.2727C98.7269 43.2653 101.113 44.9561 102.943 47.1723H102.938ZM84.2486 42.2564C82.7077 44.2064 81.527 46.4156 80.762 48.7803C79.4052 48.3838 78.0961 47.8391 76.8585 47.1561C78.8915 44.9492 81.4291 43.268 84.254 42.2564H84.2486ZM75.7378 69.8677C77.0326 69.1898 78.3932 68.6456 79.7983 68.2435C80.3222 70.58 81.2889 72.7945 82.6461 74.7673C79.9511 73.7729 77.5689 72.0801 75.7432 69.8623L75.7378 69.8677ZM94.4269 74.7836C95.9646 72.8315 97.1449 70.6229 97.9135 68.2597C99.2691 68.6596 100.578 69.2041 101.817 69.8839C99.7877 72.0889 97.2536 73.7684 94.4323 74.7782L94.4269 74.7836Z" fill="#095FD2"/>
<path opacity="0.6" d="M77.1671 21.5425L69.3656 93.987L79.7604 94.0736L87.562 21.6292L77.1671 21.5425Z" fill="white"/>
<path opacity="0.6" d="M91.1081 21.6616L83.3066 94.106L87.5728 94.1385L95.3743 21.6941L91.1081 21.6616Z" fill="white"/>
<path opacity="0.3" d="M88.7152 20.6059C88.8587 20.6059 88.9964 20.5489 89.098 20.4474C89.1995 20.3458 89.2566 20.2081 89.2566 20.0645C89.261 19.995 89.2511 19.9253 89.2276 19.8598C89.204 19.7942 89.1672 19.7342 89.1195 19.6835C89.0718 19.6327 89.0142 19.5923 88.9502 19.5647C88.8862 19.5371 88.8173 19.523 88.7476 19.5231C88.604 19.5231 88.4663 19.5802 88.3648 19.6817C88.2633 19.7832 88.2062 19.9209 88.2062 20.0645C88.2018 20.134 88.2117 20.2037 88.2352 20.2693C88.2588 20.3348 88.2956 20.3948 88.3433 20.4456C88.391 20.4963 88.4486 20.5367 88.5126 20.5643C88.5766 20.5919 88.6455 20.6061 88.7152 20.6059Z" fill="white"/>
<path d="M125.763 112.903L128.497 56.9121C128.516 56.4654 128.445 56.0195 128.288 55.6009C128.13 55.1824 127.891 54.7998 127.582 54.4759C127.274 54.152 126.904 53.8936 126.494 53.7159C126.083 53.5382 125.642 53.445 125.194 53.4417L98.8988 53.0627C97.9799 53.0631 97.0963 53.4168 96.4311 54.0508C95.7659 54.6848 95.3701 55.5503 95.3256 56.4681L92.6186 112.465C92.5997 112.911 92.6709 113.357 92.8281 113.775C92.9853 114.193 93.2252 114.576 93.5335 114.899C93.8418 115.223 94.2121 115.481 94.6223 115.658C95.0326 115.835 95.4743 115.927 95.9211 115.93L122.217 116.314C123.132 116.307 124.009 115.949 124.669 115.315C125.329 114.681 125.72 113.818 125.763 112.903Z" fill="#095FD2"/>
<path opacity="0.4" d="M125.763 112.903L128.497 56.9121C128.516 56.4654 128.445 56.0195 128.288 55.6009C128.13 55.1824 127.891 54.7998 127.582 54.4759C127.274 54.152 126.904 53.8936 126.494 53.7159C126.083 53.5382 125.642 53.445 125.194 53.4417L98.8988 53.0627C97.9799 53.0631 97.0963 53.4168 96.4311 54.0508C95.7659 54.6848 95.3701 55.5503 95.3256 56.4681L92.6186 112.465C92.5997 112.911 92.6709 113.357 92.8281 113.775C92.9853 114.193 93.2252 114.576 93.5335 114.899C93.8418 115.223 94.2121 115.481 94.6223 115.658C95.0326 115.835 95.4743 115.927 95.9211 115.93L122.217 116.314C123.132 116.307 124.009 115.949 124.669 115.315C125.329 114.681 125.72 113.818 125.763 112.903Z" fill="#161D38"/>
<path d="M126.77 112.903L129.477 56.9121C129.497 56.4652 129.426 56.019 129.269 55.6001C129.112 55.1812 128.872 54.7983 128.564 54.4742C128.256 54.1502 127.885 53.8918 127.475 53.7143C127.064 53.5369 126.622 53.4442 126.174 53.4417L99.8788 53.0627C98.9604 53.0631 98.0774 53.4171 97.4131 54.0512C96.7488 54.6853 96.3541 55.5508 96.3109 56.4681L93.5769 112.465C93.558 112.911 93.6292 113.357 93.7864 113.775C93.9436 114.193 94.1835 114.576 94.4918 114.899C94.8001 115.223 95.1704 115.481 95.5807 115.658C95.9909 115.835 96.4326 115.927 96.8794 115.93L123.175 116.314C124.098 116.318 124.987 115.966 125.657 115.33C126.327 114.695 126.725 113.826 126.77 112.903Z" fill="#095FD2"/>
<path opacity="0.9" d="M126.608 57.6701C126.614 57.4939 126.585 57.3182 126.523 57.1534C126.46 56.9885 126.366 56.8378 126.244 56.7101C126.122 56.5825 125.976 56.4805 125.815 56.4101C125.653 56.3397 125.479 56.3024 125.303 56.3004L100.561 55.9376C100.198 55.9386 99.8495 56.0792 99.5875 56.3301C99.3254 56.5811 99.1699 56.9232 99.1533 57.2857L96.4896 111.702C96.4823 111.878 96.5106 112.054 96.5728 112.219C96.635 112.384 96.7297 112.535 96.8515 112.663C96.9732 112.791 97.1194 112.893 97.2814 112.963C97.4434 113.033 97.6179 113.07 97.7944 113.071L122.525 113.439C122.888 113.44 123.236 113.301 123.498 113.05C123.761 112.8 123.916 112.459 123.933 112.097L126.608 57.6701Z" fill="white"/>
<path opacity="0.3" d="M120.896 92.2113C122.517 90.1694 123.463 87.6738 123.603 85.0703C123.74 82.5351 123.038 80.0254 121.605 77.9292C121.605 77.9292 121.605 77.9292 121.605 77.8968C121.583 77.8603 121.558 77.8259 121.529 77.7939C120.466 76.3048 119.06 75.0935 117.429 74.2624C115.799 73.4313 113.993 73.0047 112.163 73.0188C110.268 73.0332 108.4 73.4715 106.696 74.3014C104.992 75.1314 103.495 76.3321 102.315 77.8156L102.239 77.8968V77.9292C100.615 79.9697 99.6691 82.4661 99.5323 85.0703C99.3894 87.6078 100.092 90.1211 101.53 92.2167V92.2438C101.53 92.2438 101.53 92.2438 101.557 92.2763C102.618 93.7779 104.028 94.9998 105.665 95.8371C107.302 96.6744 109.117 97.1023 110.956 97.0839C112.848 97.0694 114.713 96.6327 116.415 95.8057C118.117 94.9786 119.612 93.7821 120.793 92.3034C120.825 92.2735 120.854 92.2409 120.88 92.2059L120.896 92.2113ZM111.026 95.6871C109.299 95.6871 107.848 93.6731 107.112 90.7008C108.488 90.4262 109.888 90.2884 111.291 90.2894C112.682 90.287 114.07 90.4248 115.433 90.7008C114.399 93.646 112.748 95.66 111.026 95.66V95.6871ZM111.362 88.8546C109.838 88.8515 108.318 89.0021 106.825 89.304C106.644 88.1419 106.564 86.9663 106.587 85.7903H116.44C116.347 86.9762 116.151 88.1518 115.855 89.304C114.387 88.9934 112.89 88.8338 111.389 88.8276L111.362 88.8546ZM100.924 85.7903H105.152C105.122 87.0823 105.209 88.3742 105.412 89.6505C104.358 89.9447 103.341 90.357 102.38 90.8795C101.447 89.3344 100.944 87.568 100.924 85.7633V85.7903ZM102.954 79.2178C103.87 79.7423 104.846 80.1549 105.861 80.4467C105.535 81.7139 105.321 83.0075 105.222 84.3123H100.994C101.211 82.477 101.885 80.7253 102.954 79.2178ZM112.071 74.4102C113.798 74.4102 115.249 76.4242 115.991 79.3964C114.613 79.6734 113.211 79.8112 111.806 79.8079C110.415 79.8129 109.027 79.675 107.664 79.3964C108.682 76.4404 110.349 74.4264 112.071 74.4264V74.4102ZM111.735 81.2426C113.259 81.2457 114.779 81.0952 116.272 80.7932C116.454 81.9571 116.533 83.1346 116.511 84.3123H106.657C106.753 83.125 106.948 81.9478 107.242 80.7932C108.72 81.102 110.226 81.258 111.735 81.2588V81.2426ZM122.174 84.3123H117.945C117.975 83.0186 117.888 81.7248 117.685 80.4467C118.739 80.1525 119.756 79.7402 120.717 79.2178C121.649 80.7614 122.152 82.5257 122.174 84.3286V84.3123ZM117.886 85.7633H122.114C121.896 87.5967 121.222 89.3464 120.154 90.8524C119.238 90.3279 118.262 89.9153 117.247 89.6234C117.573 88.358 117.787 87.0663 117.886 85.7633ZM119.91 78.0808C119.114 78.4929 118.278 78.823 117.415 79.0662C117.095 77.6308 116.501 76.2705 115.666 75.0598C117.32 75.6744 118.781 76.7169 119.9 78.0808H119.91ZM108.438 75.0598C107.484 76.2562 106.751 77.6128 106.273 79.0662C105.44 78.8264 104.635 78.4959 103.874 78.0808C105.125 76.7197 106.687 75.6829 108.427 75.0598H108.438ZM103.214 92.0056C104.009 91.5949 104.843 91.2648 105.704 91.0202C106.027 92.4548 106.62 93.8147 107.453 95.0266C105.792 94.4167 104.325 93.3736 103.203 92.0056H103.214ZM114.681 95.0266C115.634 93.8302 116.368 92.4736 116.846 91.0202C117.678 91.2624 118.482 91.5927 119.245 92.0056C117.988 93.3697 116.418 94.4066 114.67 95.0266H114.681Z" fill="#095FD2"/>
<path opacity="0.6" d="M105.141 56.0026L99.045 113.088L107.198 113.212L113.349 56.1217L105.141 56.0026Z" fill="white"/>
<path opacity="0.6" d="M116.148 56.165L109.997 113.255L113.365 113.304L119.515 56.2138L116.148 56.165Z" fill="white"/>
<path opacity="0.3" d="M102.385 55.158C102.529 55.158 102.667 55.101 102.768 54.9994C102.87 54.8979 102.927 54.7602 102.927 54.6166C102.927 54.4785 102.874 54.3455 102.78 54.2448C102.685 54.1442 102.556 54.0835 102.418 54.0752C102.274 54.0752 102.137 54.1322 102.035 54.2338C101.934 54.3353 101.876 54.473 101.876 54.6166C101.876 54.7547 101.929 54.8877 102.023 54.9884C102.118 55.089 102.247 55.1497 102.385 55.158Z" fill="white"/>
</svg>
