<svg width="132" height="162" viewBox="0 0 132 162" fill="none" xmlns="http://www.w3.org/2000/svg">
<path d="M55.0577 1.62057H124.642C125.647 1.61007 126.643 1.80841 127.567 2.20302C128.491 2.59764 129.323 3.17993 130.011 3.91298C130.698 4.64604 131.225 5.51388 131.56 6.46151C131.894 7.40914 132.028 8.4159 131.953 9.41799L123.1 151.137C122.94 153.236 122.001 155.199 120.469 156.641C118.937 158.084 116.921 158.902 114.816 158.935H45.2276C44.2232 158.945 43.2276 158.746 42.304 158.351C41.3804 157.956 40.5488 157.374 39.862 156.641C39.1751 155.908 38.648 155.04 38.3139 154.093C37.9797 153.145 37.846 152.139 37.921 151.137L46.7742 9.4504C46.9246 7.34543 47.8589 5.37339 49.3925 3.92376C50.9262 2.47412 52.9476 1.65229 55.0577 1.62057Z" fill="#161D38"/>
<path d="M70.4349 0H53.8585V0.463029H70.4349V0Z" fill="#095FD2"/>
<path d="M47.1538 3.32453L46.8251 2.99578C47.7846 2.0259 48.9273 1.25627 50.1867 0.731567L50.3626 1.16218C49.159 1.66072 48.0678 2.39606 47.1538 3.32453Z" fill="#095FD2"/>
<path d="M53.8585 1.62059H123.447C124.452 1.61073 125.447 1.80955 126.371 2.20445C127.294 2.59935 128.126 3.18173 128.813 3.91472C129.5 4.6477 130.027 5.51532 130.361 6.46263C130.695 7.40994 130.829 8.41631 130.754 9.418L121.901 151.137C121.74 153.236 120.802 155.199 119.27 156.641C117.737 158.084 115.721 158.902 113.617 158.935H44.0284C43.0239 158.945 42.0284 158.746 41.1048 158.351C40.1811 157.956 39.3496 157.374 38.6627 156.641C37.9759 155.908 37.4487 155.04 37.1146 154.093C36.7805 153.145 36.6467 152.139 36.7218 151.137L45.5749 9.45041C45.7274 7.34621 46.6623 5.37539 48.1955 3.92617C49.7287 2.47696 51.749 1.65442 53.8585 1.62059Z" fill="#095FD2"/>
<path d="M44.422 152.661C43.6292 152.67 42.8432 152.514 42.114 152.203C41.3849 151.892 40.7286 151.432 40.187 150.853C39.6455 150.274 39.2306 149.589 38.9688 148.84C38.707 148.092 38.604 147.297 38.6665 146.507L47.2326 9.39951C47.3605 7.7501 48.1001 6.20798 49.3061 5.07558C50.5122 3.94317 52.0978 3.30217 53.752 3.27826H123.341C124.131 3.27088 124.915 3.42775 125.641 3.73893C126.368 4.05011 127.022 4.50882 127.562 5.086C128.103 5.66319 128.517 6.34627 128.779 7.09197C129.042 7.83768 129.147 8.62975 129.087 9.41803L120.53 146.507C120.406 148.159 119.669 149.705 118.462 150.841C117.255 151.976 115.667 152.619 114.011 152.642L44.422 152.661Z" fill="white"/>
<g opacity="0.1">
<path opacity="0.1" d="M128.406 20.7066H77.7878C77.7558 20.7063 77.7241 20.6996 77.6947 20.6869C77.6653 20.6742 77.6387 20.6557 77.6165 20.6326L70.9674 13.539H46.9918C46.9304 13.539 46.8715 13.5146 46.8281 13.4711C46.7846 13.4277 46.7603 13.3688 46.7603 13.3074C46.7603 13.246 46.7846 13.1872 46.8281 13.1437C46.8715 13.1003 46.9304 13.0759 46.9918 13.0759H71.0693C71.1013 13.0763 71.133 13.083 71.1624 13.0957C71.1918 13.1084 71.2184 13.1269 71.2406 13.15L77.8851 20.2436H128.406C128.468 20.2436 128.526 20.268 128.57 20.3114C128.613 20.3548 128.638 20.4137 128.638 20.4751C128.637 20.5362 128.612 20.5944 128.569 20.6375C128.525 20.6807 128.467 20.7055 128.406 20.7066Z" fill="#095FD2"/>
<path opacity="0.1" d="M128.693 16.0764H78.0749C78.0135 16.0764 77.9546 16.052 77.9112 16.0086C77.8678 15.9651 77.8434 15.9063 77.8434 15.8449C77.8434 15.7835 77.8678 15.7246 77.9112 15.6812C77.9546 15.6377 78.0135 15.6133 78.0749 15.6133H128.693C128.755 15.6133 128.814 15.6377 128.857 15.6812C128.9 15.7246 128.925 15.7835 128.925 15.8449C128.925 15.9063 128.9 15.9651 128.857 16.0086C128.814 16.052 128.755 16.0764 128.693 16.0764Z" fill="#095FD2"/>
<path opacity="0.1" d="M128.985 11.4461H78.3666C78.3346 11.4458 78.3029 11.4391 78.2735 11.4263C78.2441 11.4136 78.2175 11.3951 78.1953 11.372L73.8567 6.74173C73.8143 6.6969 73.7915 6.63708 73.7932 6.57543C73.795 6.51378 73.8211 6.45534 73.866 6.41298C73.9108 6.37061 73.9706 6.34778 74.0323 6.34952C74.0939 6.35126 74.1524 6.37741 74.1947 6.42223L78.4639 10.9831H128.985C129.046 10.9831 129.105 11.0075 129.149 11.0509C129.192 11.0943 129.216 11.1532 129.216 11.2146C129.215 11.2756 129.191 11.3338 129.147 11.377C129.104 11.4201 129.046 11.4449 128.985 11.4461Z" fill="#095FD2"/>
<path opacity="0.1" d="M129.272 6.81581H47.4131C47.3517 6.81581 47.2928 6.79142 47.2494 6.748C47.206 6.70459 47.1816 6.6457 47.1816 6.5843C47.1816 6.5229 47.206 6.46401 47.2494 6.42059C47.2928 6.37717 47.3517 6.35278 47.4131 6.35278H129.272C129.333 6.35278 129.392 6.37717 129.436 6.42059C129.479 6.46401 129.504 6.5229 129.504 6.5843C129.504 6.6457 129.479 6.70459 129.436 6.748C129.392 6.79142 129.333 6.81581 129.272 6.81581Z" fill="#095FD2"/>
<path opacity="0.1" d="M128.114 25.337H77.4961C77.4647 25.3371 77.4336 25.3306 77.4048 25.3178C77.3761 25.305 77.3504 25.2863 77.3294 25.2629L70.6803 18.1693H46.7001C46.6386 18.1693 46.5798 18.1449 46.5363 18.1015C46.4929 18.058 46.4685 17.9992 46.4685 17.9378C46.4697 17.8767 46.4945 17.8185 46.5377 17.7754C46.5808 17.7322 46.639 17.7074 46.7001 17.7062H70.7776C70.8089 17.7067 70.8399 17.7134 70.8685 17.7262C70.8972 17.7389 70.9229 17.7573 70.9443 17.7803L77.5934 24.8739H128.114C128.176 24.8739 128.235 24.8983 128.278 24.9417C128.322 24.9852 128.346 25.044 128.346 25.1054C128.346 25.1668 128.322 25.2257 128.278 25.2691C128.235 25.3126 128.176 25.337 128.114 25.337Z" fill="#095FD2"/>
<path opacity="0.1" d="M127.827 29.9673H77.2276C77.1955 29.9669 77.1638 29.9602 77.1344 29.9475C77.105 29.9348 77.0784 29.9163 77.0562 29.8932L70.4118 22.7996H46.413C46.3516 22.7996 46.2927 22.7752 46.2493 22.7318C46.2059 22.6884 46.1815 22.6295 46.1815 22.5681C46.1815 22.5067 46.2059 22.4478 46.2493 22.4044C46.2927 22.3609 46.3516 22.3365 46.413 22.3365H70.4905C70.5225 22.3369 70.5542 22.3436 70.5836 22.3563C70.613 22.369 70.6396 22.3875 70.6618 22.4106L77.3063 29.5042H127.827C127.889 29.5042 127.948 29.5286 127.991 29.5721C128.035 29.6155 128.059 29.6744 128.059 29.7358C128.058 29.7968 128.033 29.855 127.99 29.8981C127.947 29.9413 127.888 29.9661 127.827 29.9673Z" fill="#095FD2"/>
<path opacity="0.1" d="M127.536 34.5975H76.9173C76.8859 34.5977 76.8548 34.5911 76.8261 34.5784C76.7973 34.5656 76.7716 34.5469 76.7507 34.5234L70.1016 27.4298H46.1213C46.0599 27.4298 46.001 27.4054 45.9576 27.362C45.9142 27.3186 45.8898 27.2597 45.8898 27.1983C45.891 27.1373 45.9157 27.0791 45.9589 27.0359C46.0021 26.9928 46.0603 26.968 46.1213 26.9668H70.1988C70.2302 26.9667 70.2614 26.9732 70.2901 26.986C70.3188 26.9987 70.3445 27.0174 70.3655 27.0409L77.0146 34.1345H127.531C127.592 34.1345 127.651 34.1589 127.695 34.2023C127.738 34.2457 127.763 34.3046 127.763 34.366C127.763 34.4266 127.739 34.4848 127.696 34.5281C127.654 34.5714 127.596 34.5963 127.536 34.5975Z" fill="#095FD2"/>
<path opacity="0.1" d="M127.235 39.2279H76.6302C76.5982 39.2276 76.5665 39.2208 76.5371 39.2081C76.5077 39.1954 76.4811 39.1769 76.4589 39.1538L69.8191 32.0602H45.8342C45.7728 32.0602 45.7139 32.0358 45.6705 31.9924C45.6271 31.949 45.6027 31.8901 45.6027 31.8287C45.6027 31.7673 45.6271 31.7084 45.6705 31.665C45.7139 31.6216 45.7728 31.5972 45.8342 31.5972H69.9117C69.9437 31.5975 69.9754 31.6042 70.0048 31.6169C70.0342 31.6297 70.0608 31.6481 70.083 31.6713L76.7275 38.7649H127.235C127.296 38.7649 127.355 38.7893 127.398 38.8327C127.442 38.8761 127.466 38.935 127.466 38.9964C127.465 39.0574 127.44 39.1156 127.397 39.1588C127.354 39.2019 127.296 39.2267 127.235 39.2279Z" fill="#095FD2"/>
<path opacity="0.1" d="M68.7264 51.0212H44.6488C44.5878 51.02 44.5296 50.9952 44.4864 50.9521C44.4433 50.9089 44.4185 50.8507 44.4173 50.7897C44.4173 50.7283 44.4417 50.6694 44.4851 50.626C44.5286 50.5825 44.5874 50.5581 44.6488 50.5581H68.6384L76.1811 43.4553C76.2237 43.4153 76.2802 43.3937 76.3386 43.3951H126.957C127.018 43.3951 127.077 43.4195 127.121 43.4629C127.164 43.5063 127.188 43.5652 127.188 43.6266C127.188 43.688 127.164 43.7469 127.121 43.7903C127.077 43.8337 127.018 43.8581 126.957 43.8581H76.4312L68.8931 50.9563C68.8479 50.9986 68.7882 51.0218 68.7264 51.0212Z" fill="#095FD2"/>
<path opacity="0.1" d="M69.3051 41.7606H45.2276C45.1662 41.7606 45.1073 41.7362 45.0639 41.6928C45.0205 41.6494 44.9961 41.5905 44.9961 41.5291C44.9961 41.4677 45.0205 41.4088 45.0639 41.3654C45.1073 41.322 45.1662 41.2976 45.2276 41.2976H69.3051C69.3665 41.2976 69.4254 41.322 69.4688 41.3654C69.5123 41.4088 69.5366 41.4677 69.5366 41.5291C69.5366 41.5905 69.5123 41.6494 69.4688 41.6928C69.4254 41.7362 69.3665 41.7606 69.3051 41.7606Z" fill="#095FD2"/>
<path opacity="0.1" d="M69.0181 46.3909H44.9406C44.8792 46.3909 44.8203 46.3665 44.7769 46.3231C44.7334 46.2797 44.709 46.2208 44.709 46.1594C44.709 46.098 44.7334 46.0391 44.7769 45.9957C44.8203 45.9523 44.8792 45.9279 44.9406 45.9279H68.8004L69.3515 37.1303H45.5193C45.4579 37.1303 45.3991 37.1059 45.3556 37.0625C45.3122 37.0191 45.2878 36.9602 45.2878 36.8988C45.2878 36.8374 45.3122 36.7785 45.3556 36.7351C45.3991 36.6917 45.4579 36.6673 45.5193 36.6673H69.5969C69.628 36.6666 69.6589 36.6724 69.6876 36.6843C69.7163 36.6963 69.7422 36.7142 69.7636 36.7367C69.786 36.7599 69.8034 36.7876 69.8146 36.8179C69.8257 36.8482 69.8304 36.8805 69.8284 36.9127L69.2496 46.1733C69.245 46.2319 69.2187 46.2866 69.1759 46.3269C69.1331 46.3671 69.0768 46.3899 69.0181 46.3909Z" fill="#095FD2"/>
<path opacity="0.1" d="M94.4013 64.9121H43.783C43.7216 64.9121 43.6627 64.8878 43.6193 64.8443C43.5758 64.8009 43.5515 64.742 43.5515 64.6806C43.5515 64.6192 43.5758 64.5603 43.6193 64.5169C43.6627 64.4735 43.7216 64.4491 43.783 64.4491H94.3087L101.851 57.3462C101.896 57.3064 101.954 57.2849 102.014 57.2861H126.091C126.152 57.2861 126.211 57.3104 126.255 57.3539C126.298 57.3973 126.323 57.4562 126.323 57.5176C126.321 57.5786 126.297 57.6368 126.253 57.68C126.21 57.7231 126.152 57.7479 126.091 57.7491H102.101L94.5587 64.8473C94.5167 64.8885 94.4602 64.9118 94.4013 64.9121Z" fill="#095FD2"/>
<path opacity="0.1" d="M99.3187 60.2818H44.07C44.009 60.2806 43.9508 60.2558 43.9077 60.2126C43.8645 60.1695 43.8397 60.1113 43.8385 60.0502C43.8385 59.9888 43.8629 59.93 43.9063 59.8865C43.9498 59.8431 44.0086 59.8187 44.07 59.8187H99.3187C99.3801 59.8187 99.439 59.8431 99.4824 59.8865C99.5258 59.93 99.5502 59.9888 99.5502 60.0502C99.5502 60.1116 99.5258 60.1705 99.4824 60.2139C99.439 60.2574 99.3801 60.2818 99.3187 60.2818Z" fill="#095FD2"/>
<path opacity="0.1" d="M73.9864 55.6515H44.3525C44.2911 55.6515 44.2322 55.6272 44.1888 55.5837C44.1454 55.5403 44.121 55.4814 44.121 55.42C44.121 55.3586 44.1454 55.2997 44.1888 55.2563C44.2322 55.2129 44.2911 55.1885 44.3525 55.1885H73.866L78.7185 50.6184C78.7641 50.5804 78.8213 50.5592 78.8806 50.5582H126.512C126.574 50.5582 126.633 50.5826 126.676 50.626C126.72 50.6695 126.744 50.7283 126.744 50.7897C126.743 50.8508 126.718 50.909 126.675 50.9521C126.632 50.9953 126.573 51.0201 126.512 51.0213H78.9778L74.1253 55.5867C74.0881 55.6241 74.0389 55.6471 73.9864 55.6515Z" fill="#095FD2"/>
<path opacity="0.1" d="M94.1096 69.5423H43.4912C43.4302 69.5412 43.372 69.5164 43.3289 69.4732C43.2857 69.4301 43.2609 69.3719 43.2597 69.3108C43.2597 69.2494 43.2841 69.1905 43.3275 69.1471C43.371 69.1037 43.4298 69.0793 43.4912 69.0793H94.017L101.564 61.9764C101.585 61.9565 101.61 61.9408 101.637 61.9305C101.664 61.9202 101.693 61.9153 101.722 61.9163H125.799C125.861 61.9163 125.92 61.9406 125.963 61.9841C126.006 62.0275 126.031 62.0864 126.031 62.1478C126.031 62.2092 126.006 62.2681 125.963 62.3115C125.92 62.3549 125.861 62.3793 125.799 62.3793H101.814L94.267 69.4775C94.2463 69.4981 94.2218 69.5145 94.1948 69.5256C94.1678 69.5367 94.1388 69.5424 94.1096 69.5423Z" fill="#095FD2"/>
<path opacity="0.1" d="M93.8225 74.1726H43.2042C43.1428 74.1726 43.0839 74.1483 43.0405 74.1048C42.9971 74.0614 42.9727 74.0025 42.9727 73.9411C42.9727 73.8797 42.9971 73.8208 43.0405 73.7774C43.0839 73.734 43.1428 73.7096 43.2042 73.7096H93.7299L101.273 66.6067C101.317 66.5669 101.375 66.5454 101.435 66.5466H125.512C125.574 66.5466 125.633 66.5709 125.676 66.6144C125.719 66.6578 125.744 66.7167 125.744 66.7781C125.744 66.8395 125.719 66.8984 125.676 66.9418C125.633 66.9852 125.574 67.0096 125.512 67.0096H101.523L93.98 74.1078C93.9379 74.149 93.8815 74.1723 93.8225 74.1726Z" fill="#095FD2"/>
<path opacity="0.1" d="M93.5308 78.803H42.9125C42.8515 78.8018 42.7933 78.777 42.7501 78.7338C42.7069 78.6907 42.6822 78.6325 42.681 78.5714C42.681 78.51 42.7054 78.4512 42.7488 78.4077C42.7922 78.3643 42.8511 78.3399 42.9125 78.3399H93.4336L100.981 71.2371C101.002 71.2171 101.027 71.2014 101.054 71.1911C101.081 71.1808 101.109 71.1759 101.138 71.1769H125.216C125.277 71.1769 125.336 71.2013 125.38 71.2447C125.423 71.2881 125.447 71.347 125.447 71.4084C125.447 71.4698 125.423 71.5287 125.38 71.5721C125.336 71.6155 125.277 71.6399 125.216 71.6399H101.231L93.6883 78.7381C93.6454 78.7782 93.5895 78.8012 93.5308 78.803Z" fill="#095FD2"/>
<path opacity="0.1" d="M93.2438 83.4333H42.6254C42.564 83.4333 42.5051 83.4089 42.4617 83.3655C42.4183 83.322 42.3939 83.2632 42.3939 83.2017C42.3939 83.1403 42.4183 83.0815 42.4617 83.038C42.5051 82.9946 42.564 82.9702 42.6254 82.9702H93.1512L100.694 75.8674C100.738 75.8275 100.796 75.806 100.856 75.8072H124.933C124.995 75.8072 125.054 75.8316 125.097 75.875C125.141 75.9184 125.165 75.9773 125.165 76.0387C125.165 76.1001 125.141 76.159 125.097 76.2024C125.054 76.2458 124.995 76.2702 124.933 76.2702H100.944L93.4012 83.3684C93.3591 83.4097 93.3027 83.4329 93.2438 83.4333Z" fill="#095FD2"/>
<path opacity="0.1" d="M123.748 95.2266H99.6706C99.6385 95.2263 99.6069 95.2195 99.5775 95.2068C99.548 95.1941 99.5215 95.1756 99.4993 95.1525L92.8548 88.0635H42.3337C42.2727 88.0623 42.2145 88.0376 42.1713 87.9944C42.1281 87.9512 42.1034 87.893 42.1022 87.832C42.1022 87.7706 42.1266 87.7117 42.17 87.6683C42.2134 87.6249 42.2723 87.6005 42.3337 87.6005H92.9706C93.0027 87.6 93.0346 87.6063 93.0642 87.6191C93.0937 87.6319 93.1202 87.6508 93.1419 87.6746L99.791 94.7636H123.767C123.828 94.7636 123.887 94.7879 123.93 94.8314C123.974 94.8748 123.998 94.9337 123.998 94.9951C123.998 95.0565 123.974 95.1154 123.93 95.1588C123.887 95.2022 123.828 95.2266 123.767 95.2266H123.748Z" fill="#095FD2"/>
<path opacity="0.1" d="M124.327 85.966H100.249C100.188 85.966 100.129 85.9416 100.086 85.8981C100.042 85.8547 100.018 85.7958 100.018 85.7344C100.018 85.673 100.042 85.6142 100.086 85.5707C100.129 85.5273 100.188 85.5029 100.249 85.5029H124.327C124.388 85.5029 124.447 85.5273 124.491 85.5707C124.534 85.6142 124.558 85.673 124.558 85.7344C124.558 85.7958 124.534 85.8547 124.491 85.8981C124.447 85.9416 124.388 85.966 124.327 85.966Z" fill="#095FD2"/>
<path opacity="0.1" d="M124.04 90.5963H99.9623C99.9309 90.5957 99.8999 90.5888 99.8712 90.5761C99.8424 90.5634 99.8165 90.5451 99.795 90.5222C99.7734 90.4994 99.7566 90.4725 99.7456 90.443C99.7346 90.4136 99.7295 90.3823 99.7308 90.3509L100.31 81.0903C100.313 81.0313 100.339 80.976 100.382 80.9355C100.425 80.895 100.482 80.8726 100.541 80.8727H124.619C124.68 80.8727 124.739 80.8971 124.782 80.9405C124.826 80.9839 124.85 81.0428 124.85 81.1042C124.85 81.1656 124.826 81.2245 124.782 81.2679C124.739 81.3113 124.68 81.3357 124.619 81.3357H100.754L100.208 90.1333H124.04C124.101 90.1333 124.16 90.1577 124.204 90.2011C124.247 90.2445 124.271 90.3034 124.271 90.3648C124.271 90.4262 124.247 90.4851 124.204 90.5285C124.16 90.5719 124.101 90.5963 124.04 90.5963Z" fill="#095FD2"/>
<path opacity="0.1" d="M119.974 155.661H95.8969C95.8648 155.661 95.8331 155.655 95.8036 155.642C95.7742 155.629 95.7476 155.61 95.7256 155.587L89.0765 148.498H38.56C38.4986 148.498 38.4397 148.474 38.3963 148.43C38.3529 148.387 38.3285 148.328 38.3285 148.267C38.3285 148.205 38.3529 148.146 38.3963 148.103C38.4397 148.059 38.4986 148.035 38.56 148.035H89.1784C89.2094 148.034 89.2404 148.04 89.2691 148.052C89.2978 148.064 89.3237 148.082 89.3451 148.105L95.9941 155.198H119.974C120.036 155.198 120.095 155.223 120.138 155.266C120.182 155.309 120.206 155.368 120.206 155.43C120.205 155.491 120.18 155.549 120.137 155.592C120.094 155.635 120.035 155.66 119.974 155.661Z" fill="#095FD2"/>
<path opacity="0.1" d="M89.4654 143.868H38.8517C38.7903 143.868 38.7314 143.843 38.688 143.8C38.6446 143.757 38.6202 143.698 38.6202 143.636C38.6202 143.575 38.6446 143.516 38.688 143.473C38.7314 143.429 38.7903 143.405 38.8517 143.405H89.3775L96.9202 136.32C96.9623 136.279 97.0187 136.256 97.0776 136.256H121.155C121.216 136.257 121.274 136.282 121.318 136.325C121.361 136.368 121.385 136.426 121.387 136.487C121.387 136.549 121.362 136.607 121.319 136.651C121.275 136.694 121.217 136.719 121.155 136.719H97.1703L89.6275 143.822C89.5808 143.856 89.5233 143.872 89.4654 143.868Z" fill="#095FD2"/>
<path opacity="0.1" d="M120.581 145.961H96.5035C96.4421 145.961 96.3832 145.936 96.3398 145.893C96.2964 145.849 96.272 145.791 96.272 145.729C96.2732 145.668 96.2979 145.61 96.3411 145.567C96.3842 145.524 96.4425 145.499 96.5035 145.498H120.581C120.642 145.499 120.7 145.524 120.743 145.567C120.787 145.61 120.811 145.668 120.813 145.729C120.813 145.791 120.788 145.849 120.745 145.893C120.701 145.936 120.642 145.961 120.581 145.961Z" fill="#095FD2"/>
<path opacity="0.1" d="M120.289 150.591H96.2118C96.18 150.591 96.1485 150.586 96.1191 150.574C96.0896 150.562 96.0629 150.544 96.0405 150.521C96.0193 150.498 96.003 150.47 95.9927 150.44C95.9824 150.409 95.9781 150.377 95.9803 150.346L96.5591 141.085C96.5626 141.026 96.5886 140.971 96.6316 140.93C96.6746 140.89 96.7315 140.867 96.7906 140.867H120.868C120.929 140.867 120.988 140.892 121.032 140.935C121.075 140.979 121.1 141.037 121.1 141.099C121.1 141.16 121.075 141.219 121.032 141.263C120.988 141.306 120.929 141.33 120.868 141.33H97.0082L96.4572 150.128H120.289C120.351 150.128 120.41 150.152 120.453 150.196C120.496 150.239 120.521 150.298 120.521 150.359C120.521 150.421 120.496 150.48 120.453 150.523C120.41 150.567 120.351 150.591 120.289 150.591Z" fill="#095FD2"/>
<path opacity="0.1" d="M63.7997 129.977H39.7222C39.6608 129.977 39.6019 129.953 39.5585 129.909C39.5151 129.866 39.4907 129.807 39.4907 129.745C39.4907 129.684 39.5151 129.625 39.5585 129.582C39.6019 129.538 39.6608 129.514 39.7222 129.514H63.7071L71.2499 122.43C71.2706 122.409 71.2951 122.393 71.3221 122.381C71.3491 122.37 71.3781 122.365 71.4073 122.365H122.026C122.087 122.365 122.146 122.389 122.189 122.433C122.233 122.476 122.257 122.535 122.257 122.596C122.257 122.658 122.233 122.717 122.189 122.76C122.146 122.803 122.087 122.828 122.026 122.828H71.4999L63.9572 129.931C63.9117 129.964 63.856 129.98 63.7997 129.977Z" fill="#095FD2"/>
<path opacity="0.1" d="M121.739 127.439H66.4899C66.4285 127.439 66.3697 127.415 66.3262 127.372C66.2828 127.328 66.2584 127.269 66.2584 127.208C66.2584 127.147 66.2828 127.088 66.3262 127.044C66.3697 127.001 66.4285 126.976 66.4899 126.976H121.739C121.8 126.978 121.858 127.002 121.901 127.046C121.944 127.089 121.969 127.147 121.97 127.208C121.97 127.269 121.946 127.328 121.902 127.372C121.859 127.415 121.8 127.439 121.739 127.439Z" fill="#095FD2"/>
<path opacity="0.1" d="M86.9188 136.7H39.2962C39.2348 136.7 39.1759 136.676 39.1325 136.632C39.0891 136.589 39.0647 136.53 39.0647 136.469C39.0647 136.407 39.0891 136.348 39.1325 136.305C39.1759 136.262 39.2348 136.237 39.2962 136.237H86.8262L91.6787 131.69C91.7227 131.649 91.7805 131.626 91.8408 131.625H121.447C121.508 131.625 121.567 131.65 121.611 131.693C121.654 131.737 121.678 131.795 121.678 131.857C121.678 131.918 121.654 131.977 121.611 132.021C121.567 132.064 121.508 132.088 121.447 132.088H91.9334L87.0808 136.659C87.0337 136.692 86.9761 136.707 86.9188 136.7Z" fill="#095FD2"/>
<path opacity="0.1" d="M64.0868 125.347H40.0093C39.9483 125.345 39.8901 125.321 39.8469 125.277C39.8037 125.234 39.779 125.176 39.7778 125.115C39.7778 125.054 39.8022 124.995 39.8456 124.951C39.889 124.908 39.9479 124.884 40.0093 124.884H63.9988L71.5369 117.799C71.581 117.758 71.6388 117.735 71.699 117.734H122.317C122.378 117.736 122.437 117.76 122.48 117.804C122.523 117.847 122.548 117.905 122.549 117.966C122.549 118.027 122.524 118.086 122.481 118.13C122.438 118.173 122.379 118.197 122.317 118.197H71.787L64.2628 125.282C64.2397 125.304 64.2121 125.322 64.1818 125.333C64.1514 125.344 64.1191 125.349 64.0868 125.347Z" fill="#095FD2"/>
<path opacity="0.1" d="M64.3739 120.716H40.2964C40.235 120.716 40.1761 120.692 40.1327 120.649C40.0892 120.605 40.0648 120.546 40.0648 120.485C40.0648 120.423 40.0892 120.365 40.1327 120.321C40.1761 120.278 40.235 120.253 40.2964 120.253H64.2628L71.8286 113.169C71.8493 113.148 71.8739 113.132 71.9009 113.121C71.9279 113.11 71.9569 113.104 71.9861 113.104H122.604C122.666 113.104 122.725 113.129 122.768 113.172C122.812 113.215 122.836 113.274 122.836 113.336C122.836 113.397 122.812 113.456 122.768 113.499C122.725 113.543 122.666 113.567 122.604 113.567H72.0787L64.5313 120.67C64.4867 120.705 64.4303 120.722 64.3739 120.716Z" fill="#095FD2"/>
<path opacity="0.1" d="M64.6656 116.086H40.5881C40.5271 116.085 40.4688 116.06 40.4257 116.017C40.3825 115.974 40.3578 115.916 40.3566 115.855C40.3566 115.793 40.381 115.734 40.4244 115.691C40.4678 115.647 40.5267 115.623 40.5881 115.623H64.5776L72.1343 108.539C72.1763 108.497 72.2328 108.474 72.2917 108.474H122.896C122.957 108.475 123.015 108.5 123.059 108.543C123.102 108.586 123.126 108.644 123.128 108.705C123.128 108.767 123.103 108.826 123.06 108.869C123.016 108.913 122.958 108.937 122.896 108.937H72.3658L64.823 116.04C64.7782 116.074 64.722 116.091 64.6656 116.086Z" fill="#095FD2"/>
<path opacity="0.1" d="M64.9527 111.456H40.8752C40.8138 111.456 40.7549 111.431 40.7115 111.388C40.668 111.344 40.6436 111.286 40.6436 111.224C40.6436 111.163 40.668 111.104 40.7115 111.06C40.7549 111.017 40.8138 110.993 40.8752 110.993H64.8601L72.4074 103.908C72.4281 103.888 72.4527 103.871 72.4797 103.86C72.5067 103.849 72.5357 103.843 72.5649 103.844H123.183C123.245 103.844 123.304 103.868 123.347 103.911C123.39 103.955 123.415 104.014 123.415 104.075C123.415 104.136 123.39 104.195 123.347 104.239C123.304 104.282 123.245 104.307 123.183 104.307H72.6575L65.1101 111.409C65.0655 111.444 65.0091 111.461 64.9527 111.456Z" fill="#095FD2"/>
<path opacity="0.1" d="M123.47 99.6578H72.8519C72.8208 99.6586 72.7899 99.6528 72.7612 99.6408C72.7325 99.6288 72.7066 99.611 72.6852 99.5884L66.0361 92.4948H42.0605C41.9991 92.4948 41.9402 92.4704 41.8968 92.427C41.8534 92.3835 41.829 92.3247 41.829 92.2633C41.829 92.2019 41.8534 92.143 41.8968 92.0996C41.9402 92.0561 41.9991 92.0317 42.0605 92.0317H66.138C66.1695 92.0316 66.2006 92.0381 66.2293 92.0509C66.258 92.0637 66.2837 92.0824 66.3047 92.1058L72.9538 99.1948H123.47C123.532 99.1948 123.591 99.2192 123.634 99.2626C123.677 99.306 123.702 99.3649 123.702 99.4263C123.702 99.4877 123.677 99.5466 123.634 99.59C123.591 99.6334 123.532 99.6578 123.47 99.6578Z" fill="#095FD2"/>
<path opacity="0.1" d="M65.5592 101.755H41.4817C41.4203 101.755 41.3614 101.731 41.318 101.687C41.2746 101.644 41.2502 101.585 41.2502 101.524C41.2502 101.462 41.2746 101.403 41.318 101.36C41.3614 101.317 41.4203 101.292 41.4817 101.292H65.5592C65.6206 101.292 65.6795 101.317 65.723 101.36C65.7664 101.403 65.7908 101.462 65.7908 101.524C65.7908 101.585 65.7664 101.644 65.723 101.687C65.6795 101.731 65.6206 101.755 65.5592 101.755Z" fill="#095FD2"/>
<path opacity="0.1" d="M65.2675 106.386H41.19C41.1286 106.386 41.0697 106.361 41.0263 106.318C40.9829 106.274 40.9585 106.215 40.9585 106.154C40.9597 106.093 40.9845 106.035 41.0276 105.992C41.0708 105.949 41.129 105.924 41.19 105.923H65.0545L65.6009 97.125H41.7688C41.7074 97.125 41.6485 97.1006 41.6051 97.0572C41.5617 97.0138 41.5373 96.9549 41.5373 96.8935C41.5373 96.8321 41.5617 96.7732 41.6051 96.7298C41.6485 96.6864 41.7074 96.662 41.7688 96.662H65.8463C65.8784 96.6623 65.91 96.669 65.9394 96.6818C65.9689 96.6945 65.9955 96.7129 66.0176 96.7361C66.0385 96.7592 66.0545 96.7863 66.0649 96.8157C66.0752 96.8451 66.0796 96.8763 66.0778 96.9074L65.499 106.168C65.4966 106.227 65.471 106.283 65.4277 106.324C65.3845 106.365 65.3269 106.387 65.2675 106.386Z" fill="#095FD2"/>
</g>
<path d="M106.861 122.217H105.324C105.288 122.217 105.252 122.211 105.218 122.197C105.185 122.184 105.154 122.164 105.128 122.138C105.102 122.113 105.082 122.082 105.068 122.049C105.054 122.016 105.046 121.98 105.046 121.943C105.046 121.907 105.054 121.871 105.068 121.837C105.081 121.803 105.102 121.773 105.128 121.747C105.154 121.721 105.184 121.701 105.218 121.687C105.252 121.673 105.288 121.666 105.324 121.666H106.861C107.059 121.666 107.256 121.636 107.445 121.578C107.481 121.562 107.519 121.554 107.559 121.555C107.598 121.555 107.636 121.564 107.672 121.58C107.707 121.596 107.739 121.62 107.765 121.65C107.79 121.679 107.81 121.713 107.821 121.751C107.833 121.788 107.836 121.828 107.831 121.866C107.826 121.905 107.814 121.943 107.793 121.976C107.773 122.01 107.746 122.038 107.714 122.061C107.682 122.083 107.645 122.098 107.607 122.105C107.365 122.179 107.114 122.217 106.861 122.217ZM103.111 122.217H100.898C100.861 122.217 100.825 122.211 100.792 122.197C100.758 122.184 100.727 122.164 100.701 122.138C100.676 122.113 100.655 122.082 100.641 122.049C100.627 122.016 100.62 121.98 100.62 121.943C100.62 121.87 100.649 121.799 100.701 121.747C100.753 121.695 100.824 121.666 100.898 121.666H103.111C103.185 121.666 103.255 121.695 103.307 121.747C103.359 121.799 103.389 121.87 103.389 121.943C103.389 121.982 103.381 122.02 103.366 122.055C103.35 122.09 103.328 122.121 103.299 122.147C103.271 122.173 103.237 122.192 103.201 122.204C103.164 122.216 103.126 122.22 103.088 122.217H103.111ZM98.6844 122.217H96.4711C96.4348 122.217 96.3988 122.211 96.3651 122.197C96.3314 122.184 96.3008 122.164 96.2749 122.138C96.249 122.113 96.2285 122.082 96.2145 122.049C96.2005 122.016 96.1933 121.98 96.1933 121.943C96.1933 121.87 96.2225 121.799 96.2746 121.747C96.3267 121.695 96.3974 121.666 96.4711 121.666H98.6844C98.758 121.666 98.8287 121.695 98.8808 121.747C98.9329 121.799 98.9622 121.87 98.9622 121.943C98.9624 121.982 98.9545 122.02 98.9391 122.055C98.9236 122.09 98.901 122.121 98.8726 122.147C98.8442 122.173 98.8107 122.192 98.7743 122.204C98.7379 122.216 98.6994 122.22 98.6612 122.217H98.6844ZM94.2578 122.217H92.0445C92.0083 122.217 91.9722 122.211 91.9386 122.197C91.9049 122.184 91.8742 122.164 91.8483 122.138C91.8225 122.113 91.802 122.082 91.7879 122.049C91.7739 122.016 91.7667 121.98 91.7667 121.943C91.7667 121.87 91.796 121.799 91.8481 121.747C91.9002 121.695 91.9708 121.666 92.0445 121.666H94.2532C94.3268 121.666 94.3975 121.695 94.4496 121.747C94.5017 121.799 94.531 121.87 94.531 121.943C94.5311 121.981 94.5234 122.019 94.5082 122.054C94.4931 122.088 94.4708 122.12 94.443 122.145C94.4151 122.171 94.3822 122.19 94.3463 122.203C94.3104 122.215 94.2724 122.22 94.2347 122.217H94.2578ZM89.8359 122.217H87.5994C87.5632 122.217 87.5272 122.211 87.4935 122.197C87.4598 122.184 87.4291 122.164 87.4033 122.138C87.3774 122.113 87.3569 122.082 87.3429 122.049C87.3288 122.016 87.3216 121.98 87.3216 121.943C87.3216 121.87 87.3509 121.799 87.403 121.747C87.4551 121.695 87.5258 121.666 87.5994 121.666H89.8127C89.849 121.666 89.8849 121.673 89.9183 121.687C89.9518 121.701 89.9821 121.721 90.0075 121.747C90.033 121.773 90.053 121.804 90.0665 121.837C90.0799 121.871 90.0865 121.907 90.0859 121.943C90.0865 121.979 90.0799 122.015 90.0664 122.049C90.0529 122.082 90.0328 122.112 90.0073 122.138C89.9818 122.163 89.9514 122.184 89.918 122.197C89.8846 122.211 89.8488 122.217 89.8127 122.217H89.8359ZM85.4093 122.217H83.196C83.1598 122.217 83.1237 122.211 83.0901 122.197C83.0564 122.184 83.0257 122.164 82.9999 122.138C82.974 122.113 82.9535 122.082 82.9394 122.049C82.9254 122.016 82.9182 121.98 82.9182 121.943C82.9182 121.87 82.9475 121.799 82.9996 121.747C83.0517 121.695 83.1224 121.666 83.196 121.666H85.4093C85.4456 121.666 85.4815 121.673 85.5149 121.687C85.5484 121.701 85.5787 121.721 85.6041 121.747C85.6296 121.773 85.6496 121.804 85.663 121.837C85.6765 121.871 85.6831 121.907 85.6825 121.943C85.6834 121.981 85.6761 122.019 85.6612 122.054C85.6463 122.09 85.6241 122.121 85.596 122.147C85.568 122.173 85.5348 122.192 85.4986 122.204C85.4624 122.216 85.4241 122.221 85.3862 122.217H85.4093ZM80.9827 122.217H78.7695C78.7332 122.217 78.6972 122.211 78.6635 122.197C78.6298 122.184 78.5992 122.164 78.5733 122.138C78.5474 122.113 78.5269 122.082 78.5129 122.049C78.4989 122.016 78.4917 121.98 78.4917 121.943C78.4917 121.87 78.5209 121.799 78.573 121.747C78.6251 121.695 78.6958 121.666 78.7695 121.666H80.9827C81.0564 121.666 81.1271 121.695 81.1792 121.747C81.2313 121.799 81.2606 121.87 81.2606 121.943C81.2608 121.982 81.2529 122.02 81.2375 122.055C81.222 122.09 81.1994 122.121 81.171 122.147C81.1426 122.173 81.1091 122.192 81.0727 122.204C81.0363 122.216 80.9977 122.22 80.9596 122.217H80.9827ZM76.5562 122.217H74.3429C74.3066 122.217 74.2706 122.211 74.2369 122.197C74.2033 122.184 74.1726 122.164 74.1467 122.138C74.1209 122.113 74.1003 122.082 74.0863 122.049C74.0723 122.016 74.0651 121.98 74.0651 121.943C74.0651 121.87 74.0944 121.799 74.1465 121.747C74.1986 121.695 74.2692 121.666 74.3429 121.666H76.5562C76.5927 121.666 76.6288 121.673 76.6625 121.687C76.6962 121.701 76.7268 121.721 76.7526 121.747C76.7784 121.773 76.7989 121.803 76.8129 121.837C76.8268 121.871 76.834 121.907 76.834 121.943C76.8342 121.982 76.8263 122.02 76.8109 122.055C76.7955 122.09 76.7728 122.121 76.7444 122.147C76.716 122.173 76.6826 122.192 76.6461 122.204C76.6097 122.216 76.5712 122.22 76.533 122.217H76.5562ZM72.1296 122.217H69.9163C69.8803 122.217 69.8445 122.211 69.8111 122.197C69.7776 122.184 69.7473 122.163 69.7218 122.138C69.6963 122.112 69.6762 122.082 69.6627 122.049C69.6492 122.015 69.6425 121.979 69.6432 121.943C69.6425 121.907 69.6492 121.871 69.6626 121.837C69.6761 121.804 69.6961 121.773 69.7215 121.747C69.747 121.721 69.7773 121.701 69.8107 121.687C69.8442 121.673 69.8801 121.666 69.9163 121.666H72.1296C72.2033 121.666 72.274 121.695 72.3261 121.747C72.3782 121.799 72.4074 121.87 72.4074 121.943C72.4076 121.982 72.3998 122.02 72.3843 122.055C72.3689 122.09 72.3463 122.121 72.3179 122.147C72.2895 122.173 72.256 122.192 72.2196 122.204C72.1831 122.216 72.1446 122.22 72.1065 122.217H72.1296ZM67.7031 122.217H65.4944C65.4582 122.217 65.4221 122.211 65.3885 122.197C65.3548 122.184 65.3241 122.164 65.2983 122.138C65.2724 122.113 65.2518 122.082 65.2378 122.049C65.2238 122.016 65.2166 121.98 65.2166 121.943C65.2166 121.87 65.2459 121.799 65.298 121.747C65.3501 121.695 65.4207 121.666 65.4944 121.666H67.7031C67.7396 121.666 67.7757 121.673 67.8094 121.687C67.8431 121.701 67.8737 121.721 67.8995 121.747C67.9253 121.773 67.9458 121.803 67.9597 121.837C67.9737 121.871 67.9809 121.907 67.9809 121.943C67.9811 121.982 67.9732 122.02 67.9578 122.055C67.9424 122.09 67.9197 122.121 67.8913 122.147C67.8629 122.173 67.8294 122.192 67.793 122.204C67.7566 122.216 67.7181 122.22 67.6799 122.217H67.7031ZM63.2811 122.217H61.0679C61.0316 122.217 60.9956 122.211 60.9619 122.197C60.9282 122.184 60.8976 122.164 60.8717 122.138C60.8458 122.113 60.8253 122.082 60.8113 122.049C60.7973 122.016 60.79 121.98 60.79 121.943C60.79 121.87 60.8193 121.799 60.8714 121.747C60.9235 121.695 60.9942 121.666 61.0679 121.666H63.2811C63.3174 121.666 63.3533 121.673 63.3868 121.687C63.4202 121.701 63.4506 121.721 63.476 121.747C63.5014 121.773 63.5214 121.804 63.5349 121.837C63.5483 121.871 63.5549 121.907 63.5543 121.943C63.5552 121.981 63.5479 122.019 63.533 122.054C63.5181 122.09 63.4959 122.121 63.4679 122.147C63.4398 122.173 63.4066 122.192 63.3704 122.204C63.3343 122.216 63.2959 122.221 63.258 122.217H63.2811ZM58.8546 122.217H56.6413C56.605 122.217 56.569 122.211 56.5353 122.197C56.5017 122.184 56.471 122.164 56.4451 122.138C56.4193 122.113 56.3987 122.082 56.3847 122.049C56.3707 122.016 56.3635 121.98 56.3635 121.943C56.3635 121.87 56.3928 121.799 56.4449 121.747C56.497 121.695 56.5676 121.666 56.6413 121.666H58.8546C58.9283 121.666 58.9989 121.695 59.051 121.747C59.1031 121.799 59.1324 121.87 59.1324 121.943C59.1326 121.982 59.1247 122.02 59.1093 122.055C59.0939 122.09 59.0712 122.121 59.0428 122.147C59.0144 122.173 58.981 122.192 58.9445 122.204C58.9081 122.216 58.8696 122.22 58.8314 122.217H58.8546ZM54.5994 121.596C54.5622 121.597 54.5253 121.59 54.4911 121.575C54.4568 121.561 54.4259 121.54 54.4002 121.513C53.9788 121.075 53.7459 120.49 53.752 119.883C53.752 119.832 53.752 119.781 53.752 119.73L53.7798 119.239C53.7821 119.203 53.7917 119.167 53.8079 119.134C53.824 119.101 53.8466 119.072 53.8741 119.048C53.9016 119.024 53.9336 119.006 53.9683 118.994C54.003 118.982 54.0396 118.977 54.0761 118.98C54.1124 118.982 54.148 118.991 54.1808 119.006C54.2136 119.022 54.2429 119.044 54.2671 119.071C54.2912 119.099 54.3097 119.13 54.3214 119.165C54.3332 119.199 54.3379 119.235 54.3354 119.272L54.303 119.762C54.3006 119.803 54.3006 119.843 54.303 119.883C54.2993 120.347 54.4771 120.794 54.7985 121.128C54.8338 121.168 54.8571 121.217 54.8657 121.269C54.8742 121.321 54.8676 121.375 54.8467 121.424C54.8258 121.472 54.7914 121.514 54.7475 121.544C54.7037 121.573 54.6523 121.59 54.5994 121.591V121.596ZM109.065 120.642C109.035 120.648 109.003 120.648 108.973 120.642C108.939 120.63 108.907 120.612 108.88 120.588C108.853 120.563 108.831 120.534 108.816 120.501C108.8 120.468 108.791 120.433 108.79 120.397C108.788 120.361 108.794 120.324 108.806 120.29C108.871 120.115 108.908 119.931 108.917 119.744L109.019 118.17C109.017 118.131 109.024 118.092 109.038 118.055C109.053 118.019 109.075 117.986 109.103 117.959C109.131 117.932 109.164 117.91 109.201 117.897C109.237 117.883 109.276 117.878 109.315 117.88C109.354 117.883 109.392 117.894 109.427 117.912C109.461 117.93 109.492 117.956 109.516 117.987C109.54 118.017 109.557 118.053 109.566 118.091C109.576 118.129 109.577 118.168 109.57 118.207L109.473 119.781C109.455 120.018 109.407 120.251 109.329 120.476C109.305 120.53 109.264 120.576 109.213 120.606C109.161 120.635 109.102 120.648 109.042 120.642H109.065ZM54.178 117.336C54.1417 117.334 54.1061 117.325 54.0733 117.31C54.0405 117.294 54.0112 117.272 53.987 117.245C53.9629 117.218 53.9444 117.186 53.9327 117.152C53.9209 117.117 53.9162 117.081 53.9187 117.045L54.0576 114.836C54.0624 114.763 54.0957 114.695 54.1503 114.646C54.2049 114.598 54.2764 114.573 54.3493 114.577C54.3856 114.578 54.4212 114.587 54.454 114.603C54.4868 114.619 54.5161 114.641 54.5403 114.668C54.5644 114.695 54.5829 114.727 54.5946 114.761C54.6064 114.796 54.6111 114.832 54.6086 114.868L54.4697 117.077C54.4679 117.113 54.4589 117.149 54.4433 117.182C54.4276 117.214 54.4055 117.244 54.3783 117.268C54.3512 117.292 54.3195 117.31 54.2851 117.322C54.2507 117.334 54.2143 117.339 54.178 117.336ZM109.408 116.253C109.335 116.247 109.267 116.213 109.218 116.157C109.17 116.102 109.145 116.03 109.149 115.956L109.288 113.748C109.286 113.709 109.293 113.67 109.307 113.633C109.321 113.597 109.343 113.564 109.371 113.537C109.399 113.51 109.433 113.489 109.469 113.475C109.506 113.462 109.545 113.456 109.584 113.459C109.623 113.461 109.661 113.472 109.695 113.49C109.73 113.509 109.76 113.534 109.784 113.565C109.808 113.595 109.826 113.631 109.835 113.669C109.844 113.707 109.846 113.746 109.839 113.785L109.704 115.993C109.695 116.064 109.66 116.129 109.605 116.174C109.55 116.22 109.479 116.243 109.408 116.239V116.253ZM54.4512 112.919C54.4149 112.917 54.3793 112.908 54.3465 112.892C54.3137 112.877 54.2844 112.855 54.2602 112.828C54.2361 112.8 54.2176 112.769 54.2059 112.734C54.1941 112.7 54.1894 112.663 54.1919 112.627L54.3262 110.419C54.3332 110.346 54.3678 110.278 54.4229 110.23C54.4779 110.182 54.5494 110.157 54.6225 110.159C54.6954 110.164 54.7635 110.197 54.812 110.252C54.8605 110.307 54.8856 110.378 54.8818 110.451L54.7429 112.66C54.7358 112.73 54.7014 112.796 54.6469 112.842C54.5924 112.887 54.5222 112.91 54.4512 112.905V112.919ZM109.686 111.835C109.649 111.833 109.614 111.824 109.581 111.807C109.548 111.791 109.519 111.769 109.495 111.741C109.471 111.714 109.452 111.682 109.441 111.647C109.429 111.612 109.424 111.576 109.427 111.539L109.566 109.33C109.564 109.291 109.57 109.252 109.585 109.216C109.599 109.18 109.621 109.147 109.649 109.12C109.677 109.092 109.71 109.071 109.747 109.058C109.784 109.044 109.823 109.039 109.862 109.041C109.901 109.044 109.939 109.055 109.973 109.073C110.008 109.091 110.038 109.117 110.062 109.147C110.086 109.178 110.103 109.214 110.113 109.252C110.122 109.29 110.123 109.329 110.117 109.367L109.978 111.576C109.969 111.647 109.935 111.711 109.881 111.757C109.826 111.802 109.757 111.826 109.686 111.822V111.835ZM54.729 108.492C54.6927 108.491 54.6571 108.482 54.6243 108.466C54.5915 108.45 54.5622 108.428 54.5381 108.401C54.5139 108.374 54.4954 108.342 54.4837 108.308C54.4719 108.273 54.4672 108.237 54.4697 108.201L54.6086 105.992C54.6069 105.953 54.6135 105.914 54.6279 105.878C54.6422 105.841 54.6641 105.808 54.6921 105.781C54.72 105.754 54.7534 105.733 54.7901 105.719C54.8267 105.706 54.8658 105.7 54.9048 105.703C54.9438 105.705 54.9818 105.716 55.0163 105.734C55.0508 105.753 55.0811 105.778 55.1051 105.809C55.1292 105.84 55.1465 105.875 55.1558 105.913C55.1652 105.951 55.1665 105.991 55.1596 106.029L55.0253 108.238C55.0183 108.31 54.9835 108.377 54.9283 108.425C54.8731 108.472 54.8017 108.496 54.729 108.492ZM109.959 107.404C109.886 107.398 109.818 107.364 109.769 107.309C109.721 107.253 109.696 107.181 109.7 107.108L109.839 104.899C109.845 104.826 109.879 104.758 109.934 104.709C109.99 104.661 110.062 104.636 110.135 104.64C110.172 104.642 110.207 104.652 110.24 104.668C110.273 104.684 110.302 104.707 110.326 104.734C110.35 104.762 110.369 104.794 110.38 104.828C110.392 104.863 110.397 104.9 110.394 104.936L110.255 107.145C110.25 107.218 110.215 107.286 110.16 107.335C110.105 107.383 110.033 107.408 109.959 107.404ZM55.0022 104.075C54.9659 104.073 54.9303 104.064 54.8975 104.049C54.8647 104.033 54.8354 104.011 54.8112 103.984C54.7871 103.957 54.7686 103.925 54.7569 103.89C54.7451 103.856 54.7404 103.82 54.7429 103.783L54.8818 101.575C54.8836 101.538 54.8925 101.503 54.9082 101.47C54.9239 101.437 54.946 101.408 54.9732 101.384C55.0003 101.36 55.0321 101.341 55.0665 101.329C55.1009 101.318 55.1372 101.313 55.1735 101.315C55.21 101.318 55.2457 101.327 55.2785 101.343C55.3113 101.36 55.3406 101.382 55.3647 101.41C55.3888 101.437 55.4072 101.469 55.4189 101.504C55.4306 101.539 55.4353 101.575 55.4328 101.612L55.2939 103.82C55.288 103.892 55.2542 103.959 55.1997 104.007C55.1452 104.054 55.0744 104.079 55.0022 104.075ZM110.237 102.982C110.2 102.98 110.165 102.97 110.132 102.954C110.099 102.938 110.07 102.916 110.046 102.888C110.022 102.86 110.003 102.828 109.992 102.794C109.98 102.759 109.975 102.722 109.978 102.686L110.117 100.477C110.115 100.438 110.121 100.399 110.136 100.363C110.15 100.327 110.172 100.294 110.2 100.267C110.228 100.239 110.261 100.218 110.298 100.205C110.335 100.191 110.374 100.185 110.413 100.188C110.452 100.191 110.49 100.202 110.524 100.22C110.559 100.238 110.589 100.263 110.613 100.294C110.637 100.325 110.654 100.361 110.664 100.399C110.673 100.436 110.674 100.476 110.668 100.514L110.529 102.723C110.524 102.796 110.491 102.864 110.436 102.913C110.381 102.961 110.31 102.986 110.237 102.982ZM55.28 99.6578C55.2071 99.653 55.139 99.6197 55.0905 99.5651C55.042 99.5105 55.0169 99.439 55.0207 99.3661L55.1596 97.1574C55.1645 97.0837 55.1985 97.015 55.2541 96.9664C55.3097 96.9178 55.3823 96.8932 55.456 96.8981C55.5296 96.903 55.5983 96.937 55.647 96.9926C55.6956 97.0482 55.7202 97.1208 55.7152 97.1944L55.5763 99.4031C55.5693 99.4755 55.5345 99.5425 55.4793 99.5899C55.4241 99.6374 55.3527 99.6617 55.28 99.6578ZM110.51 98.5696C110.474 98.5673 110.438 98.5577 110.405 98.5416C110.372 98.5254 110.343 98.5029 110.319 98.4753C110.295 98.4478 110.276 98.4158 110.265 98.3811C110.253 98.3464 110.248 98.3098 110.251 98.2733L110.39 96.0647C110.402 95.9973 110.438 95.9369 110.492 95.8948C110.546 95.8527 110.614 95.832 110.682 95.8365C110.75 95.8411 110.814 95.8707 110.862 95.9196C110.91 95.9686 110.938 96.0334 110.941 96.1017L110.802 98.3103C110.797 98.3832 110.764 98.4513 110.709 98.4999C110.655 98.5484 110.583 98.5735 110.51 98.5696ZM55.5578 95.2405C55.4845 95.2345 55.4164 95.2003 55.368 95.1449C55.3196 95.0896 55.2947 95.0176 55.2985 94.9441L55.4374 92.7355C55.4357 92.6964 55.4423 92.6575 55.4567 92.6212C55.4711 92.5848 55.4929 92.552 55.5209 92.5247C55.5488 92.4974 55.5822 92.4763 55.6189 92.4628C55.6555 92.4493 55.6946 92.4436 55.7336 92.4462C55.7726 92.4489 55.8106 92.4597 55.8451 92.478C55.8796 92.4963 55.9099 92.5216 55.9339 92.5524C55.958 92.5832 55.9753 92.6187 55.9847 92.6567C55.994 92.6946 55.9953 92.7341 55.9884 92.7725L55.8495 94.9812C55.8448 95.0541 55.8115 95.1221 55.7569 95.1707C55.7023 95.2192 55.6308 95.2443 55.5578 95.2405ZM110.788 94.1523C110.751 94.15 110.716 94.1404 110.683 94.1243C110.65 94.1081 110.621 94.0856 110.597 94.058C110.573 94.0305 110.554 93.9985 110.543 93.9638C110.531 93.9291 110.526 93.8925 110.529 93.856L110.668 91.6474C110.675 91.5757 110.709 91.5095 110.763 91.4622C110.817 91.4148 110.887 91.39 110.959 91.3927C110.996 91.3945 111.031 91.4034 111.064 91.4191C111.097 91.4348 111.126 91.4569 111.15 91.4841C111.174 91.5112 111.193 91.5429 111.205 91.5773C111.216 91.6117 111.221 91.6481 111.219 91.6844L111.084 93.893C111.082 93.9296 111.072 93.9652 111.056 93.9981C111.04 94.0309 111.018 94.0602 110.99 94.0843C110.962 94.1084 110.93 94.1268 110.896 94.1384C110.861 94.1501 110.824 94.1549 110.788 94.1523ZM55.831 90.8232C55.7945 90.8208 55.7588 90.8113 55.726 90.7951C55.6932 90.7789 55.6639 90.7564 55.6398 90.7289C55.6157 90.7013 55.5973 90.6693 55.5856 90.6346C55.5739 90.6 55.5692 90.5633 55.5717 90.5268L55.706 88.3182C55.713 88.2453 55.7476 88.1779 55.8027 88.1297C55.8578 88.0815 55.9292 88.0562 56.0023 88.0589C56.0388 88.0612 56.0745 88.0708 56.1073 88.087C56.1402 88.1031 56.1695 88.1256 56.1935 88.1532C56.2176 88.1807 56.2361 88.2127 56.2477 88.2474C56.2594 88.2821 56.2641 88.3187 56.2616 88.3552L56.1227 90.5639C56.1179 90.6368 56.0847 90.7048 56.0301 90.7534C55.9755 90.8019 55.904 90.827 55.831 90.8232ZM111.029 89.7351C110.962 89.7345 110.897 89.7099 110.847 89.6657C110.797 89.6214 110.764 89.5606 110.756 89.4943C110.713 89.1771 110.585 88.8776 110.384 88.6285C110.183 88.3795 109.918 88.1904 109.616 88.082C109.548 88.056 109.492 88.0041 109.461 87.9376C109.43 87.871 109.426 87.7949 109.45 87.7255C109.462 87.6913 109.48 87.6598 109.505 87.6328C109.529 87.6058 109.558 87.584 109.591 87.5685C109.624 87.5529 109.659 87.5441 109.695 87.5424C109.731 87.5408 109.768 87.5464 109.802 87.5588C110.196 87.7025 110.544 87.9507 110.808 88.277C111.073 88.6032 111.243 88.9952 111.302 89.4109C111.308 89.4469 111.306 89.4838 111.297 89.5192C111.289 89.5546 111.273 89.5878 111.251 89.6168C111.228 89.6459 111.201 89.6701 111.169 89.688C111.137 89.7059 111.102 89.7172 111.066 89.7211L111.029 89.7351ZM107.51 87.9709H105.287C105.251 87.9709 105.215 87.9637 105.182 87.9497C105.148 87.9357 105.118 87.9151 105.092 87.8893C105.067 87.8634 105.047 87.8327 105.033 87.7991C105.02 87.7654 105.013 87.7294 105.014 87.6931C105.013 87.657 105.02 87.6212 105.033 87.5878C105.047 87.5544 105.067 87.524 105.093 87.4985C105.118 87.473 105.148 87.4529 105.182 87.4394C105.215 87.4259 105.251 87.4193 105.287 87.4199H107.5C107.537 87.4193 107.573 87.4259 107.606 87.4394C107.64 87.4528 107.671 87.4728 107.697 87.4983C107.722 87.5237 107.743 87.554 107.757 87.5875C107.771 87.6209 107.778 87.6568 107.778 87.6931C107.778 87.7296 107.771 87.7657 107.757 87.7994C107.743 87.8331 107.723 87.8637 107.697 87.8895C107.671 87.9153 107.64 87.9358 107.607 87.9498C107.573 87.9637 107.537 87.9709 107.5 87.9709H107.51ZM103.088 87.9709H100.874C100.838 87.9709 100.802 87.9637 100.768 87.9498C100.734 87.9358 100.704 87.9153 100.678 87.8895C100.652 87.8637 100.632 87.8331 100.618 87.7994C100.604 87.7657 100.597 87.7296 100.597 87.6931C100.597 87.6568 100.604 87.6209 100.618 87.5875C100.632 87.554 100.652 87.5237 100.678 87.4983C100.704 87.4728 100.735 87.4528 100.769 87.4394C100.802 87.4259 100.838 87.4193 100.874 87.4199H103.088C103.124 87.4193 103.16 87.4259 103.193 87.4394C103.226 87.4529 103.257 87.473 103.282 87.4985C103.308 87.524 103.328 87.5544 103.341 87.5878C103.355 87.6212 103.362 87.657 103.361 87.6931C103.362 87.7301 103.355 87.7669 103.341 87.8012C103.327 87.8356 103.306 87.8667 103.279 87.8926C103.253 87.9186 103.222 87.939 103.187 87.9524C103.152 87.9659 103.116 87.9722 103.078 87.9709H103.088ZM98.6612 87.9709H96.4479C96.4114 87.9709 96.3753 87.9637 96.3416 87.9498C96.3079 87.9358 96.2773 87.9153 96.2515 87.8895C96.2257 87.8637 96.2052 87.8331 96.1912 87.7994C96.1773 87.7657 96.1701 87.7296 96.1701 87.6931C96.1701 87.6568 96.1773 87.6209 96.1913 87.5875C96.2054 87.554 96.2259 87.5237 96.2518 87.4983C96.2776 87.4728 96.3083 87.4528 96.342 87.4394C96.3756 87.4259 96.4117 87.4193 96.4479 87.4199H98.6612C98.6973 87.4193 98.7331 87.4259 98.7665 87.4394C98.7999 87.4529 98.8303 87.473 98.8558 87.4985C98.8813 87.524 98.9014 87.5544 98.9149 87.5878C98.9284 87.6212 98.935 87.657 98.9344 87.6931C98.935 87.7301 98.9281 87.7669 98.9141 87.8012C98.9001 87.8356 98.8792 87.8667 98.8528 87.8926C98.8264 87.9186 98.795 87.939 98.7604 87.9524C98.7259 87.9659 98.689 87.9722 98.6519 87.9709H98.6612ZM94.2347 87.9709H92.0214C91.9849 87.9709 91.9488 87.9637 91.9151 87.9498C91.8814 87.9358 91.8507 87.9153 91.8249 87.8895C91.7991 87.8637 91.7787 87.8331 91.7647 87.7994C91.7507 87.7657 91.7436 87.7296 91.7436 87.6931C91.7435 87.6568 91.7508 87.6209 91.7648 87.5875C91.7788 87.554 91.7993 87.5237 91.8252 87.4983C91.8511 87.4728 91.8817 87.4528 91.9154 87.4394C91.9491 87.4259 91.9851 87.4193 92.0214 87.4199H94.2347C94.2709 87.4193 94.3069 87.4259 94.3406 87.4394C94.3743 87.4528 94.405 87.4728 94.4308 87.4983C94.4567 87.5237 94.4772 87.554 94.4912 87.5875C94.5053 87.6209 94.5125 87.6568 94.5125 87.6931C94.5125 87.7304 94.505 87.7673 94.4905 87.8016C94.4759 87.8359 94.4546 87.867 94.4278 87.8929C94.4011 87.9188 94.3693 87.9391 94.3346 87.9525C94.2998 87.9659 94.2626 87.9721 94.2254 87.9709H94.2347ZM89.8081 87.9709H87.5948C87.5583 87.9709 87.5222 87.9637 87.4885 87.9498C87.4548 87.9358 87.4242 87.9153 87.3984 87.8895C87.3726 87.8637 87.3521 87.8331 87.3381 87.7994C87.3242 87.7657 87.317 87.7296 87.317 87.6931C87.317 87.6568 87.3242 87.6209 87.3382 87.5875C87.3522 87.554 87.3728 87.5237 87.3986 87.4983C87.4245 87.4728 87.4552 87.4528 87.4888 87.4394C87.5225 87.4259 87.5586 87.4193 87.5948 87.4199H89.8081C89.8444 87.4193 89.8804 87.4259 89.9141 87.4394C89.9477 87.4528 89.9784 87.4728 90.0043 87.4983C90.0301 87.5237 90.0507 87.554 90.0647 87.5875C90.0787 87.6209 90.0859 87.6568 90.0859 87.6931C90.0859 87.7304 90.0785 87.7673 90.0639 87.8016C90.0494 87.8359 90.0281 87.867 90.0013 87.8929C89.9745 87.9188 89.9428 87.9391 89.908 87.9525C89.8732 87.9659 89.8361 87.9721 89.7988 87.9709H89.8081ZM85.3815 87.9709H83.1682C83.132 87.9709 83.0961 87.9637 83.0626 87.9497C83.0292 87.9357 82.9989 87.9151 82.9734 87.8893C82.948 87.8634 82.928 87.8327 82.9145 87.7991C82.9011 87.7654 82.8944 87.7294 82.8951 87.6931C82.8944 87.657 82.9011 87.6212 82.9146 87.5878C82.9281 87.5544 82.9482 87.524 82.9737 87.4985C82.9992 87.473 83.0295 87.4529 83.063 87.4394C83.0964 87.4259 83.1322 87.4193 83.1682 87.4199H85.3815C85.4178 87.4193 85.4538 87.4259 85.4875 87.4394C85.5212 87.4528 85.5518 87.4728 85.5777 87.4983C85.6036 87.5237 85.6241 87.554 85.6381 87.5875C85.6521 87.6209 85.6593 87.6568 85.6593 87.6931C85.6594 87.7304 85.6519 87.7673 85.6374 87.8016C85.6228 87.8359 85.6015 87.867 85.5747 87.8929C85.5479 87.9188 85.5162 87.9391 85.4814 87.9525C85.4466 87.9659 85.4095 87.9721 85.3723 87.9709H85.3815ZM80.9596 87.9709H80.9318C80.1505 87.9127 79.3931 87.675 78.7185 87.2764C78.6792 87.2629 78.6433 87.2408 78.6136 87.2117C78.5839 87.1825 78.5612 87.1471 78.547 87.1079C78.5329 87.0688 78.5277 87.027 78.5318 86.9856C78.536 86.9442 78.5494 86.9043 78.5711 86.8688C78.5928 86.8332 78.6221 86.803 78.657 86.7804C78.6919 86.7577 78.7315 86.7432 78.7727 86.7379C78.814 86.7326 78.8559 86.7366 78.8954 86.7497C78.9349 86.7627 78.971 86.7845 79.001 86.8133C79.6024 87.1681 80.2772 87.3804 80.9735 87.4338C81.0098 87.4361 81.0453 87.4457 81.0779 87.4619C81.1105 87.4782 81.1395 87.5008 81.1632 87.5284C81.1869 87.556 81.2049 87.588 81.216 87.6227C81.2272 87.6573 81.2313 87.6939 81.2282 87.7301C81.2158 87.798 81.1785 87.8588 81.1238 87.9007C81.069 87.9427 81.0006 87.9627 80.9318 87.957L80.9596 87.9709ZM56.1181 86.4198C56.0816 86.4174 56.0459 86.4079 56.0131 86.3917C55.9803 86.3755 55.951 86.353 55.9269 86.3255C55.9028 86.2979 55.8844 86.2659 55.8727 86.2312C55.861 86.1966 55.8563 86.1599 55.8588 86.1234L55.9792 84.2018C55.9792 84.0969 55.9931 83.9904 56.0208 83.8824C56.024 83.8434 56.0354 83.8055 56.0542 83.7712C56.0731 83.7369 56.0989 83.707 56.1301 83.6834C56.1613 83.6598 56.1972 83.643 56.2353 83.6343C56.2734 83.6255 56.3129 83.6248 56.3513 83.6324C56.3897 83.6399 56.4261 83.6555 56.458 83.678C56.49 83.7006 56.5168 83.7297 56.5367 83.7633C56.5567 83.797 56.5693 83.8345 56.5738 83.8733C56.5782 83.9122 56.5744 83.9516 56.5626 83.9889C56.5485 84.07 56.5392 84.152 56.5348 84.2343L56.4144 86.1605C56.4041 86.2325 56.3668 86.2979 56.31 86.3434C56.2533 86.389 56.1814 86.4113 56.1088 86.4059L56.1181 86.4198ZM77.2878 85.79C77.2416 85.7913 77.196 85.7804 77.1553 85.7584C77.1147 85.7365 77.0805 85.7043 77.0563 85.665C76.6884 85.0899 76.4425 84.4453 76.3339 83.7712C76.2833 83.4537 76.1463 83.1563 75.9381 82.9113C75.7299 82.6664 75.4584 82.4833 75.1532 82.3821C75.0865 82.3568 75.0322 82.3068 75.0014 82.2425C74.9705 82.1782 74.9656 82.1045 74.9877 82.0367C75.0097 81.9688 75.0569 81.9121 75.1196 81.8781C75.1823 81.8442 75.2557 81.8356 75.3245 81.8543C75.7251 81.987 76.0817 82.2267 76.3559 82.5474C76.6301 82.8681 76.8114 83.2577 76.8803 83.674C76.9778 84.273 77.1952 84.8463 77.5193 85.3594C77.539 85.3898 77.5524 85.4237 77.5589 85.4593C77.5654 85.4949 77.5647 85.5314 77.5569 85.5667C77.5492 85.602 77.5345 85.6354 77.5137 85.665C77.493 85.6946 77.4665 85.7198 77.436 85.7391C77.3881 85.7663 77.3335 85.7791 77.2785 85.7761L77.2878 85.79ZM57.5813 82.5257C57.5176 82.5282 57.4551 82.5084 57.4046 82.4698C57.354 82.4311 57.3185 82.376 57.3042 82.314C57.2899 82.2519 57.2978 82.1868 57.3264 82.13C57.355 82.0731 57.4026 82.028 57.4609 82.0025C57.8066 81.8323 58.1868 81.7436 58.5721 81.7432H59.7621C59.8358 81.7432 59.9065 81.7724 59.9586 81.8245C60.0107 81.8766 60.0399 81.9473 60.0399 82.021C60.0399 82.0947 60.0107 82.1653 59.9586 82.2174C59.9065 82.2695 59.8358 82.2988 59.7621 82.2988H58.5721C58.2706 82.2979 57.9728 82.366 57.7016 82.4979C57.6602 82.5131 57.6157 82.5179 57.572 82.5118L57.5813 82.5257ZM73.0372 82.2988H70.8239C70.7502 82.2988 70.6795 82.2695 70.6274 82.2174C70.5753 82.1653 70.5461 82.0947 70.5461 82.021C70.5461 81.9473 70.5753 81.8766 70.6274 81.8245C70.6795 81.7724 70.7502 81.7432 70.8239 81.7432H73.0372C73.1109 81.7432 73.1815 81.7724 73.2336 81.8245C73.2857 81.8766 73.315 81.9473 73.315 82.021C73.315 82.0947 73.2857 82.1653 73.2336 82.2174C73.1815 82.2695 73.1109 82.2988 73.0372 82.2988ZM68.6106 82.2988H66.3973C66.3236 82.2988 66.253 82.2695 66.2009 82.2174C66.1488 82.1653 66.1195 82.0947 66.1195 82.021C66.1195 81.9473 66.1488 81.8766 66.2009 81.8245C66.253 81.7724 66.3236 81.7432 66.3973 81.7432H68.6106C68.6843 81.7432 68.755 81.7724 68.8071 81.8245C68.8592 81.8766 68.8884 81.9473 68.8884 82.021C68.8884 82.0947 68.8592 82.1653 68.8071 82.2174C68.755 82.2695 68.6843 82.2988 68.6106 82.2988ZM64.184 82.2988H61.9476C61.8739 82.2988 61.8033 82.2695 61.7512 82.2174C61.6991 82.1653 61.6698 82.0947 61.6698 82.021C61.6698 81.9473 61.6991 81.8766 61.7512 81.8245C61.8033 81.7724 61.8739 81.7432 61.9476 81.7432H64.1563C64.2299 81.7432 64.3006 81.7724 64.3527 81.8245C64.4048 81.8766 64.4341 81.9473 64.4341 82.021C64.4341 82.0947 64.4048 82.1653 64.3527 82.2174C64.3006 82.2695 64.2299 82.2988 64.1563 82.2988H64.184Z" fill="#095FD2"/>
<path d="M88.5604 112.466C92.4555 108.692 92.7378 102.665 89.191 99.0048C85.6443 95.3448 79.6115 95.4377 75.7164 99.2123C71.8214 102.987 71.539 109.014 75.0858 112.674C78.6326 116.334 84.6654 116.241 88.5604 112.466Z" fill="#095FD2"/>
<path d="M81.4226 99.0743H83.71C83.821 99.0726 83.9312 99.0942 84.0334 99.1377C84.1356 99.1811 84.2276 99.2454 84.3035 99.3266C84.3793 99.4077 84.4374 99.5037 84.4739 99.6086C84.5105 99.7135 84.5247 99.8249 84.5156 99.9355L84.3814 102.098C84.3833 102.133 84.3833 102.169 84.3814 102.204L83.3719 107.571C83.3324 107.781 83.2213 107.971 83.0576 108.109C82.8938 108.246 82.6875 108.323 82.4737 108.326H81.5198C81.3136 108.328 81.1142 108.251 80.9633 108.111C80.8123 107.97 80.7214 107.777 80.7095 107.571L80.39 102.2V102.098L80.5243 99.9355C80.5403 99.7061 80.6412 99.4908 80.8072 99.3316C80.9733 99.1724 81.1926 99.0807 81.4226 99.0743ZM81.1818 109.506H82.6496C82.7607 109.505 82.8708 109.526 82.9731 109.57C83.0753 109.613 83.1673 109.677 83.2431 109.759C83.319 109.84 83.3771 109.936 83.4136 110.041C83.4502 110.146 83.4644 110.257 83.4553 110.368L83.3858 111.465C83.3694 111.699 83.2646 111.918 83.0927 112.078C82.9208 112.238 82.6946 112.327 82.4598 112.326H80.992C80.8811 112.327 80.7713 112.305 80.6694 112.261C80.5675 112.218 80.4758 112.153 80.4001 112.072C80.3244 111.991 80.2663 111.896 80.2295 111.791C80.1927 111.687 80.178 111.576 80.1863 111.465L80.2558 110.368C80.2722 110.133 80.377 109.914 80.5489 109.754C80.7208 109.594 80.9471 109.506 81.1818 109.506Z" fill="white"/>
<path d="M92.9937 46.3168L90.2155 44.2887L95.3737 37.1766C95.9723 36.3438 96.3999 35.4007 96.632 34.4017C96.864 33.4027 96.8959 32.3677 96.7257 31.3563C96.5737 30.4731 96.2457 29.6294 95.7613 28.8754C95.2769 28.1213 94.6459 27.4723 93.9059 26.9668C90.6184 24.7443 85.9279 25.7537 83.4553 29.2264L81.5476 31.9073L78.7371 29.907L80.6447 27.2261C84.1962 22.2393 91.012 20.8409 95.8414 24.1099C96.9624 24.8728 97.9179 25.854 98.6507 26.995C99.3835 28.1359 99.8784 29.413 100.106 30.7498C100.358 32.2169 100.315 33.7194 99.9813 35.17C99.6475 36.6207 99.0288 37.9905 98.1611 39.2L92.9937 46.3168Z" fill="#9AA4B1"/>
<path d="M95.2348 65.088H74.1392C73.588 65.0934 73.0417 64.9843 72.5349 64.7676C72.0281 64.5509 71.5718 64.2314 71.1949 63.8292C70.818 63.4271 70.5286 62.951 70.3452 62.4312C70.1618 61.9115 70.0883 61.3593 70.1293 60.8096L70.9443 47.7661C71.0318 46.6151 71.5462 45.5383 72.3865 44.7468C73.2268 43.9554 74.3324 43.5063 75.4866 43.4877H96.5868C97.1378 43.483 97.6837 43.5926 98.1902 43.8095C98.6967 44.0264 99.1527 44.346 99.5295 44.748C99.9063 45.15 100.196 45.6258 100.379 46.1452C100.563 46.6647 100.637 47.2166 100.597 47.7661L99.7817 60.8096C99.6941 61.9614 99.1791 63.0388 98.3378 63.8304C97.4965 64.622 96.3898 65.0705 95.2348 65.088Z" fill="#BBC6CF"/>
<path d="M88.4283 51.4981C88.4565 51.1261 88.4071 50.7523 88.2832 50.4004C88.1593 50.0486 87.9635 49.7263 87.7083 49.4542C87.4531 49.182 87.1441 48.9659 86.801 48.8196C86.4578 48.6733 86.0879 48.5999 85.7149 48.6042C84.9336 48.6138 84.1843 48.9166 83.6158 49.4526C83.0472 49.9886 82.7007 50.7187 82.645 51.4981C82.6037 52.0187 82.7159 52.5401 82.9677 52.9976C83.2195 53.4552 83.5999 53.8289 84.0619 54.0726L83.0525 59.9669H86.9512L86.678 54.0726C87.1698 53.8345 87.5904 53.4714 87.8976 53.0196C88.2048 52.5677 88.3878 52.043 88.4283 51.4981Z" fill="white"/>
<path d="M16.8486 158.231L12.4405 158.161L10.1393 147.956L14.5473 148.026L16.8486 158.231Z" fill="#FFC3BD"/>
<path d="M12.1813 156.916L16.9875 156.995C17.0765 156.995 17.1627 157.026 17.2324 157.081C17.302 157.137 17.3511 157.214 17.3718 157.3L18.3581 161.222C18.3836 161.315 18.3869 161.412 18.3679 161.506C18.3488 161.6 18.3079 161.688 18.2483 161.764C18.1888 161.839 18.1124 161.899 18.0253 161.939C17.9382 161.98 17.8428 161.999 17.7469 161.995C16.0151 161.94 13.5055 161.796 11.3246 161.764C8.77799 161.722 9.69941 162.042 6.69436 161.995C4.88391 161.968 4.32828 160.143 5.08302 159.981C8.5048 159.282 8.18994 159.032 11.1024 157.245C11.4226 157.033 11.7974 156.919 12.1813 156.916Z" fill="#161D38"/>
<path opacity="0.2" d="M10.1439 147.961L11.3246 153.221L15.7373 153.29L14.552 148.03L10.1439 147.961Z" fill="black"/>
<path d="M11.4311 114.257C22.6087 106.316 38.3331 92.9577 36.3143 81.8173L20.8029 82.0025C20.8029 82.0025 0.0174759 102.204 0.0267365 113.808C0.0267365 127.569 9.35678 150.054 9.35678 150.054L16.4365 150.151C16.4365 150.151 14.075 129.556 11.4311 114.257Z" fill="#161D38"/>
<path opacity="0.2" d="M34.7493 90.6796C32.1702 96.1016 27.0398 101.575 21.5391 106.358C23.5162 98.6576 27.2714 91.4065 34.7493 90.6796Z" fill="black"/>
<path d="M7.76859 148.48L9.18545 151.512L17.0106 151.656L16.543 148.785L7.76859 148.48Z" fill="#161D38"/>
<path d="M65.3694 153.823L61.5772 156.064L55.0114 148.118L58.799 145.877L65.3694 153.823Z" fill="#FFC3BD"/>
<path d="M60.6141 155.092L64.7443 152.651C64.8172 152.602 64.9063 152.584 64.9927 152.599C65.0791 152.615 65.1561 152.663 65.2073 152.735L67.6105 155.865C67.6688 155.945 67.7098 156.037 67.7307 156.134C67.7516 156.231 67.7521 156.331 67.732 156.428C67.712 156.525 67.6719 156.617 67.6143 156.698C67.5567 156.779 67.4828 156.847 67.3975 156.897C65.8973 157.754 65.3601 157.916 63.4895 159.023C61.2994 160.315 60.0538 161.773 57.0719 161.727C55.2661 161.694 54.979 159.875 55.7523 159.708C56.7188 159.523 57.6148 159.074 58.3402 158.409C59.0655 157.744 59.5915 156.89 59.8594 155.944C59.9943 155.574 60.2639 155.27 60.6141 155.092Z" fill="#161D38"/>
<path opacity="0.2" d="M55.0114 148.118L58.3962 152.212L62.1884 149.975L58.8037 145.877L55.0114 148.118Z" fill="black"/>
<path d="M43.1533 120.966C45.561 98.5095 49.5199 92.7216 46.0333 81.5673L28.4058 82.0025C28.4058 82.0025 30.0681 108.585 32.0313 121.962C33.5223 132.149 55.0022 150.577 55.0022 150.577L61.1049 146.97C61.1049 146.97 52.3629 131.838 43.1533 120.966Z" fill="#161D38"/>
<path d="M53.2982 149.776L55.28 152.124L62.1375 148.091L61.0216 145.41L53.2982 149.776Z" fill="#161D38"/>
<path d="M24.5534 47.0253C24.0487 48.7385 23.493 50.3452 22.8957 51.9843C22.2984 53.6234 21.6641 55.2255 20.9556 56.8415C20.2472 58.4575 19.5017 60.0503 18.6405 61.6477C18.2006 62.4441 17.7469 63.2452 17.2097 64.0462C16.6434 64.9156 16.002 65.7337 15.2928 66.491L15.5475 66.1761C15.2151 66.6275 14.8208 67.0297 14.376 67.3708C14.2463 67.468 14.0704 67.5791 13.913 67.6717C13.7313 67.7729 13.5443 67.8641 13.3527 67.9449C12.7575 68.1827 12.1144 68.276 11.4762 68.2173C10.8379 68.1585 10.2227 67.9494 9.68088 67.6069C9.24226 67.3325 8.84475 66.9973 8.50016 66.6114C8.01849 66.0682 7.60773 65.4661 7.27776 64.8195C6.99571 64.2804 6.74525 63.7254 6.52765 63.1572C6.12749 62.0998 5.79801 61.017 5.5414 59.916C5.28111 58.8482 5.08475 57.7659 4.95336 56.6748C4.9098 56.2882 5.00203 55.8986 5.21426 55.5726C5.42649 55.2466 5.7455 55.0046 6.1166 54.888C6.48771 54.7714 6.88781 54.7875 7.24834 54.9336C7.60886 55.0796 7.90737 55.3465 8.09269 55.6885L8.12974 55.758C8.59276 56.6285 9.0558 57.5545 9.54198 58.4204C10.0282 59.2863 10.5097 60.1521 11.019 60.93C11.2556 61.2992 11.5106 61.6562 11.783 61.9996C11.9791 62.2538 12.2062 62.4825 12.4591 62.6803C12.5331 62.7312 12.5794 62.7266 12.4961 62.6525C12.2546 62.4904 11.9671 62.4108 11.6765 62.4256C11.4699 62.4277 11.265 62.4637 11.07 62.5321C10.997 62.56 10.9259 62.5925 10.857 62.6293C10.8109 62.6532 10.7661 62.6795 10.7227 62.7081C10.5792 62.8007 10.5792 62.8053 10.5977 62.7497L10.8477 62.4395C11.2477 61.9185 11.6068 61.3674 11.9219 60.7911C12.2785 60.1521 12.635 59.4669 12.9684 58.7584C13.3018 58.05 13.6259 57.3184 13.9361 56.5776C14.2463 55.8367 14.5612 55.0866 14.8622 54.3272C15.4502 52.8039 16.029 51.262 16.58 49.6969C17.131 48.1319 17.682 46.5622 18.196 45.0666V45.025C18.4715 44.1915 19.0647 43.5003 19.8468 43.1014C20.6288 42.7026 21.5366 42.6284 22.3731 42.8948C23.2096 43.1612 23.9072 43.7468 24.3145 44.5245C24.7219 45.3021 24.806 46.2091 24.5487 47.0484L24.5534 47.0253Z" fill="#161D38"/>
<path d="M5.80071 58.8372L1.98535 55.6932L6.76844 53.3225C6.76844 53.3225 9.96798 56.0034 8.38905 58.0315L5.80071 58.8372Z" fill="#FFC3BD"/>
<path d="M1.77698 52.3315L3.59669 51.0628C3.75012 50.9552 3.92375 50.8798 4.10711 50.841C4.29046 50.8023 4.47976 50.8011 4.66361 50.8374C4.84747 50.8737 5.02207 50.9469 5.1769 51.0525C5.33173 51.1581 5.46359 51.2939 5.56456 51.4518L6.76844 53.3039L1.98534 55.6746L1.2908 54.0077C1.16803 53.7148 1.14932 53.3887 1.23779 53.0837C1.32625 52.7787 1.51655 52.5133 1.77698 52.3315Z" fill="#FFC3BD"/>
<path d="M24.4747 39.4177C28.0638 38.8311 31.7055 38.6309 35.3373 38.8204C37.3398 38.9177 39.2537 39.6749 40.7806 40.974C42.3075 42.2731 43.3616 44.041 43.7784 46.002C45.2323 52.7159 47.1353 64.3611 46.3667 81.8173C40.2223 84.0352 22.2568 84.8594 20.5065 82.2294C20.9695 78.59 20.7102 68.4218 20.3259 63.0553C19.9787 58.2121 18.7285 52.8178 18.0988 48.0532C17.8429 46.0694 18.3633 44.0634 19.5514 42.4542C20.7395 40.845 22.5034 39.7571 24.4747 39.4177Z" fill="#161D38"/>
<mask id="mask0" mask-type="alpha" maskUnits="userSpaceOnUse" x="18" y="38" width="29" height="46">
<path d="M24.4747 39.4177C28.0638 38.8311 31.7055 38.6309 35.3373 38.8204C37.3398 38.9177 39.2537 39.6749 40.7806 40.974C42.3075 42.2731 43.3616 44.041 43.7784 46.002C45.2323 52.7159 47.1353 64.3611 46.3667 81.8173C40.2223 84.0352 22.2568 84.8594 20.5065 82.2294C20.9695 78.59 20.7102 68.4218 20.3259 63.0553C19.9787 58.2121 18.7285 52.8178 18.0988 48.0532C17.8429 46.0694 18.3633 44.0634 19.5514 42.4542C20.7395 40.845 22.5034 39.7571 24.4747 39.4177Z" fill="#161D38"/>
</mask>
<g mask="url(#mask0)">
<path d="M28.9383 84.7621C23.9561 84.7621 18.7285 84.3593 17.5709 82.7479C17.4334 82.5558 17.3778 82.3168 17.4165 82.0837C17.4551 81.8505 17.5848 81.6423 17.777 81.5047C17.9692 81.3672 18.2081 81.3116 18.4413 81.3503C18.6744 81.3889 18.8827 81.5186 19.0202 81.7108C19.4462 82.2942 23.1875 83.1508 31.4062 82.9517C38.1804 82.785 44.7785 81.9932 47.8345 80.9745C47.9455 80.9374 48.0627 80.9226 48.1794 80.9308C48.2961 80.939 48.4101 80.9701 48.5148 81.0223C48.6195 81.0746 48.7129 81.1469 48.7896 81.2352C48.8663 81.3236 48.9249 81.4261 48.962 81.5371C48.9991 81.6481 49.014 81.7653 49.0058 81.882C48.9976 81.9987 48.9665 82.1127 48.9142 82.2174C48.862 82.3221 48.7896 82.4155 48.7013 82.4922C48.613 82.5689 48.5104 82.6275 48.3994 82.6646C44.6952 83.9009 37.2126 84.5954 31.4433 84.7343C30.633 84.7529 29.7856 84.7621 28.9383 84.7621Z" fill="white"/>
<path d="M17.645 77.2564C17.8373 77.1186 18.0764 77.0626 18.3099 77.1008C18.5434 77.139 18.7522 77.2682 18.8906 77.4602C19.3536 78.076 23.2616 78.8909 31.3322 78.7011C38.0739 78.539 44.7276 77.775 47.8345 76.7239C48.0586 76.649 48.3033 76.6662 48.5148 76.7717C48.7262 76.8772 48.8871 77.0624 48.962 77.2865C49.0369 77.5106 49.0197 77.7553 48.9142 77.9668C48.8087 78.1782 48.6235 78.3391 48.3994 78.414C44.7507 79.6318 37.2636 80.3402 31.3785 80.4837C30.5589 80.5069 29.7116 80.5161 28.8642 80.5161C23.8033 80.5161 18.5896 80.0994 17.4413 78.502C17.3034 78.3097 17.2475 78.0706 17.2857 77.8371C17.3239 77.6036 17.4531 77.3948 17.645 77.2564Z" fill="white"/>
<path d="M17.4968 73.0104C17.6891 72.8726 17.9283 72.8167 18.1617 72.8548C18.3952 72.893 18.604 73.0223 18.7424 73.2142C19.2054 73.8624 23.3218 74.6311 31.2442 74.4505C37.9627 74.293 44.672 73.5244 47.8253 72.478C48.0494 72.4031 48.2941 72.4202 48.5055 72.5257C48.717 72.6312 48.8778 72.8164 48.9527 73.0405C49.0276 73.2647 49.0105 73.5094 48.905 73.7208C48.7994 73.9322 48.6143 74.0931 48.3902 74.168C44.8017 75.3626 37.3099 76.0896 31.3044 76.2378C30.4802 76.2378 29.6282 76.2702 28.7809 76.2702C23.6366 76.2702 18.4414 75.8349 17.3024 74.2514C17.1638 74.0609 17.1065 73.8233 17.143 73.5907C17.1794 73.358 17.3067 73.1494 17.4968 73.0104Z" fill="white"/>
<path d="M17.3857 68.7598C17.4806 68.6917 17.5879 68.6429 17.7016 68.6163C17.8153 68.5897 17.9332 68.5857 18.0484 68.6046C18.1636 68.6235 18.274 68.665 18.3732 68.7266C18.4724 68.7882 18.5586 68.8687 18.6266 68.9636C19.1267 69.6442 23.419 70.3758 31.1747 70.1999C37.8655 70.0471 44.6257 69.2969 47.8438 68.2274C48.0679 68.1524 48.3126 68.1696 48.524 68.2751C48.7355 68.3806 48.8963 68.5658 48.9713 68.7899C49.0462 69.014 49.029 69.2587 48.9235 69.4702C48.818 69.6816 48.6328 69.8425 48.4087 69.9174C44.8758 71.0981 37.3793 71.839 31.2766 71.9871C30.4431 72.0103 29.5912 72.0196 28.7438 72.0196C23.5162 72.0196 18.3349 71.5565 17.2098 70.0054C17.1395 69.9121 17.0883 69.8058 17.0591 69.6927C17.0299 69.5796 17.0233 69.4618 17.0396 69.3461C17.0559 69.2305 17.0949 69.1191 17.1543 69.0185C17.2137 68.9179 17.2923 68.83 17.3857 68.7598Z" fill="white"/>
<path d="M17.2561 64.5139C17.3509 64.4457 17.4582 64.397 17.572 64.3703C17.6857 64.3437 17.8035 64.3397 17.9187 64.3586C18.034 64.3776 18.1443 64.419 18.2436 64.4806C18.3428 64.5422 18.4289 64.6227 18.497 64.7176C19.0202 65.426 23.5023 66.1067 31.1006 65.9492C37.759 65.8057 44.5748 65.0649 47.8345 63.9767C48.0569 63.9105 48.2962 63.9334 48.5021 64.0405C48.7079 64.1476 48.8639 64.3305 48.9373 64.5506C49.0107 64.7707 48.9956 65.0107 48.8952 65.2199C48.7948 65.4291 48.617 65.591 48.3994 65.6714C44.9267 66.829 37.421 67.5884 31.184 67.7412C30.3459 67.7643 29.4939 67.7736 28.6419 67.7736C23.331 67.7736 18.1682 67.3106 17.0662 65.7548C16.9968 65.661 16.9466 65.5544 16.9185 65.4411C16.8905 65.3278 16.8851 65.2101 16.9028 65.0948C16.9204 64.9794 16.9607 64.8687 17.0214 64.769C17.082 64.6693 17.1618 64.5826 17.2561 64.5139Z" fill="white"/>
<path d="M17.1218 60.2633C17.3145 60.1266 17.5533 60.0714 17.7864 60.1095C18.0195 60.1476 18.2282 60.2761 18.3673 60.467C18.9137 61.2078 23.5811 61.8561 31.0219 61.6986C37.6571 61.5597 44.5239 60.8328 47.8345 59.7308C47.9455 59.6937 48.0627 59.6788 48.1794 59.687C48.2961 59.6952 48.4101 59.7263 48.5148 59.7785C48.6195 59.8308 48.7128 59.9031 48.7896 59.9915C48.8663 60.0798 48.9249 60.1824 48.962 60.2933C48.9991 60.4043 49.014 60.5215 49.0058 60.6382C48.9976 60.7549 48.9665 60.8689 48.9142 60.9736C48.862 61.0783 48.7896 61.1717 48.7013 61.2484C48.613 61.3251 48.5104 61.3837 48.3994 61.4208C44.9823 62.5599 37.4719 63.3331 31.1192 63.4952C30.2765 63.4952 29.4199 63.5276 28.5679 63.5276C23.1782 63.5276 18.0293 63.0646 16.9181 61.5088C16.7802 61.3165 16.7243 61.0774 16.7625 60.8439C16.8006 60.6104 16.9299 60.4016 17.1218 60.2633Z" fill="white"/>
<path d="M16.9922 56.0173C17.1844 55.8794 17.4235 55.8235 17.657 55.8617C17.8905 55.8999 18.0993 56.0291 18.2377 56.221C18.8072 56.9896 23.6598 57.6101 30.9432 57.448C37.5506 57.3137 44.4729 56.6053 47.8345 55.4802C48.0569 55.4139 48.2963 55.4368 48.5021 55.5439C48.7079 55.651 48.864 55.8339 48.9373 56.054C49.0107 56.2741 48.9956 56.5141 48.8952 56.7233C48.7948 56.9325 48.617 57.0944 48.3994 57.1748C45.0425 58.2907 37.5229 59.0825 31.0543 59.2446C30.2024 59.2677 29.3458 59.277 28.4938 59.277C23.0208 59.277 17.8858 58.7908 16.7884 57.2582C16.7203 57.1633 16.6715 57.056 16.6449 56.9423C16.6183 56.8286 16.6143 56.7108 16.6332 56.5955C16.6521 56.4803 16.6936 56.3699 16.7551 56.2707C16.8167 56.1715 16.8973 56.0854 16.9922 56.0173Z" fill="white"/>
<path d="M16.8625 51.7667C17.0544 51.6303 17.2925 51.5752 17.5248 51.6133C17.7572 51.6515 17.9651 51.7798 18.1034 51.9704C18.7007 52.7714 23.7431 53.3595 30.8691 53.1974C37.4488 53.0678 44.422 52.3732 47.8345 51.2342C48.0586 51.1593 48.3033 51.1765 48.5148 51.282C48.7262 51.3875 48.8871 51.5727 48.962 51.7968C49.0369 52.0209 49.0197 52.2656 48.9142 52.477C48.8087 52.6885 48.6235 52.8493 48.3994 52.9242C45.1026 54.0263 37.5738 54.8319 30.9895 54.9986C30.1329 54.9986 29.2717 55.031 28.4197 55.031C22.8633 55.031 17.7469 54.5263 16.6588 53.0122C16.5209 52.8199 16.465 52.5808 16.5031 52.3473C16.5413 52.1138 16.6706 51.905 16.8625 51.7667Z" fill="white"/>
<path d="M16.7328 47.5207C16.9238 47.3826 17.1618 47.326 17.3945 47.3634C17.6272 47.4007 17.8355 47.5289 17.9737 47.7198C18.5942 48.5532 23.8218 49.0811 30.7904 48.9468C37.3423 48.8218 44.371 48.1411 47.8345 46.9836C48.0569 46.9174 48.2962 46.9402 48.502 47.0473C48.7079 47.1544 48.8639 47.3374 48.9373 47.5575C49.0107 47.7776 48.9956 48.0176 48.8952 48.2267C48.7948 48.4359 48.617 48.5978 48.3994 48.6783C45.1582 49.7571 37.6247 50.5813 30.9247 50.748C30.0634 50.7712 29.1976 50.785 28.3456 50.785C22.7059 50.785 17.608 50.2664 16.5291 48.7616C16.4604 48.667 16.4111 48.5597 16.3841 48.4459C16.3572 48.3321 16.353 48.214 16.372 48.0986C16.3909 47.9832 16.4326 47.8727 16.4945 47.7735C16.5564 47.6743 16.6375 47.5884 16.7328 47.5207Z" fill="white"/>
<path d="M16.5986 43.2515C16.7913 43.1149 17.03 43.0597 17.2632 43.0978C17.4963 43.1359 17.705 43.2644 17.8441 43.4553C18.4877 44.3165 23.9052 44.8027 30.7117 44.6777C37.2404 44.5573 44.3201 43.8905 47.8438 42.7191C48.0679 42.6441 48.3126 42.6613 48.524 42.7668C48.7355 42.8723 48.8963 43.0575 48.9713 43.2816C49.0462 43.5057 49.029 43.7504 48.9235 43.9619C48.818 44.1733 48.6328 44.3342 48.4087 44.4091C45.2277 45.4694 37.6849 46.3122 30.8691 46.4835C29.9986 46.4835 29.1328 46.5159 28.2808 46.5159C22.5624 46.5159 17.4783 45.9834 16.4041 44.4971C16.2653 44.3059 16.2078 44.0676 16.2443 43.8342C16.2807 43.6008 16.4081 43.3913 16.5986 43.2515Z" fill="white"/>
<path d="M16.4689 39.0195C16.6616 38.8828 16.9004 38.8276 17.1335 38.8657C17.3666 38.9039 17.5753 39.0323 17.7145 39.2232C18.3812 40.1169 23.9839 40.5614 30.6376 40.4456C37.12 40.3299 44.2692 39.677 47.8345 38.487C47.9455 38.4499 48.0627 38.435 48.1794 38.4432C48.2961 38.4514 48.4101 38.4825 48.5148 38.5348C48.6194 38.587 48.7128 38.6594 48.7896 38.7477C48.8663 38.836 48.9249 38.9386 48.962 39.0496C48.9991 39.1605 49.0139 39.2777 49.0057 39.3945C48.9975 39.5112 48.9664 39.6251 48.9142 39.7298C48.8619 39.8345 48.7896 39.9279 48.7013 40.0046C48.6129 40.0814 48.5104 40.14 48.3994 40.1771C45.2739 41.2235 37.7266 42.0755 30.8043 42.2561C29.9292 42.2561 29.0587 42.2885 28.2067 42.2885C22.4049 42.2885 17.3348 41.7421 16.2744 40.265C16.1356 40.0739 16.0782 39.8355 16.1146 39.6021C16.1511 39.3687 16.2784 39.1592 16.4689 39.0195Z" fill="white"/>
</g>
<path d="M31.7998 30.4488C32.2628 33.7224 32.8185 37.4729 34.3742 39.9038C33.5084 42.1634 30.6052 43.6868 27.5584 42.9876C24.1413 42.2051 25.197 41.7421 25.7804 40.265C27.2667 38.5935 26.549 36.7367 26.174 35.4171L31.7998 30.4488Z" fill="#FFC3BD"/>
<path opacity="0.2" d="M29.9986 32.6019C29.9986 32.3935 29.9431 32.1852 29.9107 31.9814L26.2064 35.4403C26.5326 36.3301 26.6988 37.2707 26.6972 38.2184C28.5169 36.9729 30.2116 34.5605 29.9986 32.6019Z" fill="black"/>
<path d="M32.1795 26.2213C31.6285 30.5507 31.5266 33.1112 29.1837 35.1763C25.66 38.2879 20.4232 35.8986 19.6684 31.4721C18.9924 27.4993 20.0064 21.091 24.3774 19.6787C25.3456 19.3684 26.3766 19.3083 27.3742 19.5041C28.3719 19.6999 29.3036 20.1452 30.0827 20.7985C30.8617 21.4518 31.4626 22.2917 31.8292 23.24C32.1959 24.1882 32.3164 25.2139 32.1795 26.2213Z" fill="#FFC3BD"/>
<path d="M26.1092 31.2128C26.3164 31.1045 26.5132 30.9774 26.6972 30.8332C26.7086 30.822 26.7176 30.8086 26.7237 30.7939C26.7299 30.7792 26.733 30.7634 26.733 30.7475C26.733 30.7316 26.7299 30.7158 26.7237 30.7011C26.7176 30.6864 26.7086 30.673 26.6972 30.6618C26.6771 30.6366 26.6481 30.6202 26.6162 30.6159C26.5843 30.6116 26.5519 30.6197 26.5259 30.6387C26.1221 30.9629 25.6476 31.1877 25.1408 31.2946C24.6341 31.4016 24.1093 31.3879 23.6088 31.2545C23.5787 31.2442 23.5458 31.2461 23.5171 31.26C23.4885 31.2739 23.4665 31.2986 23.456 31.3286C23.4502 31.3438 23.4475 31.36 23.448 31.3762C23.4486 31.3925 23.4525 31.4084 23.4594 31.4231C23.4664 31.4378 23.4762 31.451 23.4883 31.4618C23.5005 31.4726 23.5147 31.4809 23.5301 31.486C24.3923 31.7369 25.3186 31.6388 26.1092 31.2128Z" fill="#161D38"/>
<path d="M26.6787 19.4009C29.7254 19.7112 32.5962 20.2992 33.7029 23.9988C34.6845 27.291 33.1426 29.6154 31.7998 30.4488C31.3921 30.6923 30.9377 30.847 30.4661 30.9028C29.9946 30.9587 29.5166 30.9144 29.0633 30.7729L26.6787 19.4009Z" fill="#FFC3BD"/>
<path d="M26.6787 19.4009C29.7254 19.7112 32.5962 20.2992 33.7029 23.9988C34.6845 27.291 33.1426 29.6154 31.7998 30.4488C30.5774 29.7358 29.3411 27.7864 29.3411 27.7864L31.0034 25.1657C31.2164 23.4386 29.2485 20.3687 26.6787 19.4009Z" fill="#92989B"/>
<path d="M33.1657 28.2818C33.1657 28.2818 34.8882 27.3928 30.7626 26.4297C28.2947 25.8555 21.2612 25.2212 19.1591 25.9204C18.4923 26.1426 18.233 30.1525 22.442 28.9532C22.7707 28.4902 23.1736 29.2495 24.0811 29.3607C27.188 29.7542 29.1651 27.2354 33.1657 28.2818Z" fill="#161D38"/>
<path d="M32.8787 27.3048C33.5917 26.8973 34.8234 27.0548 34.5548 27.6475C35.0873 27.9206 35.4809 28.7726 33.9575 28.8374C32.4342 28.9023 32.8787 27.3048 32.8787 27.3048Z" fill="#161D38"/>
<path d="M33.0268 27.4622C34.1196 27.6058 35.2262 26.2121 35.5179 25.6888C34.2261 26.1195 33.0222 26.5825 33.0268 27.4622Z" fill="#161D38"/>
<path d="M33.3463 30.4859C33.104 30.8922 32.7837 31.2467 32.4038 31.5288C32.024 31.8109 31.5921 32.0151 31.133 32.1296C29.8967 32.4213 29.318 31.31 29.6884 30.1664C30.0264 29.1384 31.0775 27.7494 32.2952 27.9623C32.5618 28.0124 32.8116 28.128 33.0223 28.2988C33.233 28.4695 33.398 28.6899 33.5022 28.9403C33.6065 29.1906 33.6468 29.4629 33.6196 29.7328C33.5924 30.0026 33.4985 30.2614 33.3463 30.4859Z" fill="#FFC3BD"/>
<path d="M25.998 27.0918C25.9749 27.4437 25.7665 27.7169 25.535 27.703C25.3035 27.6891 25.1368 27.3835 25.16 27.0316C25.1831 26.6797 25.3868 26.4019 25.623 26.4204C25.8591 26.439 26.0212 26.7399 25.998 27.0918Z" fill="white"/>
<path d="M21.9512 26.902C21.928 27.2539 21.7196 27.5271 21.4881 27.5086C21.2566 27.4901 21.0899 27.1937 21.1131 26.8372C21.1362 26.4807 21.34 26.2121 21.5761 26.2306C21.8123 26.2492 21.9743 26.5455 21.9512 26.902Z" fill="white"/>
<path d="M23.206 27.3928C23.206 27.3928 22.2799 29.3931 21.3539 30.3284C21.9512 30.9489 23.03 30.7405 23.03 30.7405L23.206 27.3928Z" fill="#ED847E"/>
<path d="M26.9287 24.6331C26.9539 24.6082 26.9701 24.5756 26.975 24.5405C26.9811 24.5141 26.9819 24.4866 26.9773 24.4599C26.9726 24.4331 26.9627 24.4075 26.948 24.3847C26.9333 24.3618 26.9143 24.3421 26.8919 24.3267C26.8695 24.3113 26.8442 24.3006 26.8176 24.2951C26.4944 24.2176 26.1573 24.2191 25.8348 24.2998C25.5124 24.3804 25.2142 24.5376 24.9655 24.7581C24.9454 24.7768 24.9294 24.7993 24.9185 24.8244C24.9076 24.8495 24.9019 24.8766 24.9019 24.904C24.9019 24.9314 24.9076 24.9585 24.9185 24.9836C24.9294 25.0087 24.9454 25.0312 24.9655 25.0499C24.9845 25.0693 25.0072 25.0848 25.0322 25.0953C25.0572 25.1059 25.0842 25.1113 25.1113 25.1113C25.1385 25.1113 25.1654 25.1059 25.1905 25.0953C25.2155 25.0848 25.2382 25.0693 25.2572 25.0499C25.4602 24.8826 25.6993 24.7646 25.9555 24.7052C26.2118 24.6457 26.4783 24.6464 26.7343 24.7072C26.7704 24.714 26.8076 24.7107 26.8419 24.6976C26.8763 24.6845 26.9063 24.6622 26.9287 24.6331Z" fill="#161D38"/>
<path d="M21.8169 24.6748C21.7999 24.6452 21.7757 24.6204 21.7466 24.6026C21.7174 24.5848 21.6843 24.5746 21.6502 24.573C21.3893 24.5692 21.133 24.504 20.9021 24.3825C20.6711 24.261 20.4722 24.0867 20.3213 23.8738C20.3079 23.8501 20.2899 23.8293 20.2683 23.8127C20.2467 23.7961 20.2221 23.784 20.1957 23.7771C20.1694 23.7702 20.142 23.7686 20.115 23.7725C20.0881 23.7764 20.0622 23.7856 20.0389 23.7997C20.015 23.8136 19.9942 23.832 19.9775 23.854C19.9609 23.876 19.9487 23.901 19.9419 23.9278C19.935 23.9545 19.9334 23.9823 19.9374 24.0096C19.9413 24.0369 19.9506 24.0631 19.9648 24.0868C20.1463 24.3651 20.393 24.5949 20.6835 24.7563C20.974 24.9177 21.2995 25.0058 21.6317 25.0128C21.6588 25.0141 21.6859 25.0099 21.7114 25.0005C21.7369 24.9911 21.7603 24.9767 21.7801 24.9581C21.8 24.9396 21.8159 24.9173 21.827 24.8925C21.8381 24.8677 21.8441 24.8409 21.8447 24.8137C21.8532 24.7656 21.8433 24.716 21.8169 24.6748Z" fill="#161D38"/>
<path d="M31.1516 51.9611C31.308 51.6915 31.5506 51.4823 31.8404 51.3672C32.1301 51.2522 32.4502 51.2379 32.749 51.3268L42.3615 54.2439C42.7118 54.3509 43.0056 54.592 43.179 54.9145C43.3524 55.2371 43.3914 55.6151 43.2876 55.9663L36.8051 77.3166C36.6981 77.6658 36.4578 77.9588 36.1362 78.1321C35.8147 78.3055 35.4379 78.3452 35.0873 78.2427L4.58758 68.9821C4.23732 68.8751 3.94351 68.634 3.77008 68.3114C3.59664 67.9889 3.55763 67.6108 3.66152 67.2596L9.10675 49.3311C9.21379 48.9809 9.45482 48.6871 9.7774 48.5136C10.1 48.3402 10.478 48.3012 10.8292 48.4051L27.4195 53.4382C28.1171 53.647 28.8647 53.6148 29.5417 53.3468C30.2187 53.0789 30.7858 52.5908 31.1516 51.9611Z" fill="#095FD2"/>
<path d="M36.481 76.8305C36.481 76.8305 41.3104 59.0363 41.8336 55.2255C38.3794 54.4291 15.7373 48.8774 10.5005 46.3539C8.18531 54.3041 5.40714 67.2411 5.40714 67.2411C5.40714 67.2411 31.2025 76.3535 36.481 76.8305Z" fill="#E6E6E6"/>
<path d="M36.481 76.8304C36.481 76.8304 40.2871 59.8882 40.815 56.0775C37.3654 55.2903 14.7187 49.734 9.49106 47.2104C7.17591 55.1607 5.40714 67.2411 5.40714 67.2411C5.40714 67.2411 31.2025 76.3535 36.481 76.8304Z" fill="white"/>
<path d="M35.2957 77.5434C35.2957 77.5434 39.1018 60.6058 39.625 56.7951C36.1708 55.9987 13.5333 50.447 8.29644 47.9235C5.9813 55.8783 4.21252 67.9587 4.21252 67.9587" fill="#E6E6E6"/>
<path d="M25.961 52.4659C26.0049 52.3279 26.076 52.2002 26.1701 52.0901C26.2642 51.9801 26.3794 51.8901 26.5089 51.8253C26.6384 51.7606 26.7796 51.7225 26.924 51.7132C27.0685 51.7039 27.2134 51.7237 27.3501 51.7713L36.958 54.6884C37.3252 54.8169 37.6396 55.0632 37.8523 55.389C38.065 55.7148 38.1641 56.1017 38.134 56.4896L36.018 77.0851C36.0109 77.257 35.9637 77.4248 35.8802 77.5752C35.7966 77.7255 35.679 77.8542 35.5368 77.9509C35.3946 78.0477 35.2317 78.1098 35.0612 78.1323C34.8907 78.1549 34.7173 78.1372 34.5548 78.0807L4.05973 68.8201C3.69207 68.6922 3.37718 68.4461 3.16437 68.1201C2.95155 67.7942 2.85282 67.4069 2.88364 67.0189L4.62 50.0442C4.62733 49.8723 4.67463 49.7045 4.75815 49.5541C4.84167 49.4037 4.95911 49.2749 5.10114 49.1778C5.24317 49.0807 5.40588 49.0181 5.57635 48.9949C5.74682 48.9716 5.92035 48.9885 6.08317 49.0441L22.6781 54.0865C22.9997 54.2029 23.3414 54.2531 23.6828 54.2341C24.0243 54.215 24.3583 54.1272 24.665 53.9758C24.9716 53.8245 25.2445 53.6127 25.4672 53.3532C25.6899 53.0937 25.8579 52.7919 25.961 52.4659Z" fill="#095FD2"/>
<path d="M41.0465 40.9364L41.6114 41.3994L42.1207 41.8208C42.4587 42.0986 42.7782 42.3903 43.0977 42.6774C43.7336 43.2577 44.351 43.852 44.9498 44.4601C46.1599 45.6813 47.2992 46.9706 48.3624 48.3217C50.5663 51.074 52.3455 54.1409 53.6409 57.4203C53.8029 57.837 53.9465 58.2676 54.1039 58.6936L54.303 59.3465L54.4002 59.6845C54.4512 59.8743 54.5021 60.0642 54.5392 60.2679C54.6901 61.0838 54.6616 61.9228 54.4558 62.7266C54.2674 63.4412 53.9538 64.1169 53.5298 64.7222C52.8645 65.6425 52.0396 66.4361 51.0942 67.0651C50.3102 67.5963 49.4831 68.061 48.6216 68.4542C47.0381 69.1504 45.3956 69.7036 43.7135 70.1073C42.0811 70.5314 40.4209 70.8409 38.7452 71.0333C38.3466 71.078 37.9453 70.977 37.6153 70.749C37.2853 70.521 37.0488 70.1814 36.9496 69.7928C36.8503 69.4042 36.8949 68.9927 37.0751 68.6344C37.2554 68.2761 37.5591 67.995 37.9303 67.843L37.9951 67.8153C40.8335 66.6623 43.783 65.3936 46.1769 63.8564C46.7409 63.5022 47.2751 63.1027 47.7743 62.6617C48.1522 62.3641 48.467 61.9942 48.7004 61.5736C48.7606 61.444 48.7513 61.3699 48.7328 61.3699C48.7143 61.3699 48.6911 61.4301 48.6818 61.444L48.5939 61.2078L48.404 60.717C48.2651 60.3929 48.1355 60.0688 47.9827 59.7493C46.7256 57.1235 45.1283 54.6747 43.232 52.4658C42.3059 51.3222 41.2595 50.2294 40.213 49.1598C39.6898 48.6273 39.1481 48.1087 38.5971 47.6087L37.7729 46.8678L37.3608 46.5067L36.9904 46.1964L36.8561 46.0807C36.2695 45.4975 35.9208 44.717 35.8775 43.891C35.8342 43.065 36.0996 42.2524 36.622 41.6111C37.1444 40.9698 37.8865 40.5456 38.7042 40.4209C39.5219 40.2962 40.3567 40.48 41.0465 40.9364Z" fill="#161D38"/>
<path d="M39.8519 67.2411L35.4299 67.7921L37.5321 72.7002C37.5321 72.7002 41.4771 71.7278 41.2965 69.5516L39.8519 67.2411Z" fill="#FFC3BD"/>
<path d="M32.5499 71.3945L33.5778 72.9873C33.7745 73.2955 34.0746 73.5236 34.4242 73.6305C34.7738 73.7374 35.1501 73.7162 35.4855 73.5707L37.5321 72.6863L35.4299 67.7921L33.0407 69.2599C32.8676 69.3672 32.7175 69.5077 32.599 69.6734C32.4806 69.839 32.3961 70.0264 32.3504 70.2249C32.3048 70.4234 32.2989 70.6289 32.3332 70.8296C32.3674 71.0304 32.4411 71.2224 32.5499 71.3945Z" fill="#FFC3BD"/>
<path d="M34.3326 24.1099C34.8651 24.573 34.5039 25.4157 34.0084 25.8556C32.8972 25.0128 26.2249 22.5449 21.0436 22.5542C20.5806 21.8642 21.0436 20.9104 21.766 20.239C25.6045 20.6233 31.8091 21.9893 34.3326 24.1099Z" fill="#161D38"/>
<path d="M21.8493 20.6187C22.3679 19.4519 25.9379 16.7617 31.8646 18.5212C36.6894 19.9566 34.1288 24.5406 34.1288 24.5406L21.8493 20.6187Z" fill="#161D38"/>
</svg>
