<svg width="670" height="644" viewBox="0 0 670 644" fill="none" xmlns="http://www.w3.org/2000/svg">
<path opacity="0.2" d="M335.029 252.351C288.918 252.351 251.669 289.6 251.669 335.569C251.669 365.021 266.838 390.859 289.84 405.567L327.621 337.412C329.11 334.718 331.945 333.052 335.029 333.052C338.112 333.052 340.947 334.718 342.436 337.412L380.217 405.425C403.078 390.717 418.282 364.95 418.282 335.533C418.247 289.6 380.997 252.351 335.029 252.351Z" stroke="#095FD2" stroke-width="2" stroke-linecap="round"/>
<path opacity="0.1" d="M335.029 128.622C220.87 128.622 127.976 221.515 127.976 335.568C127.976 411.344 168.911 477.798 229.836 513.771L257.659 463.55C214.419 437.323 185.463 389.724 185.463 335.604C185.463 253.165 252.59 186.144 335.029 186.144C417.467 186.144 484.488 253.165 484.488 335.604C484.488 389.759 455.532 437.216 412.399 463.55L440.221 513.771C501.04 477.798 541.975 411.344 541.975 335.568C541.975 221.515 449.188 128.622 335.029 128.622Z" stroke="#095FD2" stroke-width="2" stroke-linecap="round"/>
<path opacity="0.05" d="M448.621 587.704C448.585 587.704 448.585 587.704 448.621 587.704ZM448.621 587.704L336.659 361.902C336.34 361.264 335.702 360.874 335.029 360.874C334.32 360.874 333.682 361.264 333.363 361.902L221.436 587.668C125.459 544.323 58.5444 447.636 58.5444 335.568C58.5444 183.132 182.592 59.0841 335.029 59.0841C487.465 59.0841 611.513 183.132 611.513 335.568C611.513 447.672 544.598 544.358 448.621 587.704ZM335.029 1.59692C150.871 1.59692 1.05719 151.375 1.05719 335.568C1.05719 470.071 80.9438 586.286 195.776 639.059V639.095C238.094 658.765 285.339 577.709 334.993 577.709C384.648 577.709 431.927 658.765 474.21 639.095L474.175 639.024L474.245 639.095C589.113 586.321 669 470.107 669 335.604C669 151.411 519.186 1.59692 335.029 1.59692Z" stroke="#095FD2" stroke-width="2" stroke-linecap="round"/>
</svg>
