<svg width="21" height="20" viewBox="0 0 21 20" fill="none" xmlns="http://www.w3.org/2000/svg">
<g clip-path="url(#clip0)">
<path d="M13.9659 9.60901L9.81295 6.59015C9.66055 6.47967 9.45822 6.46303 9.29117 6.54888C9.12279 6.63407 9.01764 6.80711 9.01764 6.99413V13.0299C9.01764 13.2189 9.12279 13.3913 9.29117 13.4764C9.36239 13.5124 9.44025 13.5303 9.51879 13.5303C9.62128 13.5303 9.7251 13.4977 9.81295 13.4332L13.9659 10.417C14.097 10.3205 14.1735 10.1714 14.1735 10.013C14.1742 9.85194 14.0957 9.70352 13.9659 9.60901Z" fill="#095FD2"/>
<path d="M10.6675 0.00201416C5.14357 0.00201416 0.667175 4.4784 0.667175 10.0023C0.667175 15.5243 5.14357 19.9994 10.6675 19.9994C16.1901 19.9994 20.6672 15.5236 20.6672 10.0023C20.6678 4.4784 16.1901 0.00201416 10.6675 0.00201416ZM10.6675 18.3309C6.06733 18.3309 2.33767 14.6032 2.33767 10.0023C2.33767 5.4035 6.06733 1.67118 10.6675 1.67118C15.267 1.67118 18.996 5.40283 18.996 10.0023C18.9967 14.6032 15.267 18.3309 10.6675 18.3309Z" fill="#095FD2"/>
</g>
<defs>
<clipPath id="clip0">
<rect width="20" height="20" fill="white" transform="translate(0.667175)"/>
</clipPath>
</defs>
</svg>
