<svg width="358" height="374" viewBox="0 0 358 374" fill="none" xmlns="http://www.w3.org/2000/svg">
<path d="M202.793 39.3684C202.793 37.0389 204.689 35.1504 207.028 35.1504H214.087C216.426 35.1504 218.322 37.0389 218.322 39.3684C218.322 41.698 216.426 43.5865 214.087 43.5865H207.028C204.689 43.5865 202.793 41.698 202.793 39.3684Z" fill="#FFFFFF"/>
<path d="M118.089 172.94C118.089 170.61 119.985 168.722 122.324 168.722H129.383C131.722 168.722 133.618 170.61 133.618 172.94C133.618 175.269 131.722 177.158 129.383 177.158H122.324C119.985 177.158 118.089 175.269 118.089 172.94Z" fill="#FFFFFF"/>
<path fill-rule="evenodd" clip-rule="evenodd" d="M246.557 35.1504V32.3383C246.557 14.4784 232.019 0 214.087 0H143.5C125.568 0 111.03 14.4784 111.03 32.3383V35.1504H80.7738C66.2968 35.1504 54.5609 46.8387 54.5609 61.257V62.2133C54.5609 73.4473 59.8848 83.8759 68.6783 90.5111V112.97C60.5842 114.875 54.5609 122.116 54.5609 130.759C54.5609 139.402 60.5842 146.644 68.6783 148.549V168.722H41.7274C10.748 168.722 -9.40105 201.192 4.45337 228.788C5.41466 230.703 6.67961 232.451 8.19954 233.965L8.36178 234.126C11.46 237.212 15.2714 239.154 19.2676 239.953V253.572C11.1736 255.476 5.15025 262.718 5.15025 271.361C5.15025 280.004 11.1736 287.246 19.2676 289.15V330.414H9.38545C7.36661 330.414 5.62842 331.833 5.23249 333.804L4.92821 335.32C0.909794 355.33 16.2775 374 36.7676 374H320.819C341.309 374 356.677 355.33 352.659 335.32L352.355 333.804C351.959 331.833 350.22 330.414 348.202 330.414H338.319V289.15C346.413 287.246 352.437 280.004 352.437 271.361C352.437 262.718 346.413 255.476 338.319 253.572V239.847C342.386 239.044 346.265 237.074 349.417 233.936C350.918 232.441 352.167 230.713 353.116 228.823C366.967 201.233 346.846 168.722 315.86 168.722H288.909V148.549C297.003 146.644 303.026 139.402 303.026 130.759C303.026 122.116 297.003 114.875 288.909 112.97V90.5111C297.702 83.8759 303.026 73.4473 303.026 62.2133V61.257C303.026 46.8387 291.29 35.1504 276.813 35.1504H246.557ZM143.5 8.43609C130.246 8.43609 119.501 19.1375 119.501 32.3383V35.1504H192.911C195.25 35.1504 197.146 37.0389 197.146 39.3684C197.146 41.698 195.25 43.5865 192.911 43.5865H80.7738C70.9749 43.5865 63.0313 51.4978 63.0313 61.257V62.2133C63.0313 72.4657 68.8474 81.8383 78.0548 86.4233C83.4172 89.0936 89.8051 88.6975 94.7935 85.3854L112.514 73.6194C122.747 66.825 135.957 66.3719 146.635 72.449L159.882 79.9882C171.601 86.6573 185.986 86.6573 197.705 79.9882L210.952 72.449C221.63 66.3718 234.84 66.825 245.073 73.6194L262.794 85.3854C267.782 88.6975 274.17 89.0936 279.532 86.4233C288.74 81.8383 294.556 72.4657 294.556 62.2133V61.257C294.556 51.4978 286.612 43.5865 276.813 43.5865H228.204C225.865 43.5865 223.969 41.698 223.969 39.3684C223.969 37.0389 225.865 35.1504 228.204 35.1504H238.086V32.3383C238.086 19.1375 227.341 8.43609 214.087 8.43609H143.5ZM27.738 330.414H329.849V289.639H329.627C328.295 289.639 326.969 289.824 325.688 290.189L294.292 299.123C283.392 302.224 271.838 302.224 260.938 299.123L242.554 293.891C233.175 291.222 223.233 291.222 213.854 293.891L195.47 299.123C184.571 302.224 173.017 302.224 162.117 299.123L143.733 293.891C134.354 291.222 124.412 291.222 115.033 293.891L96.649 299.123C85.7492 302.224 74.1951 302.224 63.2953 299.123L31.8993 290.189C30.6182 289.824 29.2924 289.639 27.96 289.639H27.738V330.414ZM329.849 239.847C325.783 239.044 321.903 237.074 318.752 233.936L311.907 227.119C304.961 220.201 293.571 220.636 287.178 228.065L279.436 237.06C267.348 251.106 245.53 251.106 233.441 237.06L228.684 231.532C221.073 222.689 207.305 222.784 199.818 231.732L198.889 232.842C188.431 245.341 169.156 245.341 158.698 232.842C150.725 223.314 136.064 223.212 127.959 232.63L124.235 236.956C112.1 251.057 90.1966 251.057 78.0611 236.956L74.9907 233.389C66.126 223.088 50.3329 222.484 40.7011 232.077L38.6438 234.126C35.5456 237.212 31.7341 239.154 27.738 239.953V253.083H27.96C30.0794 253.083 32.1885 253.377 34.2263 253.957L65.6223 262.891C75.0012 265.56 84.9431 265.56 94.322 262.891L112.706 257.659C123.606 254.558 135.16 254.558 146.06 257.659L164.444 262.891C173.823 265.56 183.764 265.56 193.143 262.891L211.527 257.659C222.427 254.558 233.981 254.558 244.881 257.659L263.265 262.891C272.644 265.56 282.586 265.56 291.965 262.891L323.361 253.957C325.399 253.377 327.508 253.083 329.627 253.083H329.849V239.847ZM77.1487 168.722H108.207C110.546 168.722 112.442 170.61 112.442 172.94C112.442 175.269 110.546 177.158 108.207 177.158H41.7274C17.0447 177.158 0.991107 203.028 12.0295 225.015C12.5837 226.119 13.3128 227.127 14.189 227.999L14.3513 228.161C19.4055 233.195 27.6001 233.195 32.6543 228.161L34.7116 226.112C47.8324 213.044 69.3461 213.867 81.422 227.899L84.4923 231.466C93.2473 241.639 109.049 241.639 117.804 231.466L121.528 227.14C133.044 213.758 153.876 213.902 165.205 227.442C172.277 235.893 185.31 235.893 192.382 227.442L193.311 226.331C204.154 213.373 224.093 213.235 235.115 226.042L239.872 231.57C248.58 241.688 264.297 241.688 273.005 231.57L280.747 222.575C290.351 211.415 307.462 210.761 317.897 221.154L324.741 227.97C329.901 233.109 338.267 233.109 343.427 227.97C344.284 227.117 344.998 226.13 345.54 225.051C356.582 203.057 340.535 177.158 315.86 177.158H143.5C141.161 177.158 139.265 175.269 139.265 172.94C139.265 170.61 141.161 168.722 143.5 168.722H280.438V149.038H280.216C278.097 149.038 275.988 148.743 273.95 148.164L242.554 139.23C233.175 136.561 223.233 136.561 213.854 139.23L195.47 144.461C184.571 147.562 173.017 147.562 162.117 144.461L143.733 139.23C134.354 136.561 124.412 136.561 115.033 139.23L83.637 148.164C81.5992 148.743 79.4901 149.038 77.3707 149.038H77.1487V168.722ZM280.438 95.1876C273.025 97.7942 264.737 96.8145 258.095 92.4046L240.374 80.6387C232.811 75.6167 223.047 75.2818 215.155 79.7736L201.907 87.3128C187.585 95.4639 170.002 95.4639 155.68 87.3128L142.432 79.7736C134.54 75.2818 124.776 75.6167 117.213 80.6387L99.4921 92.4046C92.8504 96.8145 84.5626 97.7942 77.1487 95.1876V112.481H77.3707C78.7031 112.481 80.0289 112.296 81.31 111.932L112.706 102.998C123.606 99.8962 135.16 99.8962 146.06 102.998L164.444 108.229C173.823 110.898 183.764 110.898 193.143 108.229L211.527 102.998C222.427 99.8962 233.981 99.8962 244.881 102.998L276.277 111.932C277.558 112.296 278.884 112.481 280.216 112.481H280.438V95.1876ZM12.9327 338.85C11.2343 352.91 22.2651 365.564 36.7676 365.564H320.819C335.322 365.564 346.353 352.91 344.654 338.85H12.9327ZM143.733 111.109C134.354 108.44 124.412 108.44 115.033 111.109L83.637 120.043C81.5992 120.623 79.4901 120.917 77.3707 120.917H72.9135C67.4557 120.917 63.0313 125.324 63.0313 130.759C63.0313 136.195 67.4557 140.602 72.9135 140.602H77.3707C78.7031 140.602 80.0289 140.417 81.31 140.052L112.706 131.118C123.606 128.016 135.16 128.016 146.06 131.118L164.444 136.349C173.823 139.018 183.764 139.018 193.143 136.349L211.527 131.118C222.427 128.016 233.981 128.016 244.881 131.118L276.277 140.052C277.558 140.417 278.884 140.602 280.216 140.602H284.674C290.131 140.602 294.556 136.195 294.556 130.759C294.556 125.324 290.131 120.917 284.674 120.917H280.216C278.097 120.917 275.988 120.623 273.95 120.043L242.554 111.109C233.175 108.44 223.233 108.44 213.854 111.109L195.47 116.341C184.571 119.442 173.016 119.442 162.117 116.341L143.733 111.109ZM13.6207 271.361C13.6207 265.925 18.045 261.519 23.5028 261.519H27.96C29.2924 261.519 30.6182 261.704 31.8993 262.068L63.2953 271.002C74.1951 274.104 85.7492 274.104 96.649 271.002L115.033 265.771C124.412 263.102 134.354 263.102 143.733 265.771L162.117 271.002C173.016 274.104 184.571 274.104 195.47 271.002L213.854 265.771C223.233 263.102 233.175 263.102 242.554 265.771L260.938 271.002C271.838 274.104 283.392 274.104 294.292 271.002L325.688 262.068C326.969 261.704 328.295 261.519 329.627 261.519H334.084C339.542 261.519 343.966 265.925 343.966 271.361C343.966 276.797 339.542 281.203 334.084 281.203H329.627C327.508 281.203 325.399 281.497 323.361 282.077L291.965 291.011C282.586 293.68 272.644 293.68 263.265 291.011L244.881 285.78C233.981 282.678 222.427 282.678 211.527 285.78L193.143 291.011C183.764 293.68 173.823 293.68 164.444 291.011L146.06 285.78C135.16 282.678 123.606 282.678 112.706 285.78L94.322 291.011C84.9431 293.68 75.0012 293.68 65.6223 291.011L34.2263 282.077C32.1885 281.497 30.0794 281.203 27.96 281.203H23.5028C18.045 281.203 13.6207 276.797 13.6207 271.361Z" fill="#FFFFFF"/>
</svg>
