<svg width="129" height="50" viewBox="0 0 129 50" fill="none" xmlns="http://www.w3.org/2000/svg">
<path d="M20.0306 44.1105V44.92H18.4177V48.9541H17.5818V44.92H15.9688V44.1105H20.0306Z" fill="#DA045B"/>
<path d="M25.2531 44.8591C24.9948 44.8591 24.7501 44.9 24.5284 44.9804C24.3062 45.0621 24.1138 45.1766 23.9436 45.3251C23.7734 45.4732 23.6406 45.6486 23.5444 45.858C23.4482 46.0673 23.4035 46.2963 23.4035 46.5461C23.4035 46.7955 23.4482 47.0253 23.5444 47.2271C23.6406 47.4292 23.7734 47.605 23.9436 47.7535C24.1138 47.9016 24.3139 48.0165 24.5356 48.0974C24.7577 48.1787 25.0016 48.2191 25.2612 48.2191C25.5195 48.2191 25.7634 48.1787 25.986 48.0974C26.2077 48.0165 26.4001 47.9016 26.5627 47.7535C26.7252 47.605 26.8589 47.4292 26.955 47.2207C27.0512 47.0117 27.0955 46.7819 27.0955 46.5325C27.0955 46.2831 27.0512 46.0537 26.955 45.8439C26.8589 45.6354 26.7333 45.4596 26.5707 45.3111C26.4073 45.163 26.2154 45.0481 25.9932 44.9676C25.7715 44.8859 25.5344 44.8463 25.2753 44.8463L25.2531 44.8591ZM25.268 44.0224C25.6306 44.0224 25.9783 44.0837 26.3043 44.2118C26.629 44.3399 26.918 44.5152 27.1619 44.7378C27.4066 44.9604 27.599 45.2234 27.7462 45.5337C27.8943 45.8439 27.9684 46.175 27.9684 46.5325C27.9684 46.89 27.8943 47.2207 27.7462 47.5241C27.599 47.828 27.4066 48.091 27.1619 48.3132C26.918 48.5362 26.6371 48.7115 26.3111 48.8396C25.986 48.9677 25.6455 49.0286 25.2829 49.0286C24.9203 49.0286 24.5726 48.9609 24.247 48.8328C23.9219 48.7047 23.6325 48.5289 23.3891 48.3068C23.1452 48.0842 22.9524 47.8212 22.8043 47.5173C22.6566 47.2134 22.583 46.8836 22.583 46.5257C22.583 46.1682 22.6566 45.8375 22.8043 45.5337C22.9524 45.2306 23.1452 44.9676 23.3891 44.7446C23.6325 44.522 23.9219 44.3467 24.247 44.2186C24.5726 44.0901 24.9203 44.0224 25.2829 44.0224H25.268Z" fill="#DA045B"/>
<path d="M31.9331 46.3029H32.7324C32.9392 46.3029 33.1167 46.242 33.2575 46.1207C33.398 45.9994 33.472 45.8373 33.472 45.6356C33.472 45.4462 33.4056 45.284 33.272 45.1564C33.1392 45.0278 32.9617 44.9606 32.7472 44.9606H31.948L31.9331 46.3029ZM32.614 44.1375C32.8583 44.1375 33.0801 44.1716 33.2873 44.2456C33.4942 44.3201 33.6716 44.4209 33.827 44.5491C33.9823 44.6776 34.1015 44.8325 34.1896 45.0146C34.2789 45.1964 34.3232 45.3994 34.3232 45.6215C34.3232 45.8373 34.2789 46.0403 34.1972 46.222C34.1159 46.4042 33.9976 46.5595 33.8495 46.6872C33.701 46.8157 33.5239 46.9166 33.3167 46.9911C33.1098 47.0651 32.8805 47.0992 32.6285 47.0992H31.9557V48.9539H31.1198V44.1107H32.6213L32.614 44.1375Z" fill="#DA045B"/>
<path d="M41.1084 44.1105V44.92H39.4958V48.9541H38.6595V44.92H37.047V44.1105H41.1084Z" fill="#DA045B"/>
<path d="M48.1175 48.9541H48.9529V44.1105H48.1175V48.9541ZM45.0984 48.1046H45.8976C46.1117 48.1046 46.2896 48.0438 46.4228 47.9157C46.556 47.7871 46.6224 47.6322 46.6224 47.4428C46.6224 47.2411 46.5483 47.079 46.4079 46.9577C46.267 46.8364 46.0895 46.7751 45.8827 46.7751H45.0835L45.0984 48.1046ZM45.7716 48.9541H44.2702V44.1105H45.106V45.9656H45.7789C46.0308 45.9656 46.2602 45.9997 46.4671 46.0742C46.6743 46.1478 46.8518 46.2491 46.9999 46.3772C47.148 46.5053 47.2663 46.6606 47.3476 46.8428C47.4293 47.0253 47.4736 47.2275 47.4736 47.4428C47.4736 47.6659 47.4293 47.868 47.3399 48.0502C47.2518 48.2327 47.1331 48.3872 46.9773 48.5162C46.8224 48.6443 46.6445 48.7451 46.4377 48.8192C46.2304 48.8937 46.0087 48.9277 45.7644 48.9277L45.7716 48.9541Z" fill="#DA045B"/>
<path d="M57.4227 47.7467L59.2574 45.5337H60.0639V48.9541H59.2574V46.7419L57.4227 48.9541H56.6162V45.5337H57.4227V47.7467Z" fill="#DA045B"/>
<path d="M70.9618 44.9334H69.6004C69.5783 45.5207 69.4893 46.094 69.3267 46.6536C69.1637 47.2133 68.9493 47.7061 68.6833 48.1376H70.9618V44.9334ZM72.5003 48.1376V50H71.7092V48.9607H68.0913V50H67.3001V48.1376H67.7359C67.8993 47.8882 68.0466 47.6252 68.1798 47.355C68.313 47.0856 68.4241 46.8022 68.5126 46.5051C68.6015 46.2089 68.6756 45.8986 68.7275 45.5675C68.779 45.2373 68.8084 44.8862 68.8084 44.5155V44.1103H71.7981V48.1313L72.5003 48.1376Z" fill="#DA045B"/>
<path d="M78.6037 44.1105V44.9336H76.5545V46.0533H78.3819V46.876H76.5545V48.131H78.6037V48.9541H75.7182V44.1105H78.6037Z" fill="#DA045B"/>
<path d="M86.2083 48.1514C86.053 48.4076 85.8015 48.617 85.4538 48.7855C85.106 48.9541 84.6847 49.0349 84.1961 49.0349C83.8412 49.0349 83.5012 48.9745 83.1824 48.8528C82.8645 48.7315 82.5828 48.5629 82.3393 48.3399C82.0955 48.1174 81.9027 47.8543 81.7622 47.5441C81.6222 47.2338 81.5477 46.89 81.5477 46.5184C81.5477 46.1409 81.6222 45.7966 81.7622 45.4864C81.9027 45.1766 82.0955 44.9135 82.3393 44.6978C82.5828 44.4816 82.8645 44.313 83.1824 44.1909C83.5012 44.0696 83.8412 44.0096 84.1961 44.0096C84.4332 44.0096 84.6554 44.0296 84.8622 44.0768C85.069 44.1241 85.2614 44.1845 85.4316 44.2658C85.6019 44.3467 85.75 44.4411 85.8755 44.5488C86.0015 44.6569 86.0972 44.7646 86.1717 44.8795L85.9125 45.5609C85.8308 45.4596 85.7351 45.3651 85.624 45.2774C85.5129 45.1898 85.3869 45.1093 85.2465 45.0412C85.106 44.974 84.9507 44.9199 84.7809 44.8795C84.6107 44.8386 84.4332 44.8191 84.2481 44.8191C83.9744 44.8191 83.7229 44.8591 83.4931 44.9404C83.2641 45.0212 83.0713 45.1293 82.9088 45.2702C82.7462 45.4119 82.6202 45.5881 82.5313 45.7966C82.4427 46.006 82.3985 46.2422 82.3985 46.5052C82.3985 46.7682 82.4427 47.0049 82.5313 47.2134C82.6202 47.4224 82.7462 47.5977 82.9088 47.7467C83.0713 47.8948 83.2713 48.0097 83.5012 48.0905C83.7301 48.1714 83.9817 48.2123 84.2553 48.2123C84.6622 48.2123 85.0103 48.1378 85.298 47.9892C85.5874 47.8411 85.8091 47.6654 85.9649 47.4632L86.2164 48.1514H86.2083Z" fill="#DA045B"/>
<path d="M92.2091 44.1105V44.9336H90.1599V46.0533H91.9873V46.876H90.1599V48.131H92.2091V48.9541H89.3236V44.1105H92.2091Z" fill="#DA045B"/>
<path d="M96.3293 46.3029H97.1285C97.3358 46.3029 97.5133 46.242 97.6537 46.1207C97.7941 45.9994 97.8686 45.8373 97.8686 45.6356C97.8686 45.4462 97.8022 45.284 97.6686 45.1564C97.5358 45.0278 97.3579 44.9606 97.1434 44.9606H96.3442L96.3293 46.3029ZM97.0102 44.1375C97.2545 44.1375 97.4762 44.1716 97.6835 44.2456C97.8908 44.3201 98.0687 44.4209 98.2236 44.5491C98.3789 44.6776 98.4976 44.8325 98.5862 45.0146C98.6751 45.1964 98.7194 45.3994 98.7194 45.6215C98.7194 45.8373 98.6751 46.0403 98.5934 46.222C98.5125 46.4042 98.3938 46.5595 98.2461 46.6872C98.0976 46.8157 97.9201 46.9166 97.7133 46.9911C97.506 47.0651 97.2766 47.0992 97.0251 47.0992H96.3523V48.9539H95.516V44.1107H97.0179L97.0102 44.1375Z" fill="#DA045B"/>
<path d="M105.311 44.1105V44.92H103.698V48.9541H102.862V44.92H101.249V44.1105H105.311Z" fill="#DA045B"/>
<path d="M112.124 48.9541H112.96V44.1105H112.124V48.9541ZM109.106 48.1046H109.905C110.12 48.1046 110.297 48.0438 110.43 47.9157C110.564 47.7871 110.63 47.6322 110.63 47.4428C110.63 47.2411 110.556 47.079 110.415 46.9577C110.275 46.8364 110.097 46.7751 109.89 46.7751H109.091L109.106 48.1046ZM109.779 48.9541H108.277V44.1105H109.113V45.9656H109.786C110.038 45.9656 110.268 45.9997 110.475 46.0742C110.682 46.1478 110.859 46.2491 111.007 46.3772C111.155 46.5053 111.274 46.6606 111.355 46.8428C111.436 47.0253 111.481 47.2275 111.481 47.4428C111.481 47.6659 111.436 47.868 111.347 48.0502C111.259 48.2327 111.14 48.3872 110.985 48.5162C110.83 48.6443 110.652 48.7451 110.445 48.8192C110.238 48.8937 110.016 48.9277 109.771 48.9277L109.779 48.9541Z" fill="#DA045B"/>
<path d="M102.272 31.1196C101.301 31.9125 99.871 31.7686 99.0777 30.7983L93.3979 23.8481L101.663 17.0906L100.238 15.3491L89.5008 24.1277L89.508 4.48564L92.8693 1.7419L91.4308 0.0118904L87.2584 3.42977L87.2477 33.6289H89.4974L89.4999 27.0348L91.6564 25.2721L97.3209 32.204C98.9083 34.1468 101.77 34.4345 103.714 32.8471L108.088 29.2717L106.665 27.5298L102.272 31.1196Z" fill="#040506"/>
<path d="M118.807 31.6381C115.44 31.6381 112.561 29.5135 111.438 26.5357L122.979 17.0941C125.199 18.4879 126.679 20.9563 126.679 23.7656C126.679 28.1065 123.147 31.6381 118.807 31.6381ZM118.807 15.8931C119.434 15.8931 120.045 15.9693 120.63 16.1089L110.941 24.0358C110.938 23.946 110.934 23.8562 110.934 23.7656C110.934 19.4246 114.466 15.8931 118.807 15.8931ZM118.807 13.6435C113.225 13.6435 108.684 18.1845 108.684 23.7656C108.684 29.3467 113.225 33.8877 118.807 33.8877C124.388 33.8877 128.929 29.3467 128.929 23.7656C128.929 18.1845 124.388 13.6435 118.807 13.6435Z" fill="#040506"/>
<path d="M70.0627 31.6381C66.6964 31.6381 63.8181 29.5135 62.695 26.5357L74.2356 17.0941C76.4554 18.4879 77.9352 20.9563 77.9352 23.7656C77.9352 28.1065 74.4037 31.6381 70.0627 31.6381ZM70.0627 15.8931C70.6909 15.8931 71.3008 15.9693 71.8868 16.1089L62.1975 24.0358C62.1941 23.946 62.1903 23.8562 62.1903 23.7656C62.1903 19.4246 65.7218 15.8931 70.0627 15.8931ZM77.9561 3.42899L77.9471 17.4273C76.0899 15.1219 73.2465 13.6435 70.0627 13.6435C64.4816 13.6435 59.9406 18.1845 59.9406 23.7656C59.9406 29.3467 64.4816 33.8877 70.0627 33.8877C73.2419 33.8877 76.0818 32.4135 77.9386 30.1145L77.9365 33.6289H80.1861V4.48656L83.5691 1.7326L82.1332 4.57764e-05L77.9561 3.42899Z" fill="#040506"/>
<path d="M45.7399 31.6381C42.3736 31.6381 39.4949 29.5135 38.3722 26.5357L49.9124 17.0941C51.965 18.3828 53.3826 20.5907 53.5852 23.137V24.3942C53.2634 28.4419 49.869 31.6381 45.7399 31.6381ZM45.7399 15.8931C46.3681 15.8931 46.978 15.9693 47.564 16.1089L37.8743 24.0358C37.8713 23.946 37.8675 23.8562 37.8675 23.7656C37.8675 19.4246 41.399 15.8931 45.7399 15.8931ZM55.8353 13.8975H53.5852V17.378C51.7271 15.1007 48.9012 13.6435 45.7399 13.6435C40.1588 13.6435 35.6174 18.1845 35.6174 23.7656C35.6174 29.3467 40.1588 33.8877 45.7399 33.8877C48.9012 33.8877 51.7271 32.4305 53.5852 30.1536V33.6332H55.8353V13.8975Z" fill="#040506"/>
<path d="M29.1402 31.1863C28.6329 31.6017 27.7814 31.766 27.0851 31.4238C26.465 31.1187 26.0118 30.465 26.0118 29.7057V3.64543H23.7668L10.7452 14.2817C10.512 14.2093 10.2804 14.1387 10.0506 14.0689C6.44081 12.9687 4.70527 11.7422 4.70527 9.20102C4.70527 6.81519 6.64636 5.06901 9.03177 5.06901H10.1566V2.81894H9.03177C5.40536 2.81894 2.45563 5.57503 2.45563 9.20102C2.45563 13.5305 5.98288 15.1818 9.39479 16.221C10.3153 16.5015 11.2674 16.7918 12.2224 17.1565C13.8868 17.7974 17.758 19.7509 17.758 24.0322C17.758 26.204 16.9672 28.1642 15.5313 29.5525C14.0664 30.9684 12.0279 31.7068 9.81485 31.6328C5.79945 31.4979 2.50457 28.1783 2.26454 24.1199L8.87345 18.7137L7.4554 16.9671L0 23.064V23.6335C0 29.1035 4.36906 33.7007 9.73909 33.8816C9.86762 33.8858 9.99572 33.8879 10.1234 33.8879C12.811 33.8879 15.2743 32.9299 17.0953 31.1697C18.973 29.3542 20.0076 26.819 20.0076 24.0322C20.0076 20.1615 17.4847 16.8535 13.2455 15.1435L23.7621 6.54962V29.7057C23.7621 31.3323 24.6754 32.7742 26.1454 33.47C26.7208 33.7424 27.3307 33.8764 27.9354 33.8764C28.8755 33.8764 29.802 33.5534 30.5668 32.9261L35.0265 29.2695L33.6 27.5301C33.6 27.5301 29.6097 30.8016 29.1402 31.1863Z" fill="#040506"/>
</svg>
