<svg width="215" height="52" viewBox="0 0 215 52" fill="none" xmlns="http://www.w3.org/2000/svg">
<path d="M85.6763 21.1888L82.467 37.0707L82.0121 39.1442C81.3953 41.9656 80.1005 43.0651 77.4744 43.0651C76.7293 43.0651 76.1125 42.9674 75.627 42.7414V39.8251C76.0149 39.9535 76.4363 40.0205 76.8911 40.0205C78.0577 40.0205 78.479 39.6967 78.7079 38.6251L78.7721 38.3991L74.7842 21.186H78.2837L80.4884 32.5637L82.4642 21.186H85.6763V21.1888Z" fill="#161D38"/>
<path d="M94.0707 37.7209V18.2725H90.3423V15.0298H101.363V18.2725H97.6344V37.7209H94.0707Z" fill="#161D38"/>
<path d="M107.734 37.7209C107.572 37.4279 107.508 36.7805 107.474 35.7758C106.827 37.2995 105.658 38.0447 103.975 38.0447C101.77 38.0447 100.378 36.4567 100.378 33.8949C100.378 31.3023 101.48 29.8093 104.366 28.3833C105.566 27.8 106.311 27.3786 106.601 27.1191C106.894 26.8288 107.056 26.4716 107.056 26.0168V25.693C107.056 24.4288 106.601 23.8121 105.66 23.8121C104.622 23.8121 104.106 24.4595 104.106 25.7237V26.3405H100.863V25.9191C100.863 22.6763 102.549 20.8623 105.694 20.8623C109.065 20.8623 110.491 22.5786 110.491 26.307V32.9516C110.491 35.0586 110.62 36.6465 110.879 37.7154H107.734V37.7209ZM107.056 32.3405V29.5219C106.894 29.7172 106.311 30.1386 105.37 30.7526C104.332 31.4 103.813 32.2428 103.813 33.3144C103.813 34.5144 104.299 35.0977 105.273 35.0977C106.473 35.0949 107.056 34.1879 107.056 32.3405Z" fill="#161D38"/>
<path d="M119.698 21.0605V24.3981C119.438 24.334 119.145 24.3005 118.821 24.3005C116.876 24.3005 115.905 25.5981 115.905 28.1907V37.7209H112.47V21.1888H115.45L115.514 23.9767C115.969 21.9033 117.038 20.8651 118.724 20.8651C119.114 20.8651 119.438 20.9293 119.698 21.0605Z" fill="#161D38"/>
<path d="M127.964 21.1888H130.947V37.947C130.947 41.3181 129.521 43.0679 125.857 43.0679C122.617 43.0679 120.931 41.5107 120.931 38.6279V38.5302H124.238V38.7898C124.238 39.7609 124.757 40.2493 125.795 40.2493C126.931 40.2493 127.514 39.5684 127.514 38.2065V35.7116C126.8 36.7163 125.829 37.2353 124.598 37.2353C122.103 37.2353 120.839 35.6139 120.839 32.4046V25.6958C120.839 22.4865 122.103 20.8651 124.598 20.8651C126.186 20.8651 127.288 21.6102 127.905 23.1339L127.964 21.1888ZM127.509 31.5284V26.5693C127.509 24.786 126.926 23.9126 125.726 23.9126C124.752 23.9126 124.266 24.5935 124.266 25.9219V32.1786C124.266 33.507 124.752 34.1879 125.726 34.1879C126.926 34.1879 127.509 33.3116 127.509 31.5284Z" fill="#161D38"/>
<path d="M142.852 30.2H136.11V32.9879C136.11 34.3163 136.693 34.9972 137.829 34.9972C138.965 34.9972 139.548 34.3163 139.548 32.9879V32.3712H142.855V32.6642C142.855 36.133 141.041 38.0447 137.767 38.0447C134.494 38.0447 132.677 36.133 132.677 32.6642V26.2456C132.677 22.7767 134.494 20.8651 137.767 20.8651C141.041 20.8651 142.855 22.7767 142.855 26.2456V30.2H142.852ZM136.11 27.4763H139.481V25.9219C139.481 24.5935 138.928 23.9126 137.795 23.9126C136.66 23.9126 136.11 24.5935 136.11 25.9219V27.4763Z" fill="#161D38"/>
<path d="M151.757 24.1051H149.262V33.5712C149.262 34.6093 149.65 34.9972 150.591 34.9972C150.948 34.9972 151.336 34.933 151.757 34.8019V37.7181C151.205 37.9442 150.557 38.0419 149.876 38.0419C147.186 38.0419 145.824 36.7135 145.824 34.0232V24.1051H143.943V21.1888H145.986L146.31 16.7153H149.26V21.1888H151.754V24.1051H151.757Z" fill="#161D38"/>
<path d="M163.149 30.2H156.406V32.9879C156.406 34.3163 156.99 34.9972 158.126 34.9972C159.261 34.9972 159.845 34.3163 159.845 32.9879V32.3712H163.152V32.6642C163.152 36.133 161.338 38.0447 158.061 38.0447C154.788 38.0447 152.971 36.133 152.971 32.6642V26.2456C152.971 22.7767 154.788 20.8651 158.061 20.8651C161.335 20.8651 163.152 22.7767 163.152 26.2456V30.2H163.149ZM156.406 27.4763H159.778V25.9219C159.778 24.5935 159.228 23.9126 158.092 23.9126C156.956 23.9126 156.406 24.5935 156.406 25.9219V27.4763Z" fill="#161D38"/>
<path d="M172.009 37.7209C171.881 37.4614 171.783 36.8139 171.719 35.7758C171.102 37.2995 169.969 38.0446 168.381 38.0446C165.886 38.0446 164.653 36.4232 164.653 33.2139V25.693C164.653 22.4837 165.884 20.8623 168.381 20.8623C169.646 20.8623 170.617 21.3814 171.331 22.386V15.0298H174.766V32.9544C174.766 35.0614 174.895 36.6493 175.154 37.7181H172.009V37.7209ZM171.328 32.3404V26.5721C171.328 24.7888 170.745 23.9153 169.545 23.9153C168.574 23.9153 168.086 24.5963 168.086 25.9246V32.9907C168.086 34.3191 168.571 35 169.545 35C170.745 34.9972 171.328 34.1237 171.328 32.3404Z" fill="#161D38"/>
<path d="M188.993 37.7209L188.377 33.2809H184.26L183.644 37.7209H180.337L184.032 15.0325H188.862L192.557 37.7209H188.993ZM184.715 30.2H187.925L186.303 18.7581L184.715 30.2Z" fill="#161D38"/>
<path d="M200.921 37.7209C200.793 37.4614 200.695 36.8139 200.631 35.7758C200.014 37.2995 198.881 38.0446 197.293 38.0446C194.795 38.0446 193.565 36.4232 193.565 33.2139V25.693C193.565 22.4837 194.795 20.8623 197.293 20.8623C198.557 20.8623 199.528 21.3814 200.243 22.386V15.0298H203.678V32.9544C203.678 35.0614 203.806 36.6493 204.066 37.7181H200.921V37.7209ZM200.24 32.3404V26.5721C200.24 24.7888 199.657 23.9153 198.457 23.9153C197.486 23.9153 196.997 24.5963 196.997 25.9246V32.9907C196.997 34.3191 197.483 35 198.457 35C199.657 34.9972 200.24 34.1237 200.24 32.3404Z" fill="#161D38"/>
<path d="M205.168 32.9879V32.4688H208.475V33.0856C208.475 34.414 208.994 35.0949 209.999 35.0949C211.004 35.0949 211.489 34.5116 211.489 33.3116C211.489 32.9237 211.361 32.5665 211.101 32.2428C210.616 31.5619 210.225 31.3358 209.092 30.6884C208.475 30.3312 208.023 30.0716 207.73 29.8456C207.437 29.6195 207.049 29.3265 206.594 28.9051C205.718 28.0288 205.33 26.8958 205.33 25.4363C205.33 22.6149 206.982 20.8651 209.966 20.8651C212.818 20.8651 214.601 22.7126 214.601 25.6958V26.053H211.358V25.5981C211.358 24.3981 210.903 23.8149 209.996 23.8149C209.12 23.8149 208.668 24.334 208.668 25.3693C208.668 26.5693 209.511 27.2809 211.196 28.1907C212.363 28.8381 212.848 29.1312 213.66 29.9405C214.537 30.7498 214.891 31.8521 214.891 33.2474C214.891 36.2279 213.239 38.0447 210.158 38.0447C207.016 38.0447 205.168 36.1972 205.168 32.9879Z" fill="#161D38"/>
<path d="M26.6614 20.5247C23.0307 20.5247 20.0977 23.4577 20.0977 27.0772C20.0977 29.3963 21.2921 31.4307 23.1033 32.5889L26.0782 27.2223C26.1954 27.0102 26.4186 26.8791 26.6614 26.8791C26.9042 26.8791 27.1275 27.0102 27.2447 27.2223L30.2196 32.5777C32.0196 31.4196 33.2168 29.3907 33.2168 27.0744C33.214 23.4577 30.2809 20.5247 26.6614 20.5247Z" fill="#85D6FF"/>
<path d="M26.6614 10.7823C17.6726 10.7823 10.3582 18.0967 10.3582 27.0772C10.3582 33.0437 13.5814 38.2763 18.3786 41.1088L20.5693 37.1544C17.1647 35.0893 14.8847 31.3414 14.8847 27.08C14.8847 20.5888 20.1702 15.3116 26.6614 15.3116C33.1526 15.3116 38.4298 20.5888 38.4298 27.08C38.4298 31.3442 36.1498 35.0809 32.7535 37.1544L34.9442 41.1088C39.733 38.2763 42.9563 33.0437 42.9563 27.0772C42.9563 18.0967 35.6502 10.7823 26.6614 10.7823Z" fill="#2CA4F7"/>
<path d="M26.6614 0.780457C12.1609 0.780457 0.364655 12.5739 0.364655 27.0772C0.364655 37.6679 6.65489 46.8186 15.6967 50.9739V50.9767C19.0288 52.5256 22.7488 46.1432 26.6586 46.1432C30.5684 46.1432 34.2912 52.5256 37.6205 50.9767L37.6177 50.9711L37.6233 50.9767C46.6679 46.8214 52.9581 37.6707 52.9581 27.08C52.9581 12.5767 41.1619 0.780457 26.6614 0.780457ZM35.6056 46.9302C35.6028 46.9302 35.6028 46.9302 35.6056 46.9302L26.7898 29.1507C26.7647 29.1005 26.7144 29.0698 26.6614 29.0698C26.6056 29.0698 26.5554 29.1005 26.5302 29.1507L17.7172 46.9274C10.16 43.5144 4.89117 35.9014 4.89117 27.0772C4.89117 15.0744 14.6586 5.30697 26.6614 5.30697C38.6642 5.30697 48.4316 15.0744 48.4316 27.0772C48.4316 35.9042 43.1628 43.5172 35.6056 46.9302Z" fill="#095FD2"/>
</svg>
